<svg width="231" height="52" viewBox="0 0 231 52" fill="none" xmlns="http://www.w3.org/2000/svg">
  <mask id="path-1-inside-1_315_265" fill="white">
    <path
      d="M1.48023 3.26003C1.13357 3.26003 0.840235 3.14003 0.600235 2.90003C0.360234 2.66003 0.240234 2.3667 0.240234 2.02003C0.240234 1.67336 0.360234 1.38003 0.600235 1.14003C0.840235 0.900029 1.13357 0.780029 1.48023 0.780029C1.81357 0.780029 2.09357 0.900029 2.32023 1.14003C2.56023 1.38003 2.68023 1.67336 2.68023 2.02003C2.68023 2.3667 2.56023 2.66003 2.32023 2.90003C2.09357 3.14003 1.81357 3.26003 1.48023 3.26003ZM2.36023 5.04003V16H0.540235V5.04003H2.36023Z" />
    <path
      d="M9.88211 16.14C8.96211 16.14 8.13544 15.98 7.40211 15.66C6.68211 15.3267 6.11544 14.8734 5.70211 14.3C5.28878 13.7134 5.07544 13.04 5.06211 12.28H7.00211C7.06878 12.9334 7.33544 13.4867 7.80211 13.94C8.28211 14.38 8.97544 14.6 9.88211 14.6C10.7488 14.6 11.4288 14.3867 11.9221 13.96C12.4288 13.52 12.6821 12.96 12.6821 12.28C12.6821 11.7467 12.5354 11.3134 12.2421 10.98C11.9488 10.6467 11.5821 10.3934 11.1421 10.22C10.7021 10.0467 10.1088 9.86003 9.36211 9.66003C8.44211 9.42003 7.70211 9.18003 7.14211 8.94003C6.59544 8.70003 6.12211 8.3267 5.72211 7.82003C5.33544 7.30003 5.14211 6.6067 5.14211 5.74003C5.14211 4.98003 5.33544 4.3067 5.72211 3.72003C6.10878 3.13336 6.64878 2.68003 7.34211 2.36003C8.04878 2.04003 8.85544 1.88003 9.76211 1.88003C11.0688 1.88003 12.1354 2.2067 12.9621 2.86003C13.8021 3.51336 14.2754 4.38003 14.3821 5.46003H12.3821C12.3154 4.9267 12.0354 4.46003 11.5421 4.06003C11.0488 3.6467 10.3954 3.44003 9.58211 3.44003C8.82211 3.44003 8.20211 3.64003 7.72211 4.04003C7.24211 4.4267 7.00211 4.97336 7.00211 5.68003C7.00211 6.1867 7.14211 6.60003 7.42211 6.92003C7.71544 7.24003 8.06878 7.4867 8.48211 7.66003C8.90878 7.82003 9.50211 8.0067 10.2621 8.22003C11.1821 8.47336 11.9221 8.7267 12.4821 8.98003C13.0421 9.22003 13.5221 9.60003 13.9221 10.12C14.3221 10.6267 14.5221 11.32 14.5221 12.2C14.5221 12.88 14.3421 13.52 13.9821 14.12C13.6221 14.72 13.0888 15.2067 12.3821 15.58C11.6754 15.9534 10.8421 16.14 9.88211 16.14Z" />
    <path
      d="M19.4204 6.54003V13C19.4204 13.5334 19.5337 13.9134 19.7604 14.14C19.9871 14.3534 20.3804 14.46 20.9404 14.46H22.2804V16H20.6404C19.6271 16 18.8671 15.7667 18.3604 15.3C17.8537 14.8334 17.6004 14.0667 17.6004 13V6.54003H16.1804V5.04003H17.6004V2.28003H19.4204V5.04003H22.2804V6.54003H19.4204Z" />
    <path
      d="M34.2055 5.04003V16H32.3855V14.38C32.0389 14.94 31.5522 15.38 30.9255 15.7C30.3122 16.0067 29.6322 16.16 28.8855 16.16C28.0322 16.16 27.2655 15.9867 26.5855 15.64C25.9055 15.28 25.3655 14.7467 24.9655 14.04C24.5789 13.3334 24.3855 12.4734 24.3855 11.46V5.04003H26.1855V11.22C26.1855 12.3 26.4589 13.1334 27.0055 13.72C27.5522 14.2934 28.2989 14.58 29.2455 14.58C30.2189 14.58 30.9855 14.28 31.5455 13.68C32.1055 13.08 32.3855 12.2067 32.3855 11.06V5.04003H34.2055Z" />
    <path
      d="M36.5985 10.48C36.5985 9.36003 36.8252 8.38003 37.2785 7.54003C37.7318 6.6867 38.3518 6.0267 39.1385 5.56003C39.9385 5.09336 40.8318 4.86003 41.8185 4.86003C42.6718 4.86003 43.4652 5.06003 44.1985 5.46003C44.9318 5.8467 45.4918 6.36003 45.8785 7.00003V1.20003H47.7185V16H45.8785V13.94C45.5185 14.5934 44.9852 15.1334 44.2785 15.56C43.5718 15.9734 42.7452 16.18 41.7985 16.18C40.8252 16.18 39.9385 15.94 39.1385 15.46C38.3518 14.98 37.7318 14.3067 37.2785 13.44C36.8252 12.5734 36.5985 11.5867 36.5985 10.48ZM45.8785 10.5C45.8785 9.67336 45.7118 8.95336 45.3785 8.34003C45.0452 7.7267 44.5918 7.26003 44.0185 6.94003C43.4585 6.6067 42.8385 6.44003 42.1585 6.44003C41.4785 6.44003 40.8585 6.60003 40.2985 6.92003C39.7385 7.24003 39.2918 7.7067 38.9585 8.32003C38.6252 8.93336 38.4585 9.65336 38.4585 10.48C38.4585 11.32 38.6252 12.0534 38.9585 12.68C39.2918 13.2934 39.7385 13.7667 40.2985 14.1C40.8585 14.42 41.4785 14.58 42.1585 14.58C42.8385 14.58 43.4585 14.42 44.0185 14.1C44.5918 13.7667 45.0452 13.2934 45.3785 12.68C45.7118 12.0534 45.8785 11.3267 45.8785 10.5Z" />
    <path
      d="M60.2341 5.04003L53.6341 21.16H51.7541L53.9141 15.88L49.4941 5.04003H51.5141L54.9541 13.92L58.3541 5.04003H60.2341Z" />
    <path d="M69.2157 2.06003V16H67.3957V2.06003H69.2157Z" />
    <path
      d="M77.6576 4.84003C78.9909 4.84003 80.0709 5.2467 80.8976 6.06003C81.7242 6.86003 82.1376 8.02003 82.1376 9.54003V16H80.3376V9.80003C80.3376 8.7067 80.0642 7.87336 79.5176 7.30003C78.9709 6.71336 78.2242 6.42003 77.2776 6.42003C76.3176 6.42003 75.5509 6.72003 74.9776 7.32003C74.4176 7.92003 74.1376 8.79336 74.1376 9.94003V16H72.3176V5.04003H74.1376V6.60003C74.4976 6.04003 74.9842 5.6067 75.5976 5.30003C76.2242 4.99336 76.9109 4.84003 77.6576 4.84003Z" />
    <path
      d="M87.3306 6.54003V13C87.3306 13.5334 87.4439 13.9134 87.6705 14.14C87.8972 14.3534 88.2905 14.46 88.8505 14.46H90.1906V16H88.5506C87.5372 16 86.7772 15.7667 86.2705 15.3C85.7639 14.8334 85.5106 14.0667 85.5106 13V6.54003H84.0905V5.04003H85.5106V2.28003H87.3306V5.04003H90.1906V6.54003H87.3306Z" />
    <path
      d="M102.396 10.1C102.396 10.4467 102.376 10.8134 102.336 11.2H93.5757C93.6424 12.28 94.009 13.1267 94.6757 13.74C95.3557 14.34 96.1757 14.64 97.1357 14.64C97.9224 14.64 98.5757 14.46 99.0957 14.1C99.629 13.7267 100.002 13.2334 100.216 12.62H102.176C101.882 13.6734 101.296 14.5334 100.416 15.2C99.5357 15.8534 98.4424 16.18 97.1357 16.18C96.0957 16.18 95.1624 15.9467 94.3357 15.48C93.5224 15.0134 92.8824 14.3534 92.4157 13.5C91.949 12.6334 91.7157 11.6334 91.7157 10.5C91.7157 9.3667 91.9424 8.37336 92.3957 7.52003C92.849 6.6667 93.4824 6.01336 94.2957 5.56003C95.1224 5.09336 96.069 4.86003 97.1357 4.86003C98.1757 4.86003 99.0957 5.0867 99.8957 5.54003C100.696 5.99336 101.309 6.62003 101.736 7.42003C102.176 8.2067 102.396 9.10003 102.396 10.1ZM100.516 9.72003C100.516 9.0267 100.362 8.43336 100.056 7.94003C99.749 7.43336 99.329 7.05336 98.7957 6.80003C98.2757 6.53336 97.6957 6.40003 97.0557 6.40003C96.1357 6.40003 95.349 6.69336 94.6957 7.28003C94.0557 7.8667 93.689 8.68003 93.5957 9.72003H100.516Z" />
    <path
      d="M106.618 6.82003C106.938 6.19336 107.391 5.7067 107.978 5.36003C108.578 5.01336 109.305 4.84003 110.158 4.84003V6.72003H109.678C107.638 6.72003 106.618 7.8267 106.618 10.04V16H104.798V5.04003H106.618V6.82003Z" />
    <path
      d="M117.599 4.84003C118.932 4.84003 120.012 5.2467 120.839 6.06003C121.666 6.86003 122.079 8.02003 122.079 9.54003V16H120.279V9.80003C120.279 8.7067 120.006 7.87336 119.459 7.30003C118.912 6.71336 118.166 6.42003 117.219 6.42003C116.259 6.42003 115.492 6.72003 114.919 7.32003C114.359 7.92003 114.079 8.79336 114.079 9.94003V16H112.259V5.04003H114.079V6.60003C114.439 6.04003 114.926 5.6067 115.539 5.30003C116.166 4.99336 116.852 4.84003 117.599 4.84003Z" />
    <path
      d="M124.372 10.48C124.372 9.36003 124.599 8.38003 125.052 7.54003C125.505 6.6867 126.125 6.0267 126.912 5.56003C127.712 5.09336 128.599 4.86003 129.572 4.86003C130.532 4.86003 131.365 5.0667 132.072 5.48003C132.779 5.89336 133.305 6.41336 133.652 7.04003V5.04003H135.492V16H133.652V13.96C133.292 14.6 132.752 15.1334 132.032 15.56C131.325 15.9734 130.499 16.18 129.552 16.18C128.579 16.18 127.699 15.94 126.912 15.46C126.125 14.98 125.505 14.3067 125.052 13.44C124.599 12.5734 124.372 11.5867 124.372 10.48ZM133.652 10.5C133.652 9.67336 133.485 8.95336 133.152 8.34003C132.819 7.7267 132.365 7.26003 131.792 6.94003C131.232 6.6067 130.612 6.44003 129.932 6.44003C129.252 6.44003 128.632 6.60003 128.072 6.92003C127.512 7.24003 127.065 7.7067 126.732 8.32003C126.399 8.93336 126.232 9.65336 126.232 10.48C126.232 11.32 126.399 12.0534 126.732 12.68C127.065 13.2934 127.512 13.7667 128.072 14.1C128.632 14.42 129.252 14.58 129.932 14.58C130.612 14.58 131.232 14.42 131.792 14.1C132.365 13.7667 132.819 13.2934 133.152 12.68C133.485 12.0534 133.652 11.3267 133.652 10.5Z" />
    <path
      d="M140.788 6.54003V13C140.788 13.5334 140.901 13.9134 141.128 14.14C141.354 14.3534 141.748 14.46 142.308 14.46H143.648V16H142.008C140.994 16 140.234 15.7667 139.728 15.3C139.221 14.8334 138.968 14.0667 138.968 13V6.54003H137.548V5.04003H138.968V2.28003H140.788V5.04003H143.648V6.54003H140.788Z" />
    <path
      d="M146.793 3.26003C146.446 3.26003 146.153 3.14003 145.913 2.90003C145.673 2.66003 145.553 2.3667 145.553 2.02003C145.553 1.67336 145.673 1.38003 145.913 1.14003C146.153 0.900029 146.446 0.780029 146.793 0.780029C147.126 0.780029 147.406 0.900029 147.633 1.14003C147.873 1.38003 147.993 1.67336 147.993 2.02003C147.993 2.3667 147.873 2.66003 147.633 2.90003C147.406 3.14003 147.126 3.26003 146.793 3.26003ZM147.673 5.04003V16H145.853V5.04003H147.673Z" />
    <path
      d="M155.555 16.18C154.528 16.18 153.595 15.9467 152.755 15.48C151.928 15.0134 151.275 14.3534 150.795 13.5C150.328 12.6334 150.095 11.6334 150.095 10.5C150.095 9.38003 150.335 8.39336 150.815 7.54003C151.308 6.67336 151.975 6.01336 152.815 5.56003C153.655 5.09336 154.595 4.86003 155.635 4.86003C156.675 4.86003 157.615 5.09336 158.455 5.56003C159.295 6.01336 159.955 6.6667 160.435 7.52003C160.928 8.37336 161.175 9.3667 161.175 10.5C161.175 11.6334 160.921 12.6334 160.415 13.5C159.921 14.3534 159.248 15.0134 158.395 15.48C157.541 15.9467 156.595 16.18 155.555 16.18ZM155.555 14.58C156.208 14.58 156.821 14.4267 157.395 14.12C157.968 13.8134 158.428 13.3534 158.775 12.74C159.135 12.1267 159.315 11.38 159.315 10.5C159.315 9.62003 159.141 8.87336 158.795 8.26003C158.448 7.6467 157.995 7.19336 157.435 6.90003C156.875 6.59336 156.268 6.44003 155.615 6.44003C154.948 6.44003 154.335 6.59336 153.775 6.90003C153.228 7.19336 152.788 7.6467 152.455 8.26003C152.121 8.87336 151.955 9.62003 151.955 10.5C151.955 11.3934 152.115 12.1467 152.435 12.76C152.768 13.3734 153.208 13.8334 153.755 14.14C154.301 14.4334 154.901 14.58 155.555 14.58Z" />
    <path
      d="M168.908 4.84003C170.241 4.84003 171.321 5.2467 172.148 6.06003C172.974 6.86003 173.388 8.02003 173.388 9.54003V16H171.588V9.80003C171.588 8.7067 171.314 7.87336 170.768 7.30003C170.221 6.71336 169.474 6.42003 168.528 6.42003C167.568 6.42003 166.801 6.72003 166.228 7.32003C165.668 7.92003 165.388 8.79336 165.388 9.94003V16H163.568V5.04003H165.388V6.60003C165.748 6.04003 166.234 5.6067 166.848 5.30003C167.474 4.99336 168.161 4.84003 168.908 4.84003Z" />
    <path
      d="M175.681 10.48C175.681 9.36003 175.907 8.38003 176.361 7.54003C176.814 6.6867 177.434 6.0267 178.221 5.56003C179.021 5.09336 179.907 4.86003 180.881 4.86003C181.841 4.86003 182.674 5.0667 183.381 5.48003C184.087 5.89336 184.614 6.41336 184.961 7.04003V5.04003H186.801V16H184.961V13.96C184.601 14.6 184.061 15.1334 183.341 15.56C182.634 15.9734 181.807 16.18 180.861 16.18C179.887 16.18 179.007 15.94 178.221 15.46C177.434 14.98 176.814 14.3067 176.361 13.44C175.907 12.5734 175.681 11.5867 175.681 10.48ZM184.961 10.5C184.961 9.67336 184.794 8.95336 184.461 8.34003C184.127 7.7267 183.674 7.26003 183.101 6.94003C182.541 6.6067 181.921 6.44003 181.241 6.44003C180.561 6.44003 179.941 6.60003 179.381 6.92003C178.821 7.24003 178.374 7.7067 178.041 8.32003C177.707 8.93336 177.541 9.65336 177.541 10.48C177.541 11.32 177.707 12.0534 178.041 12.68C178.374 13.2934 178.821 13.7667 179.381 14.1C179.941 14.42 180.561 14.58 181.241 14.58C181.921 14.58 182.541 14.42 183.101 14.1C183.674 13.7667 184.127 13.2934 184.461 12.68C184.794 12.0534 184.961 11.3267 184.961 10.5Z" />
    <path d="M191.696 1.20003V16H189.876V1.20003H191.696Z" />
    <path d="M2.36023 33.54V38.2H7.44024V39.7H2.36023V44.5H8.04024V46H0.540235V32.04H8.04024V33.54H2.36023Z" />
    <path
      d="M10.1141 40.48C10.1141 39.36 10.3408 38.38 10.7941 37.54C11.2475 36.6867 11.8675 36.0267 12.6541 35.56C13.4541 35.0934 14.3475 34.86 15.3341 34.86C16.1875 34.86 16.9808 35.06 17.7141 35.46C18.4475 35.8467 19.0075 36.36 19.3941 37V31.2H21.2341V46H19.3941V43.94C19.0341 44.5934 18.5008 45.1334 17.7941 45.56C17.0875 45.9734 16.2608 46.18 15.3141 46.18C14.3408 46.18 13.4541 45.94 12.6541 45.46C11.8675 44.98 11.2475 44.3067 10.7941 43.44C10.3408 42.5734 10.1141 41.5867 10.1141 40.48ZM19.3941 40.5C19.3941 39.6734 19.2275 38.9534 18.8941 38.34C18.5608 37.7267 18.1075 37.26 17.5341 36.94C16.9741 36.6067 16.3541 36.44 15.6741 36.44C14.9941 36.44 14.3741 36.6 13.8141 36.92C13.2541 37.24 12.8075 37.7067 12.4741 38.32C12.1408 38.9334 11.9741 39.6534 11.9741 40.48C11.9741 41.32 12.1408 42.0534 12.4741 42.68C12.8075 43.2934 13.2541 43.7667 13.8141 44.1C14.3741 44.42 14.9941 44.58 15.6741 44.58C16.3541 44.58 16.9741 44.42 17.5341 44.1C18.1075 43.7667 18.5608 43.2934 18.8941 42.68C19.2275 42.0534 19.3941 41.3267 19.3941 40.5Z" />
    <path
      d="M34.0298 35.04V46H32.2098V44.38C31.8631 44.94 31.3764 45.38 30.7498 45.7C30.1364 46.0067 29.4564 46.16 28.7098 46.16C27.8564 46.16 27.0898 45.9867 26.4098 45.64C25.7298 45.28 25.1898 44.7467 24.7898 44.04C24.4031 43.3334 24.2098 42.4734 24.2098 41.46V35.04H26.0098V41.22C26.0098 42.3 26.2831 43.1334 26.8298 43.72C27.3764 44.2934 28.1231 44.58 29.0698 44.58C30.0431 44.58 30.8098 44.28 31.3698 43.68C31.9298 43.08 32.2098 42.2067 32.2098 41.06V35.04H34.0298Z" />
    <path
      d="M36.4227 40.5C36.4227 39.3667 36.6494 38.38 37.1027 37.54C37.5561 36.6867 38.1827 36.0267 38.9827 35.56C39.7961 35.0934 40.7227 34.86 41.7627 34.86C43.1094 34.86 44.2161 35.1867 45.0827 35.84C45.9627 36.4934 46.5427 37.4 46.8227 38.56H44.8627C44.6761 37.8934 44.3094 37.3667 43.7627 36.98C43.2294 36.5934 42.5627 36.4 41.7627 36.4C40.7227 36.4 39.8827 36.76 39.2427 37.48C38.6027 38.1867 38.2827 39.1934 38.2827 40.5C38.2827 41.82 38.6027 42.84 39.2427 43.56C39.8827 44.28 40.7227 44.64 41.7627 44.64C42.5627 44.64 43.2294 44.4534 43.7627 44.08C44.2961 43.7067 44.6627 43.1734 44.8627 42.48H46.8227C46.5294 43.6 45.9427 44.5 45.0627 45.18C44.1827 45.8467 43.0827 46.18 41.7627 46.18C40.7227 46.18 39.7961 45.9467 38.9827 45.48C38.1827 45.0134 37.5561 44.3534 37.1027 43.5C36.6494 42.6467 36.4227 41.6467 36.4227 40.5Z" />
    <path
      d="M48.5712 40.48C48.5712 39.36 48.7978 38.38 49.2512 37.54C49.7045 36.6867 50.3245 36.0267 51.1112 35.56C51.9112 35.0934 52.7978 34.86 53.7712 34.86C54.7312 34.86 55.5645 35.0667 56.2712 35.48C56.9778 35.8934 57.5045 36.4134 57.8512 37.04V35.04H59.6912V46H57.8512V43.96C57.4912 44.6 56.9512 45.1334 56.2312 45.56C55.5245 45.9734 54.6978 46.18 53.7512 46.18C52.7778 46.18 51.8978 45.94 51.1112 45.46C50.3245 44.98 49.7045 44.3067 49.2512 43.44C48.7978 42.5734 48.5712 41.5867 48.5712 40.48ZM57.8512 40.5C57.8512 39.6734 57.6845 38.9534 57.3512 38.34C57.0178 37.7267 56.5645 37.26 55.9912 36.94C55.4312 36.6067 54.8112 36.44 54.1312 36.44C53.4512 36.44 52.8312 36.6 52.2712 36.92C51.7112 37.24 51.2645 37.7067 50.9312 38.32C50.5978 38.9334 50.4312 39.6534 50.4312 40.48C50.4312 41.32 50.5978 42.0534 50.9312 42.68C51.2645 43.2934 51.7112 43.7667 52.2712 44.1C52.8312 44.42 53.4512 44.58 54.1312 44.58C54.8112 44.58 55.4312 44.42 55.9912 44.1C56.5645 43.7667 57.0178 43.2934 57.3512 42.68C57.6845 42.0534 57.8512 41.3267 57.8512 40.5Z" />
    <path
      d="M64.9868 36.54V43C64.9868 43.5334 65.1001 43.9134 65.3268 44.14C65.5535 44.3534 65.9468 44.46 66.5068 44.46H67.8468V46H66.2068C65.1935 46 64.4335 45.7667 63.9268 45.3C63.4201 44.8334 63.1668 44.0667 63.1668 43V36.54H61.7468V35.04H63.1668V32.28H64.9868V35.04H67.8468V36.54H64.9868Z" />
    <path
      d="M70.992 33.26C70.6453 33.26 70.352 33.14 70.112 32.9C69.872 32.66 69.752 32.3667 69.752 32.02C69.752 31.6734 69.872 31.38 70.112 31.14C70.352 30.9 70.6453 30.78 70.992 30.78C71.3253 30.78 71.6053 30.9 71.832 31.14C72.072 31.38 72.192 31.6734 72.192 32.02C72.192 32.3667 72.072 32.66 71.832 32.9C71.6053 33.14 71.3253 33.26 70.992 33.26ZM71.872 35.04V46H70.052V35.04H71.872Z" />
    <path
      d="M79.7538 46.18C78.7272 46.18 77.7938 45.9467 76.9538 45.48C76.1272 45.0134 75.4738 44.3534 74.9938 43.5C74.5272 42.6334 74.2938 41.6334 74.2938 40.5C74.2938 39.38 74.5338 38.3934 75.0138 37.54C75.5072 36.6734 76.1738 36.0134 77.0138 35.56C77.8538 35.0934 78.7938 34.86 79.8338 34.86C80.8738 34.86 81.8138 35.0934 82.6538 35.56C83.4938 36.0134 84.1538 36.6667 84.6338 37.52C85.1272 38.3734 85.3738 39.3667 85.3738 40.5C85.3738 41.6334 85.1205 42.6334 84.6138 43.5C84.1205 44.3534 83.4472 45.0134 82.5938 45.48C81.7405 45.9467 80.7938 46.18 79.7538 46.18ZM79.7538 44.58C80.4072 44.58 81.0205 44.4267 81.5938 44.12C82.1672 43.8134 82.6272 43.3534 82.9738 42.74C83.3338 42.1267 83.5138 41.38 83.5138 40.5C83.5138 39.62 83.3405 38.8734 82.9938 38.26C82.6472 37.6467 82.1938 37.1934 81.6338 36.9C81.0738 36.5934 80.4672 36.44 79.8138 36.44C79.1472 36.44 78.5338 36.5934 77.9738 36.9C77.4272 37.1934 76.9872 37.6467 76.6538 38.26C76.3205 38.8734 76.1538 39.62 76.1538 40.5C76.1538 41.3934 76.3138 42.1467 76.6338 42.76C76.9672 43.3734 77.4072 43.8334 77.9538 44.14C78.5005 44.4334 79.1005 44.58 79.7538 44.58Z" />
    <path
      d="M93.1068 34.84C94.4401 34.84 95.5201 35.2467 96.3468 36.06C97.1735 36.86 97.5868 38.02 97.5868 39.54V46H95.7868V39.8C95.7868 38.7067 95.5135 37.8734 94.9668 37.3C94.4201 36.7134 93.6735 36.42 92.7268 36.42C91.7668 36.42 91.0001 36.72 90.4268 37.32C89.8668 37.92 89.5868 38.7934 89.5868 39.94V46H87.7668V35.04H89.5868V36.6C89.9468 36.04 90.4335 35.6067 91.0468 35.3C91.6735 34.9934 92.3601 34.84 93.1068 34.84Z" />
    <path
      d="M105.212 39.02C105.212 37.66 105.518 36.44 106.132 35.36C106.745 34.2667 107.578 33.4134 108.632 32.8C109.698 32.1867 110.878 31.88 112.172 31.88C113.692 31.88 115.018 32.2467 116.152 32.98C117.285 33.7134 118.112 34.7534 118.632 36.1H116.452C116.065 35.26 115.505 34.6134 114.772 34.16C114.052 33.7067 113.185 33.48 112.172 33.48C111.198 33.48 110.325 33.7067 109.552 34.16C108.778 34.6134 108.172 35.26 107.732 36.1C107.292 36.9267 107.072 37.9 107.072 39.02C107.072 40.1267 107.292 41.1 107.732 41.94C108.172 42.7667 108.778 43.4067 109.552 43.86C110.325 44.3134 111.198 44.54 112.172 44.54C113.185 44.54 114.052 44.32 114.772 43.88C115.505 43.4267 116.065 42.78 116.452 41.94H118.632C118.112 43.2734 117.285 44.3067 116.152 45.04C115.018 45.76 113.692 46.12 112.172 46.12C110.878 46.12 109.698 45.82 108.632 45.22C107.578 44.6067 106.745 43.76 106.132 42.68C105.518 41.6 105.212 40.38 105.212 39.02Z" />
    <path
      d="M126.121 46.18C125.094 46.18 124.161 45.9467 123.321 45.48C122.494 45.0134 121.841 44.3534 121.361 43.5C120.894 42.6334 120.661 41.6334 120.661 40.5C120.661 39.38 120.901 38.3934 121.381 37.54C121.874 36.6734 122.541 36.0134 123.381 35.56C124.221 35.0934 125.161 34.86 126.201 34.86C127.241 34.86 128.181 35.0934 129.021 35.56C129.861 36.0134 130.521 36.6667 131.001 37.52C131.494 38.3734 131.741 39.3667 131.741 40.5C131.741 41.6334 131.488 42.6334 130.981 43.5C130.488 44.3534 129.814 45.0134 128.961 45.48C128.108 45.9467 127.161 46.18 126.121 46.18ZM126.121 44.58C126.774 44.58 127.388 44.4267 127.961 44.12C128.534 43.8134 128.994 43.3534 129.341 42.74C129.701 42.1267 129.881 41.38 129.881 40.5C129.881 39.62 129.708 38.8734 129.361 38.26C129.014 37.6467 128.561 37.1934 128.001 36.9C127.441 36.5934 126.834 36.44 126.181 36.44C125.514 36.44 124.901 36.5934 124.341 36.9C123.794 37.1934 123.354 37.6467 123.021 38.26C122.688 38.8734 122.521 39.62 122.521 40.5C122.521 41.3934 122.681 42.1467 123.001 42.76C123.334 43.3734 123.774 43.8334 124.321 44.14C124.868 44.4334 125.468 44.58 126.121 44.58Z" />
    <path
      d="M139.474 34.84C140.807 34.84 141.887 35.2467 142.714 36.06C143.541 36.86 143.954 38.02 143.954 39.54V46H142.154V39.8C142.154 38.7067 141.881 37.8734 141.334 37.3C140.787 36.7134 140.041 36.42 139.094 36.42C138.134 36.42 137.367 36.72 136.794 37.32C136.234 37.92 135.954 38.7934 135.954 39.94V46H134.134V35.04H135.954V36.6C136.314 36.04 136.801 35.6067 137.414 35.3C138.041 34.9934 138.727 34.84 139.474 34.84Z" />
    <path
      d="M150.807 46.18C149.967 46.18 149.214 46.04 148.547 45.76C147.88 45.4667 147.354 45.0667 146.967 44.56C146.58 44.04 146.367 43.4467 146.327 42.78H148.207C148.26 43.3267 148.514 43.7734 148.967 44.12C149.434 44.4667 150.04 44.64 150.787 44.64C151.48 44.64 152.027 44.4867 152.427 44.18C152.827 43.8734 153.027 43.4867 153.027 43.02C153.027 42.54 152.814 42.1867 152.387 41.96C151.96 41.72 151.3 41.4867 150.407 41.26C149.594 41.0467 148.927 40.8334 148.407 40.62C147.9 40.3934 147.46 40.0667 147.087 39.64C146.727 39.2 146.547 38.6267 146.547 37.92C146.547 37.36 146.714 36.8467 147.047 36.38C147.38 35.9134 147.854 35.5467 148.467 35.28C149.08 35 149.78 34.86 150.567 34.86C151.78 34.86 152.76 35.1667 153.507 35.78C154.254 36.3934 154.654 37.2334 154.707 38.3H152.887C152.847 37.7267 152.614 37.2667 152.187 36.92C151.774 36.5734 151.214 36.4 150.507 36.4C149.854 36.4 149.334 36.54 148.947 36.82C148.56 37.1 148.367 37.4667 148.367 37.92C148.367 38.28 148.48 38.58 148.707 38.82C148.947 39.0467 149.24 39.2334 149.587 39.38C149.947 39.5134 150.44 39.6667 151.067 39.84C151.854 40.0534 152.494 40.2667 152.987 40.48C153.48 40.68 153.9 40.9867 154.247 41.4C154.607 41.8134 154.794 42.3534 154.807 43.02C154.807 43.62 154.64 44.16 154.307 44.64C153.974 45.12 153.5 45.5 152.887 45.78C152.287 46.0467 151.594 46.18 150.807 46.18Z" />
    <path
      d="M167.096 35.04V46H165.276V44.38C164.93 44.94 164.443 45.38 163.816 45.7C163.203 46.0067 162.523 46.16 161.776 46.16C160.923 46.16 160.156 45.9867 159.476 45.64C158.796 45.28 158.256 44.7467 157.856 44.04C157.47 43.3334 157.276 42.4734 157.276 41.46V35.04H159.076V41.22C159.076 42.3 159.349 43.1334 159.896 43.72C160.443 44.2934 161.19 44.58 162.136 44.58C163.11 44.58 163.876 44.28 164.436 43.68C164.996 43.08 165.276 42.2067 165.276 41.06V35.04H167.096Z" />
    <path d="M171.989 31.2V46H170.169V31.2H171.989Z" />
    <path
      d="M177.311 36.54V43C177.311 43.5334 177.424 43.9134 177.651 44.14C177.878 44.3534 178.271 44.46 178.831 44.46H180.171V46H178.531C177.518 46 176.758 45.7667 176.251 45.3C175.744 44.8334 175.491 44.0667 175.491 43V36.54H174.071V35.04H175.491V32.28H177.311V35.04H180.171V36.54H177.311Z" />
    <path
      d="M181.696 40.48C181.696 39.36 181.923 38.38 182.376 37.54C182.829 36.6867 183.449 36.0267 184.236 35.56C185.036 35.0934 185.923 34.86 186.896 34.86C187.856 34.86 188.689 35.0667 189.396 35.48C190.103 35.8934 190.629 36.4134 190.976 37.04V35.04H192.816V46H190.976V43.96C190.616 44.6 190.076 45.1334 189.356 45.56C188.65 45.9734 187.823 46.18 186.876 46.18C185.903 46.18 185.023 45.94 184.236 45.46C183.449 44.98 182.829 44.3067 182.376 43.44C181.923 42.5734 181.696 41.5867 181.696 40.48ZM190.976 40.5C190.976 39.6734 190.809 38.9534 190.476 38.34C190.143 37.7267 189.689 37.26 189.116 36.94C188.556 36.6067 187.936 36.44 187.256 36.44C186.576 36.44 185.956 36.6 185.396 36.92C184.836 37.24 184.39 37.7067 184.056 38.32C183.723 38.9334 183.556 39.6534 183.556 40.48C183.556 41.32 183.723 42.0534 184.056 42.68C184.39 43.2934 184.836 43.7667 185.396 44.1C185.956 44.42 186.576 44.58 187.256 44.58C187.936 44.58 188.556 44.42 189.116 44.1C189.689 43.7667 190.143 43.2934 190.476 42.68C190.809 42.0534 190.976 41.3267 190.976 40.5Z" />
    <path
      d="M201.232 34.84C202.565 34.84 203.645 35.2467 204.472 36.06C205.298 36.86 205.712 38.02 205.712 39.54V46H203.912V39.8C203.912 38.7067 203.638 37.8734 203.092 37.3C202.545 36.7134 201.798 36.42 200.852 36.42C199.892 36.42 199.125 36.72 198.552 37.32C197.992 37.92 197.712 38.7934 197.712 39.94V46H195.892V35.04H197.712V36.6C198.072 36.04 198.558 35.6067 199.172 35.3C199.798 34.9934 200.485 34.84 201.232 34.84Z" />
    <path
      d="M208.005 40.5C208.005 39.3667 208.231 38.38 208.685 37.54C209.138 36.6867 209.765 36.0267 210.565 35.56C211.378 35.0934 212.305 34.86 213.345 34.86C214.691 34.86 215.798 35.1867 216.665 35.84C217.545 36.4934 218.125 37.4 218.405 38.56H216.445C216.258 37.8934 215.891 37.3667 215.345 36.98C214.811 36.5934 214.145 36.4 213.345 36.4C212.305 36.4 211.465 36.76 210.825 37.48C210.185 38.1867 209.865 39.1934 209.865 40.5C209.865 41.82 210.185 42.84 210.825 43.56C211.465 44.28 212.305 44.64 213.345 44.64C214.145 44.64 214.811 44.4534 215.345 44.08C215.878 43.7067 216.245 43.1734 216.445 42.48H218.405C218.111 43.6 217.525 44.5 216.645 45.18C215.765 45.8467 214.665 46.18 213.345 46.18C212.305 46.18 211.378 45.9467 210.565 45.48C209.765 45.0134 209.138 44.3534 208.685 43.5C208.231 42.6467 208.005 41.6467 208.005 40.5Z" />
    <path
      d="M230.273 35.04L223.673 51.16H221.793L223.953 45.88L219.533 35.04H221.553L224.993 43.92L228.393 35.04H230.273Z" />
  </mask>
  <path
    d="M1.48023 3.26003C1.13357 3.26003 0.840235 3.14003 0.600235 2.90003C0.360234 2.66003 0.240234 2.3667 0.240234 2.02003C0.240234 1.67336 0.360234 1.38003 0.600235 1.14003C0.840235 0.900029 1.13357 0.780029 1.48023 0.780029C1.81357 0.780029 2.09357 0.900029 2.32023 1.14003C2.56023 1.38003 2.68023 1.67336 2.68023 2.02003C2.68023 2.3667 2.56023 2.66003 2.32023 2.90003C2.09357 3.14003 1.81357 3.26003 1.48023 3.26003ZM2.36023 5.04003V16H0.540235V5.04003H2.36023Z"
    stroke="#FF0000" stroke-width="2" mask="url(#path-1-inside-1_315_265)" />
  <path
    d="M9.88211 16.14C8.96211 16.14 8.13544 15.98 7.40211 15.66C6.68211 15.3267 6.11544 14.8734 5.70211 14.3C5.28878 13.7134 5.07544 13.04 5.06211 12.28H7.00211C7.06878 12.9334 7.33544 13.4867 7.80211 13.94C8.28211 14.38 8.97544 14.6 9.88211 14.6C10.7488 14.6 11.4288 14.3867 11.9221 13.96C12.4288 13.52 12.6821 12.96 12.6821 12.28C12.6821 11.7467 12.5354 11.3134 12.2421 10.98C11.9488 10.6467 11.5821 10.3934 11.1421 10.22C10.7021 10.0467 10.1088 9.86003 9.36211 9.66003C8.44211 9.42003 7.70211 9.18003 7.14211 8.94003C6.59544 8.70003 6.12211 8.3267 5.72211 7.82003C5.33544 7.30003 5.14211 6.6067 5.14211 5.74003C5.14211 4.98003 5.33544 4.3067 5.72211 3.72003C6.10878 3.13336 6.64878 2.68003 7.34211 2.36003C8.04878 2.04003 8.85544 1.88003 9.76211 1.88003C11.0688 1.88003 12.1354 2.2067 12.9621 2.86003C13.8021 3.51336 14.2754 4.38003 14.3821 5.46003H12.3821C12.3154 4.9267 12.0354 4.46003 11.5421 4.06003C11.0488 3.6467 10.3954 3.44003 9.58211 3.44003C8.82211 3.44003 8.20211 3.64003 7.72211 4.04003C7.24211 4.4267 7.00211 4.97336 7.00211 5.68003C7.00211 6.1867 7.14211 6.60003 7.42211 6.92003C7.71544 7.24003 8.06878 7.4867 8.48211 7.66003C8.90878 7.82003 9.50211 8.0067 10.2621 8.22003C11.1821 8.47336 11.9221 8.7267 12.4821 8.98003C13.0421 9.22003 13.5221 9.60003 13.9221 10.12C14.3221 10.6267 14.5221 11.32 14.5221 12.2C14.5221 12.88 14.3421 13.52 13.9821 14.12C13.6221 14.72 13.0888 15.2067 12.3821 15.58C11.6754 15.9534 10.8421 16.14 9.88211 16.14Z"
    stroke="#FF0000" stroke-width="2" mask="url(#path-1-inside-1_315_265)" />
  <path
    d="M19.4204 6.54003V13C19.4204 13.5334 19.5337 13.9134 19.7604 14.14C19.9871 14.3534 20.3804 14.46 20.9404 14.46H22.2804V16H20.6404C19.6271 16 18.8671 15.7667 18.3604 15.3C17.8537 14.8334 17.6004 14.0667 17.6004 13V6.54003H16.1804V5.04003H17.6004V2.28003H19.4204V5.04003H22.2804V6.54003H19.4204Z"
    stroke="#FF0000" stroke-width="2" mask="url(#path-1-inside-1_315_265)" />
  <path
    d="M34.2055 5.04003V16H32.3855V14.38C32.0389 14.94 31.5522 15.38 30.9255 15.7C30.3122 16.0067 29.6322 16.16 28.8855 16.16C28.0322 16.16 27.2655 15.9867 26.5855 15.64C25.9055 15.28 25.3655 14.7467 24.9655 14.04C24.5789 13.3334 24.3855 12.4734 24.3855 11.46V5.04003H26.1855V11.22C26.1855 12.3 26.4589 13.1334 27.0055 13.72C27.5522 14.2934 28.2989 14.58 29.2455 14.58C30.2189 14.58 30.9855 14.28 31.5455 13.68C32.1055 13.08 32.3855 12.2067 32.3855 11.06V5.04003H34.2055Z"
    stroke="#FF0000" stroke-width="2" mask="url(#path-1-inside-1_315_265)" />
  <path
    d="M36.5985 10.48C36.5985 9.36003 36.8252 8.38003 37.2785 7.54003C37.7318 6.6867 38.3518 6.0267 39.1385 5.56003C39.9385 5.09336 40.8318 4.86003 41.8185 4.86003C42.6718 4.86003 43.4652 5.06003 44.1985 5.46003C44.9318 5.8467 45.4918 6.36003 45.8785 7.00003V1.20003H47.7185V16H45.8785V13.94C45.5185 14.5934 44.9852 15.1334 44.2785 15.56C43.5718 15.9734 42.7452 16.18 41.7985 16.18C40.8252 16.18 39.9385 15.94 39.1385 15.46C38.3518 14.98 37.7318 14.3067 37.2785 13.44C36.8252 12.5734 36.5985 11.5867 36.5985 10.48ZM45.8785 10.5C45.8785 9.67336 45.7118 8.95336 45.3785 8.34003C45.0452 7.7267 44.5918 7.26003 44.0185 6.94003C43.4585 6.6067 42.8385 6.44003 42.1585 6.44003C41.4785 6.44003 40.8585 6.60003 40.2985 6.92003C39.7385 7.24003 39.2918 7.7067 38.9585 8.32003C38.6252 8.93336 38.4585 9.65336 38.4585 10.48C38.4585 11.32 38.6252 12.0534 38.9585 12.68C39.2918 13.2934 39.7385 13.7667 40.2985 14.1C40.8585 14.42 41.4785 14.58 42.1585 14.58C42.8385 14.58 43.4585 14.42 44.0185 14.1C44.5918 13.7667 45.0452 13.2934 45.3785 12.68C45.7118 12.0534 45.8785 11.3267 45.8785 10.5Z"
    stroke="#FF0000" stroke-width="2" mask="url(#path-1-inside-1_315_265)" />
  <path
    d="M60.2341 5.04003L53.6341 21.16H51.7541L53.9141 15.88L49.4941 5.04003H51.5141L54.9541 13.92L58.3541 5.04003H60.2341Z"
    stroke="#FF0000" stroke-width="2" mask="url(#path-1-inside-1_315_265)" />
  <path d="M69.2157 2.06003V16H67.3957V2.06003H69.2157Z" stroke="#FF0000" stroke-width="2"
    mask="url(#path-1-inside-1_315_265)" />
  <path
    d="M77.6576 4.84003C78.9909 4.84003 80.0709 5.2467 80.8976 6.06003C81.7242 6.86003 82.1376 8.02003 82.1376 9.54003V16H80.3376V9.80003C80.3376 8.7067 80.0642 7.87336 79.5176 7.30003C78.9709 6.71336 78.2242 6.42003 77.2776 6.42003C76.3176 6.42003 75.5509 6.72003 74.9776 7.32003C74.4176 7.92003 74.1376 8.79336 74.1376 9.94003V16H72.3176V5.04003H74.1376V6.60003C74.4976 6.04003 74.9842 5.6067 75.5976 5.30003C76.2242 4.99336 76.9109 4.84003 77.6576 4.84003Z"
    stroke="#FF0000" stroke-width="2" mask="url(#path-1-inside-1_315_265)" />
  <path
    d="M87.3306 6.54003V13C87.3306 13.5334 87.4439 13.9134 87.6705 14.14C87.8972 14.3534 88.2905 14.46 88.8505 14.46H90.1906V16H88.5506C87.5372 16 86.7772 15.7667 86.2705 15.3C85.7639 14.8334 85.5106 14.0667 85.5106 13V6.54003H84.0905V5.04003H85.5106V2.28003H87.3306V5.04003H90.1906V6.54003H87.3306Z"
    stroke="#FF0000" stroke-width="2" mask="url(#path-1-inside-1_315_265)" />
  <path
    d="M102.396 10.1C102.396 10.4467 102.376 10.8134 102.336 11.2H93.5757C93.6424 12.28 94.009 13.1267 94.6757 13.74C95.3557 14.34 96.1757 14.64 97.1357 14.64C97.9224 14.64 98.5757 14.46 99.0957 14.1C99.629 13.7267 100.002 13.2334 100.216 12.62H102.176C101.882 13.6734 101.296 14.5334 100.416 15.2C99.5357 15.8534 98.4424 16.18 97.1357 16.18C96.0957 16.18 95.1624 15.9467 94.3357 15.48C93.5224 15.0134 92.8824 14.3534 92.4157 13.5C91.949 12.6334 91.7157 11.6334 91.7157 10.5C91.7157 9.3667 91.9424 8.37336 92.3957 7.52003C92.849 6.6667 93.4824 6.01336 94.2957 5.56003C95.1224 5.09336 96.069 4.86003 97.1357 4.86003C98.1757 4.86003 99.0957 5.0867 99.8957 5.54003C100.696 5.99336 101.309 6.62003 101.736 7.42003C102.176 8.2067 102.396 9.10003 102.396 10.1ZM100.516 9.72003C100.516 9.0267 100.362 8.43336 100.056 7.94003C99.749 7.43336 99.329 7.05336 98.7957 6.80003C98.2757 6.53336 97.6957 6.40003 97.0557 6.40003C96.1357 6.40003 95.349 6.69336 94.6957 7.28003C94.0557 7.8667 93.689 8.68003 93.5957 9.72003H100.516Z"
    stroke="#FF0000" stroke-width="2" mask="url(#path-1-inside-1_315_265)" />
  <path
    d="M106.618 6.82003C106.938 6.19336 107.391 5.7067 107.978 5.36003C108.578 5.01336 109.305 4.84003 110.158 4.84003V6.72003H109.678C107.638 6.72003 106.618 7.8267 106.618 10.04V16H104.798V5.04003H106.618V6.82003Z"
    stroke="#FF0000" stroke-width="2" mask="url(#path-1-inside-1_315_265)" />
  <path
    d="M117.599 4.84003C118.932 4.84003 120.012 5.2467 120.839 6.06003C121.666 6.86003 122.079 8.02003 122.079 9.54003V16H120.279V9.80003C120.279 8.7067 120.006 7.87336 119.459 7.30003C118.912 6.71336 118.166 6.42003 117.219 6.42003C116.259 6.42003 115.492 6.72003 114.919 7.32003C114.359 7.92003 114.079 8.79336 114.079 9.94003V16H112.259V5.04003H114.079V6.60003C114.439 6.04003 114.926 5.6067 115.539 5.30003C116.166 4.99336 116.852 4.84003 117.599 4.84003Z"
    stroke="#FF0000" stroke-width="2" mask="url(#path-1-inside-1_315_265)" />
  <path
    d="M124.372 10.48C124.372 9.36003 124.599 8.38003 125.052 7.54003C125.505 6.6867 126.125 6.0267 126.912 5.56003C127.712 5.09336 128.599 4.86003 129.572 4.86003C130.532 4.86003 131.365 5.0667 132.072 5.48003C132.779 5.89336 133.305 6.41336 133.652 7.04003V5.04003H135.492V16H133.652V13.96C133.292 14.6 132.752 15.1334 132.032 15.56C131.325 15.9734 130.499 16.18 129.552 16.18C128.579 16.18 127.699 15.94 126.912 15.46C126.125 14.98 125.505 14.3067 125.052 13.44C124.599 12.5734 124.372 11.5867 124.372 10.48ZM133.652 10.5C133.652 9.67336 133.485 8.95336 133.152 8.34003C132.819 7.7267 132.365 7.26003 131.792 6.94003C131.232 6.6067 130.612 6.44003 129.932 6.44003C129.252 6.44003 128.632 6.60003 128.072 6.92003C127.512 7.24003 127.065 7.7067 126.732 8.32003C126.399 8.93336 126.232 9.65336 126.232 10.48C126.232 11.32 126.399 12.0534 126.732 12.68C127.065 13.2934 127.512 13.7667 128.072 14.1C128.632 14.42 129.252 14.58 129.932 14.58C130.612 14.58 131.232 14.42 131.792 14.1C132.365 13.7667 132.819 13.2934 133.152 12.68C133.485 12.0534 133.652 11.3267 133.652 10.5Z"
    stroke="#FF0000" stroke-width="2" mask="url(#path-1-inside-1_315_265)" />
  <path
    d="M140.788 6.54003V13C140.788 13.5334 140.901 13.9134 141.128 14.14C141.354 14.3534 141.748 14.46 142.308 14.46H143.648V16H142.008C140.994 16 140.234 15.7667 139.728 15.3C139.221 14.8334 138.968 14.0667 138.968 13V6.54003H137.548V5.04003H138.968V2.28003H140.788V5.04003H143.648V6.54003H140.788Z"
    stroke="#FF0000" stroke-width="2" mask="url(#path-1-inside-1_315_265)" />
  <path
    d="M146.793 3.26003C146.446 3.26003 146.153 3.14003 145.913 2.90003C145.673 2.66003 145.553 2.3667 145.553 2.02003C145.553 1.67336 145.673 1.38003 145.913 1.14003C146.153 0.900029 146.446 0.780029 146.793 0.780029C147.126 0.780029 147.406 0.900029 147.633 1.14003C147.873 1.38003 147.993 1.67336 147.993 2.02003C147.993 2.3667 147.873 2.66003 147.633 2.90003C147.406 3.14003 147.126 3.26003 146.793 3.26003ZM147.673 5.04003V16H145.853V5.04003H147.673Z"
    stroke="#FF0000" stroke-width="2" mask="url(#path-1-inside-1_315_265)" />
  <path
    d="M155.555 16.18C154.528 16.18 153.595 15.9467 152.755 15.48C151.928 15.0134 151.275 14.3534 150.795 13.5C150.328 12.6334 150.095 11.6334 150.095 10.5C150.095 9.38003 150.335 8.39336 150.815 7.54003C151.308 6.67336 151.975 6.01336 152.815 5.56003C153.655 5.09336 154.595 4.86003 155.635 4.86003C156.675 4.86003 157.615 5.09336 158.455 5.56003C159.295 6.01336 159.955 6.6667 160.435 7.52003C160.928 8.37336 161.175 9.3667 161.175 10.5C161.175 11.6334 160.921 12.6334 160.415 13.5C159.921 14.3534 159.248 15.0134 158.395 15.48C157.541 15.9467 156.595 16.18 155.555 16.18ZM155.555 14.58C156.208 14.58 156.821 14.4267 157.395 14.12C157.968 13.8134 158.428 13.3534 158.775 12.74C159.135 12.1267 159.315 11.38 159.315 10.5C159.315 9.62003 159.141 8.87336 158.795 8.26003C158.448 7.6467 157.995 7.19336 157.435 6.90003C156.875 6.59336 156.268 6.44003 155.615 6.44003C154.948 6.44003 154.335 6.59336 153.775 6.90003C153.228 7.19336 152.788 7.6467 152.455 8.26003C152.121 8.87336 151.955 9.62003 151.955 10.5C151.955 11.3934 152.115 12.1467 152.435 12.76C152.768 13.3734 153.208 13.8334 153.755 14.14C154.301 14.4334 154.901 14.58 155.555 14.58Z"
    stroke="#FF0000" stroke-width="2" mask="url(#path-1-inside-1_315_265)" />
  <path
    d="M168.908 4.84003C170.241 4.84003 171.321 5.2467 172.148 6.06003C172.974 6.86003 173.388 8.02003 173.388 9.54003V16H171.588V9.80003C171.588 8.7067 171.314 7.87336 170.768 7.30003C170.221 6.71336 169.474 6.42003 168.528 6.42003C167.568 6.42003 166.801 6.72003 166.228 7.32003C165.668 7.92003 165.388 8.79336 165.388 9.94003V16H163.568V5.04003H165.388V6.60003C165.748 6.04003 166.234 5.6067 166.848 5.30003C167.474 4.99336 168.161 4.84003 168.908 4.84003Z"
    stroke="#FF0000" stroke-width="2" mask="url(#path-1-inside-1_315_265)" />
  <path
    d="M175.681 10.48C175.681 9.36003 175.907 8.38003 176.361 7.54003C176.814 6.6867 177.434 6.0267 178.221 5.56003C179.021 5.09336 179.907 4.86003 180.881 4.86003C181.841 4.86003 182.674 5.0667 183.381 5.48003C184.087 5.89336 184.614 6.41336 184.961 7.04003V5.04003H186.801V16H184.961V13.96C184.601 14.6 184.061 15.1334 183.341 15.56C182.634 15.9734 181.807 16.18 180.861 16.18C179.887 16.18 179.007 15.94 178.221 15.46C177.434 14.98 176.814 14.3067 176.361 13.44C175.907 12.5734 175.681 11.5867 175.681 10.48ZM184.961 10.5C184.961 9.67336 184.794 8.95336 184.461 8.34003C184.127 7.7267 183.674 7.26003 183.101 6.94003C182.541 6.6067 181.921 6.44003 181.241 6.44003C180.561 6.44003 179.941 6.60003 179.381 6.92003C178.821 7.24003 178.374 7.7067 178.041 8.32003C177.707 8.93336 177.541 9.65336 177.541 10.48C177.541 11.32 177.707 12.0534 178.041 12.68C178.374 13.2934 178.821 13.7667 179.381 14.1C179.941 14.42 180.561 14.58 181.241 14.58C181.921 14.58 182.541 14.42 183.101 14.1C183.674 13.7667 184.127 13.2934 184.461 12.68C184.794 12.0534 184.961 11.3267 184.961 10.5Z"
    stroke="#FF0000" stroke-width="2" mask="url(#path-1-inside-1_315_265)" />
  <path d="M191.696 1.20003V16H189.876V1.20003H191.696Z" stroke="#FF0000" stroke-width="2"
    mask="url(#path-1-inside-1_315_265)" />
  <path d="M2.36023 33.54V38.2H7.44024V39.7H2.36023V44.5H8.04024V46H0.540235V32.04H8.04024V33.54H2.36023Z"
    stroke="#FF0000" stroke-width="2" mask="url(#path-1-inside-1_315_265)" />
  <path
    d="M10.1141 40.48C10.1141 39.36 10.3408 38.38 10.7941 37.54C11.2475 36.6867 11.8675 36.0267 12.6541 35.56C13.4541 35.0934 14.3475 34.86 15.3341 34.86C16.1875 34.86 16.9808 35.06 17.7141 35.46C18.4475 35.8467 19.0075 36.36 19.3941 37V31.2H21.2341V46H19.3941V43.94C19.0341 44.5934 18.5008 45.1334 17.7941 45.56C17.0875 45.9734 16.2608 46.18 15.3141 46.18C14.3408 46.18 13.4541 45.94 12.6541 45.46C11.8675 44.98 11.2475 44.3067 10.7941 43.44C10.3408 42.5734 10.1141 41.5867 10.1141 40.48ZM19.3941 40.5C19.3941 39.6734 19.2275 38.9534 18.8941 38.34C18.5608 37.7267 18.1075 37.26 17.5341 36.94C16.9741 36.6067 16.3541 36.44 15.6741 36.44C14.9941 36.44 14.3741 36.6 13.8141 36.92C13.2541 37.24 12.8075 37.7067 12.4741 38.32C12.1408 38.9334 11.9741 39.6534 11.9741 40.48C11.9741 41.32 12.1408 42.0534 12.4741 42.68C12.8075 43.2934 13.2541 43.7667 13.8141 44.1C14.3741 44.42 14.9941 44.58 15.6741 44.58C16.3541 44.58 16.9741 44.42 17.5341 44.1C18.1075 43.7667 18.5608 43.2934 18.8941 42.68C19.2275 42.0534 19.3941 41.3267 19.3941 40.5Z"
    stroke="#FF0000" stroke-width="2" mask="url(#path-1-inside-1_315_265)" />
  <path
    d="M34.0298 35.04V46H32.2098V44.38C31.8631 44.94 31.3764 45.38 30.7498 45.7C30.1364 46.0067 29.4564 46.16 28.7098 46.16C27.8564 46.16 27.0898 45.9867 26.4098 45.64C25.7298 45.28 25.1898 44.7467 24.7898 44.04C24.4031 43.3334 24.2098 42.4734 24.2098 41.46V35.04H26.0098V41.22C26.0098 42.3 26.2831 43.1334 26.8298 43.72C27.3764 44.2934 28.1231 44.58 29.0698 44.58C30.0431 44.58 30.8098 44.28 31.3698 43.68C31.9298 43.08 32.2098 42.2067 32.2098 41.06V35.04H34.0298Z"
    stroke="#FF0000" stroke-width="2" mask="url(#path-1-inside-1_315_265)" />
  <path
    d="M36.4227 40.5C36.4227 39.3667 36.6494 38.38 37.1027 37.54C37.5561 36.6867 38.1827 36.0267 38.9827 35.56C39.7961 35.0934 40.7227 34.86 41.7627 34.86C43.1094 34.86 44.2161 35.1867 45.0827 35.84C45.9627 36.4934 46.5427 37.4 46.8227 38.56H44.8627C44.6761 37.8934 44.3094 37.3667 43.7627 36.98C43.2294 36.5934 42.5627 36.4 41.7627 36.4C40.7227 36.4 39.8827 36.76 39.2427 37.48C38.6027 38.1867 38.2827 39.1934 38.2827 40.5C38.2827 41.82 38.6027 42.84 39.2427 43.56C39.8827 44.28 40.7227 44.64 41.7627 44.64C42.5627 44.64 43.2294 44.4534 43.7627 44.08C44.2961 43.7067 44.6627 43.1734 44.8627 42.48H46.8227C46.5294 43.6 45.9427 44.5 45.0627 45.18C44.1827 45.8467 43.0827 46.18 41.7627 46.18C40.7227 46.18 39.7961 45.9467 38.9827 45.48C38.1827 45.0134 37.5561 44.3534 37.1027 43.5C36.6494 42.6467 36.4227 41.6467 36.4227 40.5Z"
    stroke="#FF0000" stroke-width="2" mask="url(#path-1-inside-1_315_265)" />
  <path
    d="M48.5712 40.48C48.5712 39.36 48.7978 38.38 49.2512 37.54C49.7045 36.6867 50.3245 36.0267 51.1112 35.56C51.9112 35.0934 52.7978 34.86 53.7712 34.86C54.7312 34.86 55.5645 35.0667 56.2712 35.48C56.9778 35.8934 57.5045 36.4134 57.8512 37.04V35.04H59.6912V46H57.8512V43.96C57.4912 44.6 56.9512 45.1334 56.2312 45.56C55.5245 45.9734 54.6978 46.18 53.7512 46.18C52.7778 46.18 51.8978 45.94 51.1112 45.46C50.3245 44.98 49.7045 44.3067 49.2512 43.44C48.7978 42.5734 48.5712 41.5867 48.5712 40.48ZM57.8512 40.5C57.8512 39.6734 57.6845 38.9534 57.3512 38.34C57.0178 37.7267 56.5645 37.26 55.9912 36.94C55.4312 36.6067 54.8112 36.44 54.1312 36.44C53.4512 36.44 52.8312 36.6 52.2712 36.92C51.7112 37.24 51.2645 37.7067 50.9312 38.32C50.5978 38.9334 50.4312 39.6534 50.4312 40.48C50.4312 41.32 50.5978 42.0534 50.9312 42.68C51.2645 43.2934 51.7112 43.7667 52.2712 44.1C52.8312 44.42 53.4512 44.58 54.1312 44.58C54.8112 44.58 55.4312 44.42 55.9912 44.1C56.5645 43.7667 57.0178 43.2934 57.3512 42.68C57.6845 42.0534 57.8512 41.3267 57.8512 40.5Z"
    stroke="#FF0000" stroke-width="2" mask="url(#path-1-inside-1_315_265)" />
  <path
    d="M64.9868 36.54V43C64.9868 43.5334 65.1001 43.9134 65.3268 44.14C65.5535 44.3534 65.9468 44.46 66.5068 44.46H67.8468V46H66.2068C65.1935 46 64.4335 45.7667 63.9268 45.3C63.4201 44.8334 63.1668 44.0667 63.1668 43V36.54H61.7468V35.04H63.1668V32.28H64.9868V35.04H67.8468V36.54H64.9868Z"
    stroke="#FF0000" stroke-width="2" mask="url(#path-1-inside-1_315_265)" />
  <path
    d="M70.992 33.26C70.6453 33.26 70.352 33.14 70.112 32.9C69.872 32.66 69.752 32.3667 69.752 32.02C69.752 31.6734 69.872 31.38 70.112 31.14C70.352 30.9 70.6453 30.78 70.992 30.78C71.3253 30.78 71.6053 30.9 71.832 31.14C72.072 31.38 72.192 31.6734 72.192 32.02C72.192 32.3667 72.072 32.66 71.832 32.9C71.6053 33.14 71.3253 33.26 70.992 33.26ZM71.872 35.04V46H70.052V35.04H71.872Z"
    stroke="#FF0000" stroke-width="2" mask="url(#path-1-inside-1_315_265)" />
  <path
    d="M79.7538 46.18C78.7272 46.18 77.7938 45.9467 76.9538 45.48C76.1272 45.0134 75.4738 44.3534 74.9938 43.5C74.5272 42.6334 74.2938 41.6334 74.2938 40.5C74.2938 39.38 74.5338 38.3934 75.0138 37.54C75.5072 36.6734 76.1738 36.0134 77.0138 35.56C77.8538 35.0934 78.7938 34.86 79.8338 34.86C80.8738 34.86 81.8138 35.0934 82.6538 35.56C83.4938 36.0134 84.1538 36.6667 84.6338 37.52C85.1272 38.3734 85.3738 39.3667 85.3738 40.5C85.3738 41.6334 85.1205 42.6334 84.6138 43.5C84.1205 44.3534 83.4472 45.0134 82.5938 45.48C81.7405 45.9467 80.7938 46.18 79.7538 46.18ZM79.7538 44.58C80.4072 44.58 81.0205 44.4267 81.5938 44.12C82.1672 43.8134 82.6272 43.3534 82.9738 42.74C83.3338 42.1267 83.5138 41.38 83.5138 40.5C83.5138 39.62 83.3405 38.8734 82.9938 38.26C82.6472 37.6467 82.1938 37.1934 81.6338 36.9C81.0738 36.5934 80.4672 36.44 79.8138 36.44C79.1472 36.44 78.5338 36.5934 77.9738 36.9C77.4272 37.1934 76.9872 37.6467 76.6538 38.26C76.3205 38.8734 76.1538 39.62 76.1538 40.5C76.1538 41.3934 76.3138 42.1467 76.6338 42.76C76.9672 43.3734 77.4072 43.8334 77.9538 44.14C78.5005 44.4334 79.1005 44.58 79.7538 44.58Z"
    stroke="#FF0000" stroke-width="2" mask="url(#path-1-inside-1_315_265)" />
  <path
    d="M93.1068 34.84C94.4401 34.84 95.5201 35.2467 96.3468 36.06C97.1735 36.86 97.5868 38.02 97.5868 39.54V46H95.7868V39.8C95.7868 38.7067 95.5135 37.8734 94.9668 37.3C94.4201 36.7134 93.6735 36.42 92.7268 36.42C91.7668 36.42 91.0001 36.72 90.4268 37.32C89.8668 37.92 89.5868 38.7934 89.5868 39.94V46H87.7668V35.04H89.5868V36.6C89.9468 36.04 90.4335 35.6067 91.0468 35.3C91.6735 34.9934 92.3601 34.84 93.1068 34.84Z"
    stroke="#FF0000" stroke-width="2" mask="url(#path-1-inside-1_315_265)" />
  <path
    d="M105.212 39.02C105.212 37.66 105.518 36.44 106.132 35.36C106.745 34.2667 107.578 33.4134 108.632 32.8C109.698 32.1867 110.878 31.88 112.172 31.88C113.692 31.88 115.018 32.2467 116.152 32.98C117.285 33.7134 118.112 34.7534 118.632 36.1H116.452C116.065 35.26 115.505 34.6134 114.772 34.16C114.052 33.7067 113.185 33.48 112.172 33.48C111.198 33.48 110.325 33.7067 109.552 34.16C108.778 34.6134 108.172 35.26 107.732 36.1C107.292 36.9267 107.072 37.9 107.072 39.02C107.072 40.1267 107.292 41.1 107.732 41.94C108.172 42.7667 108.778 43.4067 109.552 43.86C110.325 44.3134 111.198 44.54 112.172 44.54C113.185 44.54 114.052 44.32 114.772 43.88C115.505 43.4267 116.065 42.78 116.452 41.94H118.632C118.112 43.2734 117.285 44.3067 116.152 45.04C115.018 45.76 113.692 46.12 112.172 46.12C110.878 46.12 109.698 45.82 108.632 45.22C107.578 44.6067 106.745 43.76 106.132 42.68C105.518 41.6 105.212 40.38 105.212 39.02Z"
    stroke="#FF0000" stroke-width="2" mask="url(#path-1-inside-1_315_265)" />
  <path
    d="M126.121 46.18C125.094 46.18 124.161 45.9467 123.321 45.48C122.494 45.0134 121.841 44.3534 121.361 43.5C120.894 42.6334 120.661 41.6334 120.661 40.5C120.661 39.38 120.901 38.3934 121.381 37.54C121.874 36.6734 122.541 36.0134 123.381 35.56C124.221 35.0934 125.161 34.86 126.201 34.86C127.241 34.86 128.181 35.0934 129.021 35.56C129.861 36.0134 130.521 36.6667 131.001 37.52C131.494 38.3734 131.741 39.3667 131.741 40.5C131.741 41.6334 131.488 42.6334 130.981 43.5C130.488 44.3534 129.814 45.0134 128.961 45.48C128.108 45.9467 127.161 46.18 126.121 46.18ZM126.121 44.58C126.774 44.58 127.388 44.4267 127.961 44.12C128.534 43.8134 128.994 43.3534 129.341 42.74C129.701 42.1267 129.881 41.38 129.881 40.5C129.881 39.62 129.708 38.8734 129.361 38.26C129.014 37.6467 128.561 37.1934 128.001 36.9C127.441 36.5934 126.834 36.44 126.181 36.44C125.514 36.44 124.901 36.5934 124.341 36.9C123.794 37.1934 123.354 37.6467 123.021 38.26C122.688 38.8734 122.521 39.62 122.521 40.5C122.521 41.3934 122.681 42.1467 123.001 42.76C123.334 43.3734 123.774 43.8334 124.321 44.14C124.868 44.4334 125.468 44.58 126.121 44.58Z"
    stroke="#FF0000" stroke-width="2" mask="url(#path-1-inside-1_315_265)" />
  <path
    d="M139.474 34.84C140.807 34.84 141.887 35.2467 142.714 36.06C143.541 36.86 143.954 38.02 143.954 39.54V46H142.154V39.8C142.154 38.7067 141.881 37.8734 141.334 37.3C140.787 36.7134 140.041 36.42 139.094 36.42C138.134 36.42 137.367 36.72 136.794 37.32C136.234 37.92 135.954 38.7934 135.954 39.94V46H134.134V35.04H135.954V36.6C136.314 36.04 136.801 35.6067 137.414 35.3C138.041 34.9934 138.727 34.84 139.474 34.84Z"
    stroke="#FF0000" stroke-width="2" mask="url(#path-1-inside-1_315_265)" />
  <path
    d="M150.807 46.18C149.967 46.18 149.214 46.04 148.547 45.76C147.88 45.4667 147.354 45.0667 146.967 44.56C146.58 44.04 146.367 43.4467 146.327 42.78H148.207C148.26 43.3267 148.514 43.7734 148.967 44.12C149.434 44.4667 150.04 44.64 150.787 44.64C151.48 44.64 152.027 44.4867 152.427 44.18C152.827 43.8734 153.027 43.4867 153.027 43.02C153.027 42.54 152.814 42.1867 152.387 41.96C151.96 41.72 151.3 41.4867 150.407 41.26C149.594 41.0467 148.927 40.8334 148.407 40.62C147.9 40.3934 147.46 40.0667 147.087 39.64C146.727 39.2 146.547 38.6267 146.547 37.92C146.547 37.36 146.714 36.8467 147.047 36.38C147.38 35.9134 147.854 35.5467 148.467 35.28C149.08 35 149.78 34.86 150.567 34.86C151.78 34.86 152.76 35.1667 153.507 35.78C154.254 36.3934 154.654 37.2334 154.707 38.3H152.887C152.847 37.7267 152.614 37.2667 152.187 36.92C151.774 36.5734 151.214 36.4 150.507 36.4C149.854 36.4 149.334 36.54 148.947 36.82C148.56 37.1 148.367 37.4667 148.367 37.92C148.367 38.28 148.48 38.58 148.707 38.82C148.947 39.0467 149.24 39.2334 149.587 39.38C149.947 39.5134 150.44 39.6667 151.067 39.84C151.854 40.0534 152.494 40.2667 152.987 40.48C153.48 40.68 153.9 40.9867 154.247 41.4C154.607 41.8134 154.794 42.3534 154.807 43.02C154.807 43.62 154.64 44.16 154.307 44.64C153.974 45.12 153.5 45.5 152.887 45.78C152.287 46.0467 151.594 46.18 150.807 46.18Z"
    stroke="#FF0000" stroke-width="2" mask="url(#path-1-inside-1_315_265)" />
  <path
    d="M167.096 35.04V46H165.276V44.38C164.93 44.94 164.443 45.38 163.816 45.7C163.203 46.0067 162.523 46.16 161.776 46.16C160.923 46.16 160.156 45.9867 159.476 45.64C158.796 45.28 158.256 44.7467 157.856 44.04C157.47 43.3334 157.276 42.4734 157.276 41.46V35.04H159.076V41.22C159.076 42.3 159.349 43.1334 159.896 43.72C160.443 44.2934 161.19 44.58 162.136 44.58C163.11 44.58 163.876 44.28 164.436 43.68C164.996 43.08 165.276 42.2067 165.276 41.06V35.04H167.096Z"
    stroke="#FF0000" stroke-width="2" mask="url(#path-1-inside-1_315_265)" />
  <path d="M171.989 31.2V46H170.169V31.2H171.989Z" stroke="#FF0000" stroke-width="2"
    mask="url(#path-1-inside-1_315_265)" />
  <path
    d="M177.311 36.54V43C177.311 43.5334 177.424 43.9134 177.651 44.14C177.878 44.3534 178.271 44.46 178.831 44.46H180.171V46H178.531C177.518 46 176.758 45.7667 176.251 45.3C175.744 44.8334 175.491 44.0667 175.491 43V36.54H174.071V35.04H175.491V32.28H177.311V35.04H180.171V36.54H177.311Z"
    stroke="#FF0000" stroke-width="2" mask="url(#path-1-inside-1_315_265)" />
  <path
    d="M181.696 40.48C181.696 39.36 181.923 38.38 182.376 37.54C182.829 36.6867 183.449 36.0267 184.236 35.56C185.036 35.0934 185.923 34.86 186.896 34.86C187.856 34.86 188.689 35.0667 189.396 35.48C190.103 35.8934 190.629 36.4134 190.976 37.04V35.04H192.816V46H190.976V43.96C190.616 44.6 190.076 45.1334 189.356 45.56C188.65 45.9734 187.823 46.18 186.876 46.18C185.903 46.18 185.023 45.94 184.236 45.46C183.449 44.98 182.829 44.3067 182.376 43.44C181.923 42.5734 181.696 41.5867 181.696 40.48ZM190.976 40.5C190.976 39.6734 190.809 38.9534 190.476 38.34C190.143 37.7267 189.689 37.26 189.116 36.94C188.556 36.6067 187.936 36.44 187.256 36.44C186.576 36.44 185.956 36.6 185.396 36.92C184.836 37.24 184.39 37.7067 184.056 38.32C183.723 38.9334 183.556 39.6534 183.556 40.48C183.556 41.32 183.723 42.0534 184.056 42.68C184.39 43.2934 184.836 43.7667 185.396 44.1C185.956 44.42 186.576 44.58 187.256 44.58C187.936 44.58 188.556 44.42 189.116 44.1C189.689 43.7667 190.143 43.2934 190.476 42.68C190.809 42.0534 190.976 41.3267 190.976 40.5Z"
    stroke="#FF0000" stroke-width="2" mask="url(#path-1-inside-1_315_265)" />
  <path
    d="M201.232 34.84C202.565 34.84 203.645 35.2467 204.472 36.06C205.298 36.86 205.712 38.02 205.712 39.54V46H203.912V39.8C203.912 38.7067 203.638 37.8734 203.092 37.3C202.545 36.7134 201.798 36.42 200.852 36.42C199.892 36.42 199.125 36.72 198.552 37.32C197.992 37.92 197.712 38.7934 197.712 39.94V46H195.892V35.04H197.712V36.6C198.072 36.04 198.558 35.6067 199.172 35.3C199.798 34.9934 200.485 34.84 201.232 34.84Z"
    stroke="#FF0000" stroke-width="2" mask="url(#path-1-inside-1_315_265)" />
  <path
    d="M208.005 40.5C208.005 39.3667 208.231 38.38 208.685 37.54C209.138 36.6867 209.765 36.0267 210.565 35.56C211.378 35.0934 212.305 34.86 213.345 34.86C214.691 34.86 215.798 35.1867 216.665 35.84C217.545 36.4934 218.125 37.4 218.405 38.56H216.445C216.258 37.8934 215.891 37.3667 215.345 36.98C214.811 36.5934 214.145 36.4 213.345 36.4C212.305 36.4 211.465 36.76 210.825 37.48C210.185 38.1867 209.865 39.1934 209.865 40.5C209.865 41.82 210.185 42.84 210.825 43.56C211.465 44.28 212.305 44.64 213.345 44.64C214.145 44.64 214.811 44.4534 215.345 44.08C215.878 43.7067 216.245 43.1734 216.445 42.48H218.405C218.111 43.6 217.525 44.5 216.645 45.18C215.765 45.8467 214.665 46.18 213.345 46.18C212.305 46.18 211.378 45.9467 210.565 45.48C209.765 45.0134 209.138 44.3534 208.685 43.5C208.231 42.6467 208.005 41.6467 208.005 40.5Z"
    stroke="#FF0000" stroke-width="2" mask="url(#path-1-inside-1_315_265)" />
  <path
    d="M230.273 35.04L223.673 51.16H221.793L223.953 45.88L219.533 35.04H221.553L224.993 43.92L228.393 35.04H230.273Z"
    stroke="#FF0000" stroke-width="2" mask="url(#path-1-inside-1_315_265)" />
</svg>