<?xml version="1.0" standalone="no"?>
<!DOCTYPE svg PUBLIC "-//W3C//DTD SVG 20010904//EN"
 "http://www.w3.org/TR/2001/REC-SVG-20010904/DTD/svg10.dtd">
<svg version="1.0" xmlns="http://www.w3.org/2000/svg"
 width="7501.000000pt" height="4676.000000pt" viewBox="0 0 7501.000000 4676.000000"
 preserveAspectRatio="xMidYMid meet">

<g transform="translate(0.000000,4676.000000) scale(0.100000,-0.100000)"
fill="#000000" stroke="none">
<path d="M26484 32921 c-13 -6 -26 -26 -34 -56 -17 -60 -135 -224 -144 -200
-11 31 -6 51 20 76 27 25 50 65 78 134 l16 40 -45 -50 c-94 -105 -114 -142
-140 -267 -25 -123 -44 -169 -94 -231 -16 -21 -33 -48 -37 -60 -4 -11 -22 -35
-40 -53 -25 -23 -34 -40 -34 -64 0 -26 -9 -40 -45 -72 -82 -73 -124 -170 -151
-350 -9 -60 -13 -126 -9 -146 11 -63 101 -233 219 -411 l113 -172 -31 -16
c-383 -196 -721 -380 -829 -451 -96 -63 -135 -147 -103 -221 9 -20 52 -178 97
-351 106 -414 430 -1651 576 -2200 63 -239 118 -444 121 -455 16 -61 69 -58
174 10 40 26 402 210 803 410 402 200 777 393 835 430 104 66 456 245 680 345
63 28 118 54 121 58 4 4 -10 80 -31 169 -31 137 -35 166 -25 190 6 15 21 64
33 108 61 232 75 522 42 915 -12 146 -24 358 -27 472 l-6 207 -122 40 c-114
37 -244 66 -324 73 l-34 3 -134 525 c-74 288 -142 538 -151 555 -23 38 -45 38
-56 0 -8 -28 -29 -40 -215 -130 -113 -54 -463 -226 -778 -381 l-572 -282 -78
98 c-163 205 -243 390 -243 565 0 136 43 255 129 355 38 44 40 44 59 26 26
-22 84 -24 117 -2 13 9 30 34 36 57 15 48 84 113 170 159 32 17 83 58 117 94
63 68 212 283 212 306 0 20 -49 -29 -70 -70 -11 -22 -61 -68 -135 -125 -64
-49 -122 -92 -128 -94 -6 -2 5 15 25 38 20 24 48 67 62 96 18 38 41 66 78 94
29 22 65 50 80 61 26 20 45 74 36 100 -5 15 -102 -59 -170 -130 -32 -33 -63
-60 -68 -60 -18 0 28 59 113 145 l79 79 -21 36 c-17 30 -26 35 -58 37 -21 1
-47 -2 -59 -6z"/>
<path d="M60980 28964 c-182 -23 -273 -36 -315 -45 -84 -19 -184 -77 -255
-150 -118 -119 -185 -198 -199 -231 -19 -47 -9 -119 23 -168 14 -22 26 -44 26
-49 0 -6 -42 -52 -92 -104 -154 -155 -305 -259 -577 -399 -229 -117 -325 -184
-605 -420 l-32 -27 -63 19 c-35 11 -76 20 -91 20 -23 0 -293 -216 -1387 -1106
-747 -609 -1362 -1110 -1367 -1114 -8 -8 127 -91 549 -335 315 -183 436 -245
474 -245 18 0 60 7 93 16 59 15 61 15 75 -6 45 -64 140 -174 186 -215 123
-112 222 -141 446 -132 165 6 286 30 491 99 409 135 1009 454 1445 767 135 96
325 254 399 329 l49 50 -49 64 c-106 138 -352 425 -462 540 -143 148 -248 239
-314 272 l-50 25 113 74 c63 40 207 133 322 206 114 73 207 136 207 141 0 16
-673 363 -894 461 l-80 34 135 136 c156 158 218 203 572 413 267 159 299 183
438 335 l92 100 30 -16 c21 -10 48 -14 88 -11 77 6 122 40 160 122 19 42 50
83 98 130 l70 70 113 -18 c184 -29 193 -34 285 -156 100 -133 117 -143 293
-169 142 -20 199 -38 317 -100 52 -27 69 -33 63 -21 -5 10 -43 35 -84 56 -41
21 -73 40 -72 42 2 1 47 -9 101 -23 114 -29 125 -30 192 -10 85 25 121 81 139
217 7 49 6 50 -16 43 -22 -7 -22 -7 4 27 17 23 26 47 26 72 0 45 -25 96 -46
96 -9 0 -45 -29 -80 -65 -35 -36 -64 -63 -64 -60 0 3 9 23 19 44 23 44 75 92
131 121 48 25 51 32 8 23 -51 -9 -105 -40 -130 -74 l-23 -31 -100 4 c-90 3
-107 7 -175 39 -84 41 -127 77 -188 161 -76 104 -133 128 -307 133 -66 2 -136
1 -155 -1z"/>
<path d="M20044 27596 c-18 -13 -19 -30 -22 -234 -3 -182 -6 -221 -18 -226
-25 -9 -37 41 -27 114 11 85 8 268 -4 299 -8 20 -11 5 -17 -73 -4 -61 -14
-116 -27 -149 -44 -110 -48 -123 -48 -167 0 -25 5 -77 12 -117 7 -39 9 -69 5
-67 -16 10 -68 124 -83 181 -19 74 -18 116 4 181 l18 52 -31 -24 c-55 -42 -55
-59 -3 -218 71 -214 80 -274 81 -488 1 -164 -2 -195 -22 -269 -24 -88 -72
-192 -121 -265 -15 -22 -38 -60 -50 -82 -14 -24 -37 -48 -56 -57 -49 -23 -102
-74 -133 -126 -24 -42 -27 -55 -27 -146 0 -91 3 -104 27 -146 32 -54 85 -104
137 -127 20 -9 38 -17 39 -19 2 -1 -16 -44 -41 -97 -64 -134 -148 -252 -281
-394 -269 -286 -381 -469 -447 -730 -39 -154 -56 -367 -43 -551 l9 -134 -403
-511 c-422 -535 -540 -698 -603 -832 -78 -164 -79 -258 -5 -410 108 -226 395
-723 547 -951 106 -158 229 -319 299 -391 58 -59 136 -120 144 -111 1 2 123
163 271 357 l268 353 76 -8 c115 -12 278 -7 354 11 38 9 153 48 255 87 220 84
819 339 878 374 51 30 162 147 386 406 104 120 187 207 215 225 l46 29 -54 23
c-147 65 -603 252 -664 273 -75 25 -125 64 -125 99 0 17 24 32 136 85 75 36
143 65 152 65 20 0 228 -110 312 -165 36 -24 94 -70 129 -104 35 -33 70 -61
77 -61 10 0 14 14 14 45 0 33 -11 67 -45 132 -38 75 -48 109 -70 229 -28 162
-65 285 -98 335 -19 29 -31 35 -77 42 -108 17 -525 109 -551 122 -32 17 -59
53 -138 184 -34 57 -88 138 -120 180 -31 42 -156 213 -276 381 -270 377 -385
530 -431 570 l-36 31 -148 -188 c-82 -103 -270 -342 -419 -530 l-269 -343 -7
73 c-15 163 25 462 86 634 70 198 154 331 323 513 128 137 246 281 317 386 53
80 129 220 129 240 0 6 21 15 48 19 106 15 199 81 243 171 12 26 24 76 28 122
7 74 10 81 65 157 90 123 96 141 112 294 7 75 16 150 20 166 3 17 9 102 14
190 6 105 16 186 30 235 11 41 24 128 30 192 10 119 23 166 87 308 46 100 66
184 58 241 -4 27 -10 51 -15 54 -4 2 -15 -33 -25 -78 -24 -114 -42 -155 -76
-172 -45 -24 -77 -76 -98 -157 -18 -74 -97 -296 -110 -311 -4 -4 5 53 20 126
29 140 52 205 118 327 43 80 71 177 71 248 0 50 -14 59 -110 69 l-58 6 -42
-82 c-23 -45 -44 -80 -46 -78 -2 2 7 36 21 77 13 40 22 76 19 81 -8 14 -88 10
-110 -5z"/>
<path d="M45559 26824 c-57 -145 -90 -240 -95 -276 -8 -48 -37 -111 -91 -195
-59 -92 -102 -195 -114 -274 -13 -81 -7 -294 12 -467 6 -57 9 -106 6 -108 -9
-9 -49 127 -79 265 l-28 136 4 -130 c5 -144 22 -224 66 -324 56 -128 61 -263
18 -441 -15 -60 -22 -132 -26 -242 l-4 -157 -45 -22 c-116 -56 -140 -220 -47
-319 l24 -26 -38 -63 c-142 -241 -605 -707 -976 -984 -317 -235 -473 -401
-692 -732 -50 -77 -115 -180 -143 -229 -29 -51 -52 -83 -55 -75 -3 8 -73 345
-156 749 -128 621 -234 1126 -255 1217 -5 22 -7 22 -43 8 -28 -11 -604 -195
-725 -231 -15 -5 -9 -16 38 -70 l56 -64 45 -262 c24 -145 44 -272 44 -283 0
-19 -16 -22 -247 -48 -137 -16 -345 -41 -463 -57 l-215 -29 -185 -93 c-309
-156 -654 -405 -590 -426 26 -9 185 -92 204 -106 15 -12 21 -40 32 -158 16
-172 18 -180 55 -290 16 -47 47 -175 69 -283 47 -229 70 -292 186 -510 146
-275 170 -332 220 -510 l47 -170 6 -270 c6 -242 8 -274 26 -310 24 -49 67 -67
140 -59 l50 5 35 -55 c19 -31 38 -56 41 -56 3 0 73 14 155 30 82 17 217 42
299 56 83 14 293 55 468 91 175 36 320 63 322 61 3 -2 17 -76 32 -164 22 -125
27 -191 28 -313 l0 -154 215 6 c118 4 290 7 381 7 150 0 168 2 174 18 3 9 9
82 12 162 l6 145 -56 260 c-31 143 -119 566 -196 940 -77 374 -158 768 -181
875 l-41 195 62 125 c147 301 298 511 548 761 183 183 383 346 612 500 64 43
145 104 179 136 101 93 311 354 483 600 53 76 60 82 86 77 78 -16 192 63 207
143 5 28 25 57 72 108 113 122 129 154 152 294 34 205 68 324 113 394 61 96
224 287 412 486 52 55 95 103 95 106 0 13 -86 -42 -154 -99 -39 -32 -106 -93
-149 -134 -43 -41 -80 -72 -83 -69 -3 3 2 19 11 37 28 54 45 160 45 285 0 66
7 152 16 190 8 39 19 171 24 295 5 129 18 284 30 364 11 76 19 143 17 149 -6
18 -76 -103 -108 -188 -58 -150 -71 -216 -75 -395 -2 -98 -11 -207 -22 -270
l-18 -105 -13 145 c-13 155 -6 303 25 482 17 104 29 139 83 246 22 45 41 86
41 91 0 6 -29 26 -63 46 -51 28 -74 35 -113 34 -108 -2 -124 -23 -148 -187
-13 -94 -84 -358 -93 -349 -2 3 8 60 23 128 44 209 73 384 65 392 -4 4 -24 10
-44 14 -33 5 -38 3 -48 -23z"/>
<path d="M50010 23565 c-727 -382 -1204 -639 -1203 -647 0 -7 164 -386 363
-841 l361 -828 -49 -97 c-115 -226 -161 -430 -141 -637 5 -57 48 -251 118
-530 162 -650 281 -1179 281 -1252 0 -14 -9 -24 -28 -31 -43 -15 -98 -67 -121
-116 -24 -48 -28 -137 -10 -183 7 -17 12 -99 13 -208 1 -171 2 -184 29 -260
77 -217 183 -317 697 -657 407 -270 484 -334 675 -569 171 -210 391 -419 540
-515 43 -28 34 -17 -184 241 -107 127 -204 241 -215 255 -12 13 18 -12 66 -57
213 -198 424 -321 513 -299 18 5 42 32 80 90 30 46 55 88 55 93 0 4 -92 68
-205 141 -113 74 -205 135 -205 137 0 2 37 -13 83 -32 133 -57 356 -143 370
-143 7 0 36 46 64 103 51 103 51 104 35 138 -9 19 -44 61 -77 95 -99 97 -192
137 -564 239 -173 48 -342 97 -376 110 -76 28 -129 55 -122 61 6 7 183 -26
415 -77 197 -43 435 -109 484 -135 16 -8 32 -13 35 -11 5 6 -217 144 -327 204
-129 70 -266 123 -408 159 -75 18 -162 43 -192 55 -94 36 -222 106 -294 161
-62 48 -76 66 -152 196 -98 168 -90 158 -257 341 l-132 144 4 66 c3 85 -18
139 -75 189 -39 35 -99 62 -136 62 -9 0 -19 17 -25 43 -6 23 -25 96 -43 162
-41 158 -159 748 -209 1050 -57 341 -81 530 -88 681 -5 117 -4 139 16 204 28
91 109 256 121 244 4 -5 91 -200 193 -434 382 -880 401 -920 420 -920 44 0
297 114 942 425 237 114 666 320 955 458 289 137 526 251 528 253 2 1 -52 136
-119 299 l-122 297 36 111 c60 182 80 299 81 477 0 96 -4 178 -13 215 -22 99
-90 301 -148 439 -150 356 -379 745 -450 762 -13 4 -99 9 -191 13 l-166 6
-150 347 c-83 192 -155 348 -161 347 -5 0 -552 -285 -1215 -634z"/>
<path d="M32585 24182 c-26 -6 -44 -30 -130 -173 -343 -570 -556 -1054 -572
-1301 -3 -49 -7 -88 -9 -88 -22 0 -1163 749 -1406 923 -82 58 -148 104 -148
102 0 -7 260 -224 438 -367 552 -441 1167 -865 1749 -1204 144 -84 152 -90
145 -114 -4 -14 -7 -61 -7 -106 0 -75 3 -87 43 -167 54 -109 159 -222 315
-340 182 -137 333 -307 456 -511 74 -122 165 -316 206 -436 36 -107 69 -265
59 -281 -3 -5 -16 -9 -29 -9 -44 0 -132 -40 -178 -81 -133 -117 -138 -330 -10
-456 26 -25 46 -57 57 -93 41 -127 116 -218 481 -590 280 -285 337 -350 367
-420 37 -86 20 -204 -44 -308 -36 -59 -12 -45 30 17 53 80 66 138 59 270 -3
58 -8 115 -12 126 l-7 20 17 -20 c30 -35 65 -124 77 -196 10 -58 9 -85 -5
-171 -26 -155 -25 -162 26 -207 l28 -25 -16 43 c-20 57 -19 110 2 179 13 42
17 92 17 192 l0 135 -55 150 c-31 83 -52 151 -48 153 17 7 166 -105 240 -179
92 -92 123 -151 150 -284 11 -54 29 -116 41 -139 20 -40 75 -106 89 -106 4 0
-10 44 -31 98 -62 157 -91 268 -101 387 -5 61 -12 124 -15 140 -8 38 -39 100
-72 143 -27 35 -26 37 15 20 103 -44 155 -111 178 -229 19 -93 41 -144 71
-164 35 -23 37 -19 8 25 -25 37 -28 53 -35 178 -12 217 -31 249 -248 410 -205
151 -327 249 -401 320 -41 39 -106 83 -207 139 -91 50 -147 87 -145 95 2 7 8
38 14 69 23 132 -62 289 -179 331 -26 9 -34 19 -37 42 -2 17 -9 68 -15 114
-20 157 -116 396 -236 587 -142 226 -301 401 -503 554 -146 111 -220 190 -270
290 -33 68 -37 82 -37 157 0 45 3 86 8 90 4 4 47 -14 95 -40 167 -90 822 -416
1048 -522 458 -214 883 -394 1265 -538 230 -86 508 -180 515 -174 2 2 -295
149 -659 327 -364 178 -665 326 -668 330 -4 3 -23 108 -42 233 l-35 227 354
658 c325 603 353 659 337 671 -10 7 -170 112 -355 234 l-338 220 -142 -121
c-78 -66 -143 -120 -144 -118 -1 1 1 83 5 182 5 116 4 185 -2 193 -21 27 -199
154 -313 224 -206 124 -431 218 -634 263 -80 18 -409 30 -465 17z"/>
<path d="M10816 23978 c-26 -46 -48 -116 -67 -217 -11 -56 -13 -61 -22 -40 -8
23 -4 172 7 249 3 19 -6 1 -20 -40 -19 -57 -28 -108 -34 -210 -9 -141 -23
-197 -75 -299 -15 -30 -40 -95 -55 -145 -15 -50 -45 -138 -65 -196 -35 -99
-37 -110 -32 -191 5 -82 4 -91 -25 -150 -17 -35 -38 -88 -47 -116 -15 -45 -23
-56 -60 -76 -59 -31 -83 -76 -78 -145 3 -41 10 -59 32 -82 l28 -29 -59 -83
c-135 -189 -242 -378 -299 -529 -16 -41 -33 -79 -39 -86 -10 -11 -794 -234
-1186 -338 -332 -88 -610 -191 -610 -225 0 -32 49 -359 90 -600 53 -309 180
-940 275 -1365 72 -321 235 -1017 240 -1023 1 -1 27 9 57 22 163 72 842 256
945 256 21 0 79 -7 128 -16 140 -25 380 -23 535 4 294 53 444 106 605 215 70
47 185 155 227 212 25 34 40 43 106 62 42 13 263 80 490 150 315 96 412 130
412 142 0 26 -583 2772 -610 2871 -14 53 -42 80 -82 80 -18 0 -371 -97 -784
-215 -414 -118 -757 -215 -763 -215 -7 0 -3 22 10 58 33 91 193 408 259 514
l60 97 55 -6 c63 -7 106 8 135 45 27 34 41 91 32 127 -8 27 -4 33 51 80 33 27
70 58 83 68 12 10 33 34 45 53 20 33 21 45 16 133 -7 113 -6 115 91 222 87 98
273 360 317 447 30 60 48 176 39 254 l-7 58 -26 -78 c-22 -67 -90 -197 -97
-189 -2 2 8 34 22 72 14 38 34 103 46 144 l20 74 -30 29 c-27 28 -30 28 -46
13 -33 -34 -82 -113 -158 -260 -44 -82 -76 -139 -72 -125 14 52 85 204 117
253 19 29 49 81 67 116 l32 64 -23 19 c-13 10 -36 27 -50 38 l-26 19 -22 -40
c-27 -48 -35 -46 -23 7 11 53 5 72 -28 89 -29 15 -29 15 -54 -27z"/>
<path d="M30129 23807 c8 -10 37 -37 65 -60 28 -23 45 -34 37 -24 -8 10 -37
37 -65 60 -28 23 -45 34 -37 24z"/>
<path d="M65296 20954 c-128 -102 -283 -248 -291 -273 -3 -10 6 -65 20 -122
35 -144 57 -302 53 -385 l-3 -69 -39 149 c-51 201 -103 361 -120 375 -11 9
-23 8 -54 -4 l-39 -16 -28 -135 c-25 -121 -27 -139 -15 -172 42 -118 380 -836
420 -892 53 -75 -89 6 -185 105 -89 91 -149 193 -235 394 -80 186 -106 268
-123 387 l-13 87 -46 -52 c-65 -72 -98 -142 -98 -207 0 -74 42 -213 103 -335
l52 -106 -70 53 c-131 98 -277 161 -353 152 -25 -3 -24 -5 28 -37 111 -69 327
-238 316 -248 -2 -2 -35 11 -72 30 -117 59 -295 125 -382 142 -46 10 -85 15
-86 14 -6 -7 -56 -108 -56 -114 0 -3 6 -5 13 -5 26 0 167 -91 227 -146 33 -32
99 -109 145 -173 97 -136 155 -193 233 -229 l57 -27 255 0 c288 0 350 9 499
71 47 20 121 46 164 59 l78 24 35 -34 c37 -37 84 -51 142 -41 93 15 145 108
119 213 l-8 32 118 36 c65 20 161 49 213 65 52 16 122 36 155 44 59 15 245 40
251 33 3 -2 -97 -423 -111 -468 -4 -10 11 -27 42 -49 27 -18 50 -35 52 -36 2
-2 -70 -79 -160 -172 -174 -178 -325 -348 -377 -424 -25 -36 -32 -57 -32 -94
0 -60 31 -127 68 -143 110 -51 217 -124 762 -520 427 -311 718 -496 1071 -684
l104 -56 135 25 c230 42 184 -1 415 381 110 183 205 337 210 342 7 7 88 -37
235 -125 289 -174 448 -264 466 -264 34 0 65 85 95 264 28 166 115 420 224
657 56 120 134 341 156 443 12 57 12 59 -12 77 -13 11 -65 32 -115 48 -74 23
-153 66 -435 233 -1264 752 -2128 1231 -2455 1362 -81 32 -134 45 -134 32 0
-11 -161 -673 -168 -690 -6 -13 -34 -25 -101 -42 -51 -14 -172 -57 -269 -98
-98 -40 -232 -92 -299 -116 l-122 -42 -32 23 c-44 31 -122 37 -169 11 -31 -17
-72 -64 -82 -94 -8 -22 -60 3 -113 53 -122 115 -133 263 -35 466 47 97 123
199 255 343 115 125 219 277 262 380 59 145 45 136 -80 -52 -144 -217 -225
-322 -331 -431 -174 -181 -255 -369 -225 -530 6 -34 18 -75 26 -92 14 -25 14
-28 1 -18 -27 23 -87 167 -104 253 -35 176 -4 419 81 641 l36 94 6 255 c3 140
1 265 -4 278 -8 22 -13 19 -117 -64z"/>
<path d="M61113 15520 c-28 -11 -58 -58 -79 -125 -9 -27 -31 -84 -49 -125 -18
-41 -42 -118 -54 -170 -12 -52 -36 -134 -52 -181 -37 -105 -36 -142 9 -315 42
-159 51 -254 58 -639 5 -254 3 -368 -10 -550 -22 -299 -29 -337 -65 -394 -62
-97 -113 -216 -188 -438 -78 -230 -78 -231 -123 -265 -31 -24 -50 -48 -64 -83
-64 -166 -135 -323 -258 -575 -77 -157 -164 -339 -193 -405 -29 -66 -76 -165
-103 -220 -27 -55 -62 -134 -76 -175 -30 -84 -81 -169 -198 -333 -97 -137
-127 -168 -295 -314 -73 -63 -133 -115 -133 -117 0 -2 12 -30 27 -62 25 -54
28 -68 26 -164 -2 -80 2 -122 18 -178 l20 -73 -30 -92 c-32 -96 -61 -217 -80
-327 -18 -109 -71 -674 -71 -758 l0 -79 -66 -84 c-37 -46 -80 -107 -96 -136
-19 -34 -56 -74 -111 -118 -341 -277 -615 -584 -723 -808 -42 -87 -45 -157
-12 -227 12 -25 23 -70 25 -100 6 -100 61 -249 119 -327 13 -17 82 -79 154
-137 71 -59 134 -115 140 -125 5 -11 10 -47 10 -81 0 -36 6 -73 16 -92 14 -27
14 -42 4 -112 -6 -45 -20 -113 -31 -152 -24 -87 -24 -148 -2 -242 16 -70 16
-74 -3 -125 -39 -107 -12 -419 49 -560 17 -37 24 -74 25 -132 1 -43 10 -126
19 -185 10 -58 17 -132 16 -165 0 -33 -4 -180 -8 -326 -9 -316 1 -450 45 -581
33 -98 89 -215 155 -320 l44 -71 -5 -76 c-6 -69 -3 -83 26 -156 27 -67 34
-100 41 -199 10 -146 17 -167 81 -253 101 -138 98 -121 97 -450 -1 -240 2
-313 19 -439 39 -285 45 -419 33 -798 -6 -193 -14 -449 -17 -568 l-6 -218
7116 0 c3914 0 7116 3 7116 6 0 4 -27 86 -61 183 -176 510 -283 738 -402 865
-19 20 -33 36 -32 36 1 0 22 -7 45 -15 58 -20 146 -19 195 4 133 60 181 271
99 433 -24 47 -87 120 -130 149 -11 8 -47 54 -79 102 -110 167 -245 287 -384
343 -49 20 -58 28 -70 62 -12 34 -13 54 -1 139 10 75 10 104 1 120 -19 37 -13
60 63 242 91 215 93 223 111 389 13 125 17 139 56 209 49 91 72 154 94 265 13
67 25 96 63 151 l46 68 -23 47 c-13 25 -25 70 -28 99 l-6 53 65 63 c35 34 111
105 169 158 152 140 160 158 203 414 80 478 147 1006 178 1390 7 88 12 291 12
450 0 287 -1 296 -67 920 l-67 629 182 304 c99 167 205 351 235 407 45 87 62
110 105 141 29 20 71 45 95 56 23 10 45 23 49 29 17 27 -9 412 -42 619 -27
172 -155 654 -250 940 -53 159 -112 272 -395 746 -240 404 -318 545 -359 649
-17 44 -98 217 -180 385 -81 168 -151 317 -154 333 -4 15 -12 27 -19 27 -22 1
-103 165 -117 240 -16 85 1 183 96 557 35 139 64 268 64 288 0 20 -14 69 -32
108 -30 70 -31 78 -38 262 -8 210 -8 213 -93 382 -67 134 -139 301 -157 368
-12 43 -24 64 -42 74 -34 19 -85 8 -131 -30 -36 -30 -37 -32 -37 -99 0 -38 -4
-72 -10 -75 -15 -9 -12 -76 5 -105 10 -17 14 -58 14 -135 l1 -110 -34 70 c-41
84 -75 118 -116 118 -96 0 -123 -133 -79 -400 14 -85 20 -157 17 -213 -4 -76
-10 -97 -55 -200 -28 -63 -58 -139 -68 -168 -19 -60 -23 -63 -196 -134 -94
-39 -111 -43 -181 -41 l-77 1 -83 65 c-110 85 -242 171 -325 210 -63 29 -76
32 -173 32 -83 0 -113 -4 -143 -19 -70 -35 -68 -47 23 -133 45 -42 100 -104
122 -137 46 -69 62 -84 133 -125 64 -37 204 -179 264 -267 58 -86 163 -175
261 -220 41 -20 91 -43 110 -52 78 -38 220 -196 220 -246 0 -10 8 -43 17 -72
15 -50 15 -55 0 -72 -9 -10 -17 -21 -17 -25 0 -3 25 -41 56 -84 89 -123 94
-137 139 -385 14 -79 41 -188 60 -244 19 -56 35 -120 35 -143 0 -22 10 -83 22
-134 20 -87 21 -114 20 -515 l-1 -422 -26 -43 c-40 -69 -34 -109 31 -234 83
-159 83 -211 -3 -353 -18 -30 -33 -68 -33 -84 0 -15 16 -54 35 -86 19 -31 49
-88 67 -126 31 -64 33 -76 33 -174 0 -122 -14 -167 -54 -176 -39 -10 -60 -32
-97 -106 -40 -79 -73 -107 -185 -153 -45 -19 -92 -44 -104 -55 -26 -24 -76
-40 -126 -40 -48 0 -113 -47 -147 -108 -35 -62 -176 -200 -260 -256 -37 -25
-92 -62 -123 -84 -46 -31 -68 -40 -116 -44 -47 -5 -72 -14 -117 -43 l-56 -38
-179 7 c-207 8 -220 5 -294 -68 -55 -55 -66 -89 -90 -271 -9 -66 -23 -143 -32
-171 -14 -50 -15 -50 -92 -82 -43 -18 -106 -53 -140 -80 -34 -26 -105 -80
-158 -121 -102 -77 -125 -105 -151 -186 -23 -68 -58 -136 -81 -157 -18 -17
-22 -17 -73 3 -29 11 -58 18 -65 15 -6 -2 -22 -47 -35 -99 -39 -165 -96 -235
-181 -224 -79 10 -353 216 -416 311 -24 36 -31 60 -36 119 -4 40 -16 102 -27
138 -20 65 -26 113 -12 107 67 -30 104 -40 113 -31 15 15 69 173 69 201 0 13
-17 72 -37 130 -41 118 -40 97 -33 507 4 222 -11 274 -139 469 -31 49 -60 108
-76 161 -14 45 -25 85 -25 89 0 3 36 -10 80 -28 44 -19 80 -31 80 -27 0 31
-106 151 -166 188 -19 12 -19 12 1 12 11 1 63 -8 115 -19 52 -11 99 -20 104
-20 17 0 -129 110 -184 139 -30 16 -73 32 -95 36 -66 11 -286 86 -280 94 12
20 168 53 236 49 81 -4 84 6 13 44 -57 31 -146 48 -253 48 l-74 0 19 21 c10
12 39 31 63 41 35 16 55 19 112 13 38 -4 69 -4 69 -1 0 3 -14 13 -32 22 -27
14 -54 16 -168 11 l-135 -5 75 27 c95 35 160 68 160 82 0 6 -9 8 -20 4 -83
-26 -267 -67 -325 -72 l-70 -6 25 20 c14 11 70 46 125 78 55 31 115 66 133 77
63 38 24 29 -84 -20 -126 -58 -262 -107 -270 -99 -16 16 120 183 181 221 25
16 45 30 45 32 0 12 -143 -60 -187 -94 -18 -13 -33 -21 -33 -18 0 17 46 95 74
125 l31 34 -34 -19 c-38 -21 -149 -126 -174 -164 -16 -25 -16 -25 -16 25 -1
50 12 143 24 180 27 80 -136 -246 -192 -385 -7 -18 -9 24 -5 141 2 91 1 188
-3 215 l-8 49 -7 -40 c-4 -22 -18 -112 -31 -200 l-24 -160 -6 85 c-3 47 -12
103 -19 125 -13 38 -14 39 -21 15 -4 -14 -8 -50 -9 -80 -3 -94 -9 -99 -59 -40
-50 59 -128 113 -188 131 -38 11 -42 15 -37 36 4 12 3 35 -2 51 -7 26 -7 26
-16 -13 -5 -22 -10 -132 -12 -245 -1 -113 -7 -204 -11 -203 -5 1 -21 32 -35
70 -46 119 -109 230 -157 273 -51 48 -67 47 -30 -2 27 -36 50 -78 43 -78 -2 0
-19 23 -36 51 -34 52 -92 103 -110 97 -6 -2 1 -19 16 -38 14 -19 44 -72 66
-118 31 -66 41 -99 45 -158 l6 -75 -64 8 c-144 18 -256 0 -335 -54 -28 -18
-47 -24 -75 -21 -36 3 -37 2 -22 -14 21 -24 37 -23 108 7 60 25 111 33 101 16
-7 -10 -82 -47 -151 -73 l-50 -18 170 5 c176 6 220 -1 220 -35 0 -26 -93 -63
-170 -68 -62 -4 -77 -1 -124 22 -29 15 -74 46 -99 69 l-46 42 24 -40 c13 -22
57 -91 97 -153 40 -62 73 -115 73 -117 0 -2 -26 -14 -57 -26 -48 -19 -76 -23
-163 -22 -82 0 -99 -2 -75 -10 119 -39 187 -71 210 -99 38 -45 20 -53 -56 -27
-73 24 -183 30 -214 10 -17 -11 -14 -12 25 -8 25 2 56 1 70 -2 23 -6 22 -8
-22 -34 -59 -34 -72 -53 -23 -33 20 9 58 18 84 22 44 6 51 4 84 -26 61 -53 52
-63 -50 -56 -49 3 -104 2 -123 -3 -34 -9 -34 -9 -6 -10 26 -1 23 -5 -44 -57
-39 -31 -69 -58 -67 -60 2 -2 28 9 58 25 82 44 95 46 114 17 14 -22 15 -28 1
-60 -12 -28 -28 -42 -88 -72 -77 -39 -192 -113 -186 -120 2 -2 28 5 56 16 29
11 74 20 100 20 l47 0 -43 -25 c-71 -40 -156 -103 -170 -125 -10 -16 -1 -14
54 15 39 21 80 35 100 35 l35 0 -56 -63 c-63 -71 -114 -145 -79 -116 31 27 85
51 99 45 18 -7 9 -34 -49 -158 -47 -100 -87 -224 -85 -268 0 -23 1 -23 9 -5 5
13 7 -3 3 -41 -3 -37 -1 -69 5 -80 11 -19 11 -19 12 0 0 45 23 147 30 139 5
-4 14 -86 20 -181 6 -95 15 -184 21 -198 13 -36 61 -116 65 -111 3 2 -2 30
-11 63 -24 94 -17 95 20 5 49 -118 83 -171 184 -284 105 -118 204 -205 326
-289 50 -34 132 -93 183 -131 l93 -69 -6 -111 c-3 -62 -7 -163 -9 -226 l-4
-113 -318 -255 c-485 -387 -607 -477 -689 -508 -38 -14 -162 -73 -275 -130
-113 -58 -221 -107 -242 -110 -32 -5 -50 -22 -144 -130 -60 -68 -123 -132
-142 -142 -35 -18 -62 -58 -62 -90 0 -10 -16 -40 -35 -67 -19 -27 -35 -54 -35
-60 0 -7 -15 -29 -32 -51 l-33 -39 3 -113 c2 -101 -2 -137 -42 -336 -27 -129
-51 -288 -60 -380 -8 -87 -16 -160 -18 -162 -2 -2 -57 143 -122 323 -381 1055
-670 1663 -910 1917 -55 59 -88 80 -351 226 -511 283 -731 384 -940 434 -144
34 -233 76 -288 134 -24 25 -48 54 -53 64 -5 9 -41 27 -79 39 -52 17 -73 30
-85 50 -8 15 -12 30 -8 33 9 9 226 -64 260 -87 14 -10 29 -18 32 -18 27 0 -38
133 -91 187 -21 21 -73 67 -116 101 -87 70 -112 105 -121 166 -11 71 -55 138
-109 166 -26 14 -49 32 -52 40 -3 8 -16 83 -30 165 -29 169 -34 312 -13 423
l13 73 71 2 c117 3 132 34 56 119 -66 72 -71 84 -61 143 13 81 10 402 -5 485
-12 67 -29 111 -98 259 -12 24 -55 89 -97 145 -42 56 -96 140 -120 186 -24 47
-63 112 -86 145 -53 76 -140 255 -156 320 -14 60 -30 92 -81 168 -45 66 -74
86 -213 147 -55 24 -101 45 -103 46 -4 2 69 548 103 774 l25 165 180 363 c99
199 180 369 180 377 0 8 -52 58 -115 110 -63 53 -115 99 -115 104 0 4 18 80
40 168 67 275 100 361 195 523 109 183 174 317 218 451 40 118 57 223 87 519
l20 206 70 134 c41 79 84 147 103 164 17 15 72 52 121 80 98 58 141 109 120
143 -10 15 -26 18 -100 17 -86 0 -95 -3 -259 -68 -93 -38 -175 -72 -181 -77
-21 -17 -47 20 -40 55 9 43 44 99 254 398 101 145 188 271 193 280 15 28 10
74 -12 102 -38 49 -87 28 -179 -76 -73 -84 -146 -162 -316 -337 -77 -80 -152
-161 -167 -179 l-27 -34 0 34 c0 18 7 76 15 128 12 73 25 113 56 170 22 41 88
171 146 289 84 168 107 224 111 265 5 65 -12 86 -69 86 -49 0 -103 -46 -156
-134 -86 -144 -263 -406 -311 -460 -55 -63 -55 -61 -73 -151 l-12 -60 -15 35
c-8 19 -16 60 -19 90 -7 74 29 279 71 410 19 58 37 135 41 172 7 63 6 68 -18
92 -27 27 -71 33 -114 16z m6266 -5786 c47 -72 49 -103 11 -180 -18 -35 -40
-70 -48 -77 -9 -6 -13 -7 -9 -1 3 6 2 74 -3 152 -7 108 -13 147 -27 169 l-18
28 32 -23 c17 -12 45 -43 62 -68z m-1138 -1881 c-12 -20 -14 -14 -5 12 4 9 9
14 11 11 3 -2 0 -13 -6 -23z"/>
<path d="M16405 15330 c-38 -17 -113 -43 -166 -60 -118 -37 -144 -61 -201
-180 -84 -178 -122 -250 -142 -269 -12 -10 -56 -33 -98 -51 -141 -58 -139 -53
-203 -423 -54 -307 -109 -580 -131 -645 -24 -69 -88 -193 -151 -291 -72 -111
-83 -138 -83 -208 -1 -82 -23 -185 -47 -219 -11 -16 -28 -51 -37 -78 -18 -52
-116 -415 -116 -427 0 -5 -11 -24 -24 -43 -14 -21 -25 -56 -29 -89 -7 -72 -79
-286 -123 -365 -58 -106 -74 -171 -84 -326 -8 -151 -15 -177 -78 -301 -68
-137 -111 -299 -167 -638 -33 -201 -63 -290 -176 -535 -147 -317 -142 -304
-147 -417 -4 -90 2 -133 56 -425 104 -558 139 -788 227 -1510 48 -388 55 -557
34 -798 -10 -121 -10 -150 5 -233 9 -52 30 -254 46 -450 35 -413 45 -465 143
-705 35 -87 88 -236 116 -330 129 -432 219 -646 396 -944 31 -52 33 -61 38
-180 8 -194 53 -334 156 -483 49 -71 174 -199 235 -242 l29 -21 -41 -129
c-101 -317 -137 -500 -157 -802 -20 -301 -19 -634 1 -805 28 -230 5 -535 -64
-849 -17 -74 -64 -249 -105 -389 -42 -140 -88 -298 -103 -350 -15 -52 -29
-101 -31 -108 -4 -9 787 -12 3936 -12 l3941 0 -6 28 c-4 15 -33 113 -66 217
-92 297 -247 815 -362 1215 -250 868 -337 1211 -366 1443 -66 522 -201 1269
-312 1716 -85 347 -146 501 -225 571 -105 92 -438 302 -758 478 -110 60 -134
78 -157 115 -39 61 -49 68 -180 122 -112 46 -119 47 -163 36 l-46 -12 -72 59
c-157 129 -260 202 -282 202 -13 0 -36 -5 -51 -11 -16 -5 -62 -12 -104 -13
-41 -2 -90 -7 -107 -11 -33 -7 -33 -7 -33 29 l0 36 50 0 c47 0 50 1 45 23 -11
52 -25 262 -19 295 4 23 44 88 109 177 360 497 454 705 455 1004 0 302 -60
493 -251 787 -80 124 -170 297 -191 367 -10 34 -10 41 6 52 16 12 15 14 -12
19 -16 4 -41 2 -55 -3 -27 -10 -27 -10 -27 38 0 61 17 111 38 111 13 0 14 2 4
13 -9 8 -45 12 -105 12 -80 0 -99 -4 -144 -27 l-52 -27 -63 63 c-109 108 -231
150 -376 128 -99 -16 -176 -54 -278 -140 -68 -58 -95 -73 -165 -97 -103 -34
-218 -87 -256 -119 -75 -62 -165 -87 -320 -88 -93 0 -121 4 -153 20 -39 19
-39 19 -29 0 20 -37 82 -99 123 -123 23 -13 64 -27 93 -31 l52 -6 -15 -37
c-45 -103 -136 -360 -159 -447 -21 -78 -28 -135 -33 -269 -7 -155 -9 -173 -30
-202 -32 -45 -106 -205 -133 -285 -38 -119 -12 -148 118 -130 43 5 86 13 96
17 16 7 17 2 11 -57 -4 -41 -2 -78 5 -101 14 -42 56 -87 82 -87 15 0 12 -8
-19 -53 -20 -29 -48 -77 -62 -106 l-24 -53 -96 7 c-166 12 -150 3 -300 165
-74 80 -212 224 -307 321 -159 161 -173 178 -173 211 0 69 -38 160 -105 253
-78 109 -120 155 -142 155 -9 0 -40 18 -68 40 l-52 40 10 39 c13 50 -1 92
-117 346 -143 313 -225 454 -314 544 -44 44 -45 45 -69 175 -13 72 -37 185
-53 251 -30 126 -41 243 -60 610 -26 511 -38 602 -139 1070 -22 99 -47 216
-56 260 -9 44 -32 153 -51 243 -18 89 -34 190 -34 225 0 34 -11 107 -24 162
-24 99 -24 102 -11 270 7 93 11 174 9 180 -9 23 15 226 30 256 22 44 20 111
-5 170 -43 99 -9 370 56 448 14 16 50 43 79 60 30 17 97 70 148 118 51 49 112
101 136 116 50 32 147 129 207 207 64 84 102 157 123 243 18 68 27 85 67 125
25 26 65 72 88 102 35 46 59 64 140 105 160 82 225 149 211 220 -9 47 -37 81
-80 95 -30 10 -45 9 -103 -10 -85 -27 -160 -24 -389 14 -151 25 -233 46 -256
67 -25 22 115 112 193 124 124 19 170 33 298 86 167 71 193 91 193 149 0 50
-14 80 -38 80 -10 0 -42 -9 -72 -19 -30 -11 -93 -24 -140 -29 -47 -6 -122 -21
-165 -32 -132 -36 -186 -48 -264 -55 -87 -9 -87 -2 -1 50 33 20 60 40 60 45 0
5 15 11 33 14 210 32 227 37 268 75 40 39 50 76 27 99 -8 8 -57 12 -157 11
-138 0 -150 -2 -216 -29z"/>
<path d="M47805 14523 c-11 -3 -23 -8 -28 -12 -4 -4 3 -49 16 -99 16 -65 20
-92 11 -92 -6 0 -21 -8 -33 -17 l-20 -18 25 -85 c14 -47 29 -126 34 -176 4
-50 18 -125 29 -165 11 -41 27 -111 35 -155 8 -45 31 -122 51 -170 58 -141 63
-160 84 -325 18 -143 24 -167 79 -310 74 -189 92 -250 92 -306 0 -24 12 -101
27 -171 21 -99 26 -153 26 -247 -3 -390 -14 -738 -37 -1100 -14 -225 -28 -457
-31 -515 -9 -150 -32 -369 -60 -555 -17 -119 -44 -233 -105 -445 -150 -526
-165 -612 -141 -781 12 -82 39 -163 532 -1627 76 -227 197 -560 268 -740 71
-180 139 -359 151 -398 l23 -72 -41 -128 c-62 -192 -75 -256 -69 -354 4 -75
10 -99 55 -202 28 -65 56 -135 61 -156 12 -41 93 -139 135 -161 14 -8 26 -21
26 -29 0 -8 -20 -52 -45 -98 -25 -45 -45 -84 -45 -87 0 -8 115 -83 148 -97 22
-8 53 -11 92 -7 54 6 62 4 91 -20 37 -32 59 -78 59 -127 0 -18 -13 -85 -29
-147 -27 -106 -29 -122 -22 -219 9 -112 3 -183 -24 -294 -18 -78 -13 -106 31
-164 32 -42 39 -97 53 -442 6 -139 17 -264 26 -307 15 -69 15 -76 -3 -135 -17
-55 -19 -92 -18 -294 l1 -231 30 -43 c45 -65 151 -175 201 -209 46 -30 86 -39
228 -50 l78 -6 23 -90 c31 -120 60 -199 92 -254 25 -43 26 -53 27 -186 l1
-140 58 -165 c75 -211 105 -311 116 -380 8 -49 -14 -465 -35 -663 l-6 -57
3558 2 3559 3 117 154 c116 153 175 221 190 221 4 0 68 -33 140 -74 191 -106
221 -120 252 -112 36 9 146 114 216 208 69 91 132 215 155 306 15 59 65 205
183 537 28 78 53 162 57 188 7 45 6 47 -21 58 -16 6 -63 15 -104 20 -78 10
-91 15 -300 126 -120 64 -182 88 -265 104 -27 5 -268 41 -535 79 l-485 70 -95
46 c-80 38 -109 47 -185 55 -102 10 -244 35 -281 49 -30 12 -27 20 52 125 67
91 80 117 94 195 25 141 52 219 97 281 48 67 63 110 63 179 0 58 2 62 50 114
57 64 76 97 89 158 19 83 -13 151 -89 186 -19 10 -43 32 -53 49 l-19 33 44 51
c23 29 62 70 84 93 25 24 62 82 92 141 l50 100 96 34 c53 18 98 37 101 41 3 4
-17 25 -43 46 -26 20 -51 41 -55 44 -5 4 25 59 65 121 41 63 84 131 97 152
l23 38 -29 37 -30 37 383 715 c211 393 383 720 384 726 0 15 -94 76 -204 133
-101 52 -211 90 -269 94 l-38 2 -558 -1085 -559 -1085 -92 -12 c-51 -7 -94
-14 -95 -15 -1 -2 4 -64 11 -138 l12 -135 -66 -137 c-36 -76 -67 -138 -68
-138 -1 0 -16 14 -32 30 -27 26 -38 30 -86 30 -85 0 -135 -26 -176 -92 l-17
-28 -143 282 -143 281 34 -7 c198 -41 415 -45 511 -11 61 21 74 39 21 29 -21
-5 -92 -8 -158 -7 -142 0 -263 26 -370 78 -79 38 -188 122 -145 112 35 -8 204
-25 330 -32 127 -8 333 9 434 35 71 18 162 57 154 66 -2 2 -35 -5 -72 -16
-129 -36 -314 -62 -451 -62 -148 0 -246 18 -341 63 -90 42 -135 92 -199 219
-30 60 -55 113 -55 116 0 12 272 -4 359 -21 171 -33 295 -81 387 -151 l49 -36
-45 47 c-203 213 -542 459 -790 571 l-95 44 90 0 c83 0 185 18 223 39 9 5 -20
13 -84 21 -123 15 -265 51 -347 88 l-62 28 95 1 c52 1 127 8 165 16 71 16 129
35 109 36 -77 5 -239 26 -314 42 -125 27 -177 49 -415 174 -187 98 -197 105
-158 105 153 0 291 -40 657 -191 467 -193 629 -277 740 -379 34 -31 79 -70
101 -87 55 -42 155 -97 155 -85 0 34 -163 235 -260 321 -247 217 -495 340
-860 425 -62 14 -49 15 250 11 339 -3 448 -14 615 -61 50 -13 117 -38 150 -53
230 -109 576 -193 705 -171 25 4 41 8 35 9 -216 28 -346 66 -525 153 -98 48
-120 63 -105 69 11 4 117 30 235 59 207 49 460 126 460 139 0 3 -136 6 -303 7
-290 0 -452 10 -597 38 l-65 12 115 18 c170 26 369 80 470 127 85 40 117 65
68 54 -73 -16 -653 -71 -853 -81 l-130 -6 77 45 c117 68 196 128 269 203 91
95 109 134 28 60 -131 -120 -300 -213 -467 -257 -66 -18 -95 -20 -207 -14 -71
3 -148 10 -170 14 l-40 9 36 1 c37 1 165 22 259 42 l53 11 -47 28 -47 27 -117
-19 c-64 -10 -191 -21 -282 -23 l-165 -5 198 66 c108 37 197 69 197 73 0 4
-12 12 -27 18 -28 11 -28 11 -5 18 36 12 26 23 -42 44 -115 36 -188 45 -341
45 l-150 -1 45 46 c25 26 61 69 80 96 l34 50 -63 -63 c-142 -141 -275 -175
-416 -107 -38 18 -62 34 -53 34 62 3 187 95 207 151 9 26 3 23 -44 -25 -92
-95 -182 -118 -280 -71 -64 30 -111 80 -174 186 -28 46 -49 85 -48 86 1 1 43
-5 92 -12 346 -52 682 -32 860 52 39 18 79 41 88 52 15 17 3 14 -84 -15 -55
-19 -140 -41 -188 -49 -173 -28 -404 -12 -589 42 -89 26 -232 82 -232 91 0 3
27 101 61 217 56 195 60 217 56 286 -10 158 -72 254 -347 535 -188 192 -297
318 -392 450 -67 94 -80 129 -90 254 -12 145 -32 248 -54 272 -24 27 -69 36
-223 48 -74 6 -135 12 -136 13 0 2 -13 20 -29 41 -96 130 -388 208 -671 179
-181 -19 -307 -66 -418 -157 -70 -56 -149 -93 -287 -134 -364 -106 -555 -70
-584 111 -14 86 39 174 132 219 38 19 64 23 140 24 93 0 94 0 50 13 -56 17
-173 11 -216 -12 -50 -26 -108 -82 -138 -133 -24 -41 -26 -53 -20 -105 11
-110 66 -192 157 -236 54 -26 179 -46 232 -38 l40 7 -7 -64 c-9 -88 -31 -159
-58 -184 -38 -36 -172 -75 -273 -80 -85 -5 -93 -3 -145 24 -68 36 -104 91
-125 189 l-15 71 36 72 c47 96 69 204 54 261 -6 23 -13 40 -15 38 -3 -2 -9
-36 -15 -75 -20 -145 -71 -236 -168 -302 -106 -71 -154 -175 -154 -332 0 -199
77 -368 278 -609 97 -116 234 -239 285 -255 31 -10 38 -42 49 -218 14 -214 34
-307 115 -522 37 -99 70 -185 72 -191 5 -14 -77 -48 -102 -42 -11 2 -25 27
-40 75 -27 85 -130 302 -176 370 -18 26 -56 73 -84 104 -64 68 -90 118 -144
279 -23 69 -58 153 -77 188 -69 127 -181 258 -269 317 -30 20 -59 44 -64 53
-5 9 -38 116 -74 237 -81 271 -240 743 -301 895 -25 62 -78 171 -117 242 -136
244 -148 282 -180 533 -30 241 -89 785 -116 1075 -14 152 -17 296 -18 810 0
436 4 650 12 707 13 88 33 134 116 272 70 117 86 167 102 312 22 197 29 213
220 484 133 190 166 245 205 354 34 93 37 123 13 142 -26 22 -95 15 -144 -14
-53 -31 -136 -112 -189 -187 -22 -30 -63 -88 -92 -129 -85 -119 -103 -130
-260 -153 -73 -10 -147 -16 -163 -13 -23 4 -57 34 -135 120 -57 63 -107 120
-111 127 -4 7 18 76 48 153 34 86 57 162 60 197 5 51 3 59 -20 82 -30 30 -72
34 -85 9 -5 -10 -12 -34 -16 -53 -8 -42 -82 -170 -99 -170 -17 0 -133 127
-151 164 -11 25 -13 69 -9 226 6 207 0 256 -38 304 -29 36 -78 61 -93 46 -6
-6 -16 -39 -21 -73 l-10 -62 -23 85 c-42 156 -112 232 -197 213z m6888 -8584
c22 -6 37 -12 35 -14 -2 -3 -57 -18 -121 -35 -136 -35 -332 -60 -462 -60 -81
1 -88 2 -65 14 48 27 205 77 280 91 91 16 281 19 333 4z"/>
<path d="M32622 14123 c-64 -31 -162 -200 -215 -368 -50 -160 -57 -217 -57
-477 0 -211 3 -261 24 -378 31 -181 52 -226 129 -286 165 -128 386 -316 418
-355 85 -106 78 -78 105 -416 31 -394 60 -705 84 -913 11 -91 37 -358 60 -595
69 -733 94 -907 174 -1193 56 -202 69 -272 57 -303 -5 -13 -34 -52 -65 -87
-31 -34 -63 -77 -72 -95 -9 -17 -153 -243 -319 -502 -314 -488 -548 -858 -699
-1103 -49 -78 -92 -144 -96 -147 -3 -2 -39 51 -78 118 -116 200 -137 246 -138
297 0 25 -4 51 -8 58 -9 14 -55 16 -90 2 -14 -5 -26 -8 -26 -6 0 2 -7 41 -16
87 -46 249 -191 725 -536 1754 l-160 480 5 115 c5 90 41 349 50 356 1 1 252
30 557 64 305 35 564 67 576 71 15 5 28 30 47 88 44 132 35 270 -23 351 -19
26 -23 28 -52 18 -27 -10 -33 -8 -48 12 l-18 23 -528 -81 c-697 -108 -626
-101 -669 -63 -69 60 -85 64 -171 42 l-75 -19 -71 24 c-87 29 -98 29 -148 4
-36 -18 -41 -19 -75 -4 -45 18 -78 12 -160 -28 -52 -27 -63 -29 -90 -19 -60
21 -83 14 -141 -41 -44 -43 -57 -63 -66 -105 -14 -59 1 -53 -198 -78 -318 -38
-708 -88 -833 -105 -75 -11 -141 -20 -147 -20 -5 0 -15 -12 -22 -27 -7 -14
-40 -42 -72 -62 -68 -41 -84 -72 -85 -164 -1 -74 20 -121 70 -154 39 -25 39
-25 136 -13 54 6 114 14 133 16 110 13 605 79 783 105 115 16 212 27 217 24 4
-2 10 -18 13 -34 5 -24 19 -37 77 -68 l70 -38 139 -205 c330 -489 349 -569
396 -1675 8 -192 17 -443 21 -557 l7 -208 -26 -20 c-37 -29 -110 -150 -291
-484 -239 -438 -333 -586 -374 -586 -9 0 -40 12 -67 26 -50 26 -245 144 -245
148 0 1 57 0 128 -2 l127 -3 -105 43 c-137 56 -242 117 -310 179 -30 28 -50
49 -45 47 6 -2 89 -43 185 -91 177 -89 305 -137 362 -137 27 0 12 11 -92 71
-146 83 -221 133 -312 206 -117 93 -99 95 75 8 177 -88 302 -134 387 -142 l55
-5 -129 72 c-311 171 -537 311 -616 381 -32 29 -33 31 -10 25 86 -21 515 -105
565 -111 l60 -6 -75 34 c-221 99 -493 253 -630 354 -120 90 -257 235 -324 343
-139 226 -499 730 -648 908 -74 87 -178 234 -325 452 -49 74 -118 170 -152
213 -34 42 -57 77 -53 77 5 0 17 -10 28 -21 10 -12 54 -53 98 -92 l78 -71 -32
64 c-150 300 -397 519 -620 550 -72 11 -97 15 -260 45 -89 17 -292 19 -376 4
-145 -25 -225 -61 -434 -194 -80 -51 -176 -110 -214 -130 -38 -21 -94 -58
-125 -82 -31 -24 -96 -75 -146 -113 -49 -38 -119 -98 -155 -134 -35 -36 -73
-66 -82 -66 -40 0 -251 124 -294 171 -16 18 -24 48 -33 124 -18 151 -49 342
-67 419 -20 82 -28 54 103 364 241 573 422 958 523 1112 75 114 211 250 300
303 36 21 102 49 147 63 128 39 222 118 315 264 19 30 63 102 98 160 l64 105
7 130 c4 72 10 167 14 212 8 82 8 82 -18 88 -36 9 -79 -17 -121 -73 -44 -61
-141 -259 -158 -324 -14 -55 -7 -53 -142 -37 -68 8 -95 16 -108 30 -26 30 -31
95 -14 174 8 39 20 102 26 142 13 95 17 105 112 257 121 197 146 227 256 305
141 100 185 173 122 206 -44 23 -90 18 -156 -15 -57 -29 -340 -232 -441 -317
-28 -24 -54 -43 -57 -43 -12 0 -6 61 8 89 21 41 86 95 200 169 193 124 256
185 256 246 0 37 -43 79 -73 71 -51 -16 -245 -116 -289 -149 -33 -26 -57 -36
-82 -36 -91 0 -181 -29 -315 -103 l-94 -52 -119 -240 c-117 -235 -119 -241
-115 -296 3 -36 22 -97 55 -175 58 -139 76 -211 62 -250 -6 -14 -37 -56 -69
-93 -32 -36 -71 -88 -87 -116 -15 -27 -47 -76 -71 -107 -71 -94 -362 -414
-501 -552 -130 -129 -131 -129 -138 -100 -3 16 -17 47 -29 69 -16 27 -25 65
-30 120 -9 107 -31 200 -58 247 -39 71 -259 202 -438 262 -185 62 -225 64
-694 36 -157 -9 -881 -15 -1035 -8 l-54 3 -93 -155 c-109 -183 -236 -430 -258
-502 -10 -35 -13 -72 -9 -117 3 -39 -1 -116 -10 -186 -17 -129 -13 -244 19
-495 30 -234 45 -431 49 -640 5 -213 33 -517 61 -649 29 -140 75 -230 193
-379 96 -122 304 -418 332 -472 22 -43 22 -49 11 -131 -15 -116 -14 -250 4
-332 14 -68 79 -239 141 -375 19 -41 34 -77 34 -81 0 -5 22 -57 50 -117 36
-79 54 -135 65 -204 16 -92 65 -249 154 -490 24 -63 60 -164 80 -225 40 -116
89 -220 145 -308 18 -28 47 -80 64 -114 17 -33 44 -71 60 -82 29 -21 30 -21
34 -145 2 -79 8 -129 16 -139 7 -8 35 -21 63 -27 69 -17 97 -49 214 -244 55
-92 113 -183 128 -202 16 -18 67 -61 115 -93 48 -33 114 -83 147 -111 33 -28
72 -54 88 -57 15 -3 29 -9 32 -13 3 -4 -50 -122 -116 -261 -219 -459 -352
-788 -410 -1014 -40 -155 -70 -440 -76 -716 -5 -258 -2 -319 37 -774 32 -375
42 -657 30 -849 -13 -206 -20 -257 -75 -511 -50 -229 -105 -548 -105 -606 l0
-39 3405 0 c1873 0 3405 2 3405 5 0 7 -133 244 -193 344 -27 46 -70 106 -93
133 -36 39 -44 56 -44 87 0 45 15 61 85 91 95 42 510 202 608 236 63 21 121
49 160 77 70 50 181 162 220 222 32 49 87 282 70 293 -6 4 -115 27 -242 51
-143 28 -231 49 -231 56 0 31 65 139 93 154 16 9 119 68 229 132 l201 117 104
-79 c57 -43 134 -93 171 -110 37 -17 92 -49 123 -69 81 -55 125 -76 257 -121
162 -56 289 -120 334 -166 26 -27 51 -76 88 -168 29 -71 87 -197 129 -280 l76
-150 -1 -215 c0 -190 -14 -455 -30 -592 l-6 -48 4110 0 4110 0 93 183 94 182
6 -175 c4 -96 7 -178 8 -182 0 -5 1149 -8 2551 -8 l2550 0 0 26 c0 37 -35 172
-76 290 -42 126 -70 287 -128 749 -35 280 -55 404 -91 558 -26 109 -45 200
-43 202 1 1 101 -30 221 -71 121 -40 260 -83 310 -95 51 -12 127 -32 170 -45
93 -29 175 -31 326 -8 236 34 442 98 641 198 69 35 184 89 255 121 244 107
301 143 341 210 l25 44 -70 103 c-110 163 -234 313 -371 449 -118 118 -144
139 -406 311 -427 283 -794 508 -979 600 -44 22 -81 41 -83 43 -4 3 15 85 21
91 2 2 30 -9 63 -26 68 -34 94 -36 224 -13 52 9 153 17 224 17 l129 1 54 60
c75 82 187 250 236 353 l42 87 0 225 c0 193 2 229 17 256 21 38 352 362 502
491 67 57 142 111 190 136 95 49 116 76 151 191 40 131 58 266 52 391 -4 93
-11 127 -42 220 -55 164 -122 297 -215 425 -96 133 -385 568 -474 715 -34 55
-81 139 -104 186 -26 55 -49 88 -61 92 -11 3 -90 111 -194 268 -210 318 -368
532 -546 739 -252 294 -466 591 -594 825 -101 184 -120 240 -178 515 -60 290
-56 280 -248 615 -165 289 -213 369 -231 390 -10 11 -36 65 -59 120 -49 117
-114 230 -140 245 -10 5 -22 21 -25 35 -6 22 -12 25 -51 25 -32 0 -51 -6 -72
-24 -27 -23 -28 -29 -31 -121 -5 -115 18 -284 58 -440 16 -60 32 -121 35 -135
4 -14 -32 65 -79 175 -48 110 -90 207 -95 215 -5 9 -23 15 -47 15 -34 0 -41
-4 -57 -35 -15 -29 -18 -51 -13 -135 5 -109 15 -152 129 -560 71 -252 76 -278
78 -380 l3 -110 -30 -3 c-28 -2 -32 2 -92 120 -108 213 -205 321 -318 354 -46
13 -58 13 -81 2 -25 -12 -28 -19 -27 -62 0 -44 4 -52 46 -90 26 -22 51 -51 57
-63 6 -12 31 -98 56 -190 48 -183 65 -232 99 -278 12 -16 34 -56 50 -87 46
-96 216 -236 411 -339 182 -95 261 -163 378 -321 81 -109 194 -284 269 -418
285 -504 395 -714 455 -870 53 -134 137 -428 157 -546 9 -50 23 -111 31 -135
l16 -45 -36 -59 c-40 -68 -40 -64 -20 -112 8 -19 15 -36 15 -38 0 -1 -33 0
-72 3 -84 5 -176 -10 -231 -37 l-38 -19 -86 40 c-111 52 -199 68 -246 46 -37
-17 -96 -83 -171 -191 -55 -77 -63 -82 -131 -92 -28 -4 -74 -21 -105 -40 -101
-60 -136 -74 -285 -110 -173 -43 -256 -72 -334 -119 -213 -128 -305 -142 -503
-76 -96 32 -136 40 -193 40 -68 0 -78 3 -191 60 -128 64 -194 111 -194 139 0
9 15 42 33 72 19 30 57 92 85 138 37 60 52 95 52 120 1 79 61 157 184 235 31
20 101 75 155 122 154 133 219 233 243 371 10 61 9 89 -6 188 -18 123 -48 220
-70 228 -10 4 -15 44 -19 154 -4 103 -12 174 -27 233 -19 75 -21 101 -15 215
l6 130 -83 85 c-63 64 -104 119 -167 225 -140 234 -259 408 -295 433 -55 37
-125 59 -242 75 -124 18 -149 25 -207 66 -23 15 -82 50 -132 77 l-90 49 -100
0 c-99 -1 -101 -1 -205 -50 l-105 -49 -125 -1 c-113 -1 -131 -4 -190 -29 -108
-45 -213 -83 -252 -90 l-37 -7 5 73 c3 40 30 467 60 948 38 596 52 881 46 896
-21 44 -76 59 -217 59 -71 0 -162 -6 -202 -13 -67 -13 -72 -16 -83 -45 l-11
-32 -15 28 c-9 16 -18 27 -21 24 -5 -6 -24 -208 -48 -522 -9 -111 -20 -437
-25 -735 -5 -294 -14 -589 -20 -655 -25 -278 -52 -471 -76 -549 -38 -122 -75
-218 -96 -249 -19 -27 -19 -28 1 -70 11 -23 23 -63 26 -89 l7 -48 -35 0 c-23
0 -45 -8 -61 -22 -22 -20 -244 -452 -286 -558 -8 -19 -29 -56 -47 -83 -18 -27
-36 -61 -40 -75 -3 -14 8 -134 26 -266 39 -296 64 -665 50 -763 -15 -108 -30
-176 -45 -198 -10 -14 -14 -54 -14 -142 0 -148 11 -137 -180 -187 -174 -45
-295 -88 -324 -115 -12 -12 -35 -58 -51 -103 -23 -65 -40 -94 -82 -140 -63
-69 -138 -169 -164 -220 -24 -47 -72 -241 -98 -400 -43 -256 -53 -384 -58
-772 -6 -421 4 -667 43 -1006 13 -118 24 -244 24 -279 0 -86 -21 -343 -30
-359 -3 -7 -12 42 -19 110 -22 214 -46 335 -81 401 -91 173 -316 463 -441 567
-42 35 -79 55 -141 75 -46 15 -141 50 -211 77 -108 42 -145 62 -230 127 -154
117 -240 172 -309 195 -58 20 -64 25 -77 63 -13 37 -24 46 -120 101 -61 34
-105 65 -104 73 1 8 13 42 27 75 32 76 49 189 41 274 -7 65 -6 65 44 148 27
46 55 107 62 136 10 46 17 56 64 89 79 55 196 168 258 249 169 220 297 655
267 903 -24 203 -31 285 -45 555 -28 533 -49 753 -86 889 -44 163 -255 517
-437 736 -54 65 -154 151 -438 381 -134 108 -227 145 -499 198 -194 37 -264
46 -373 46 -172 0 -249 -38 -435 -218 -69 -66 -159 -140 -234 -190 -138 -94
-205 -161 -335 -335 -108 -145 -144 -205 -164 -277 -8 -30 -26 -90 -40 -133
-17 -52 -30 -128 -40 -237 -8 -87 -19 -171 -25 -186 -5 -16 -27 -46 -48 -69
-40 -44 -72 -117 -96 -219 -11 -48 -12 -90 -5 -206 13 -191 80 -576 113 -651
14 -31 29 -74 33 -95 7 -41 44 -129 135 -324 l54 -115 3 -335 3 -335 -128
-109 -128 -109 -12 43 c-7 24 -17 86 -23 139 -5 53 -21 137 -34 186 -45 167
-137 478 -151 512 -30 70 -36 143 -25 299 13 176 4 269 -36 401 -25 83 -27
101 -30 323 -1 129 -7 286 -13 349 -6 63 -7 119 -4 125 4 6 44 61 90 121 l82
111 -8 179 c-7 173 -9 183 -40 250 -45 99 -166 276 -254 372 -97 105 -147 173
-185 249 -48 95 -48 117 -8 202 65 134 88 285 67 436 -17 122 -31 156 -81 207
-90 90 -247 121 -505 99 -140 -12 -157 -11 -180 4 -56 37 -102 180 -128 396
-8 63 -33 205 -55 315 -46 225 -74 409 -96 630 -9 83 -74 522 -146 975 -165
1032 -197 1173 -301 1285 -65 70 -193 162 -286 205 -119 55 -243 139 -293 199
-24 29 -77 77 -118 108 -49 38 -72 62 -69 72 40 133 57 216 57 273 0 78 -12
111 -47 127 -29 13 -21 14 -61 -6z m176 -840 l142 -16 73 -81 c39 -44 86 -97
104 -116 l32 -36 -117 14 c-119 14 -153 25 -266 91 -27 16 -57 38 -65 49 -9
11 -28 27 -43 37 -20 12 -28 26 -28 46 0 34 -12 33 168 12z m8540 -6746 c18
-30 62 -118 98 -197 90 -195 94 -187 -96 -216 -80 -13 -151 -23 -158 -23 -16
-1 -10 86 14 204 23 112 85 285 103 285 4 0 21 -24 39 -53z m-3978 -1592 c0
-8 12 -17 28 -21 76 -17 92 -25 92 -50 0 -13 9 -66 21 -117 20 -90 20 -93 3
-165 -15 -58 -21 -71 -34 -66 -55 24 -90 33 -127 34 l-41 0 -7 115 c-8 122 -6
138 27 228 19 54 38 75 38 42z"/>
<path d="M8610 11682 c-25 -19 -57 -45 -72 -59 -30 -29 -65 -26 -53 5 4 9 10
28 12 42 4 24 3 24 -8 5 -26 -41 -108 -85 -161 -85 -24 0 -23 16 2 23 11 3 20
12 20 20 0 14 -5 14 -42 -1 -24 -8 -51 -22 -61 -30 -24 -21 -31 -10 -30 49 1
71 -20 47 -22 -26 -3 -66 -21 -90 -79 -106 -37 -10 -42 -9 -54 10 -18 26 -47
29 -33 3 7 -13 1 -27 -30 -62 -25 -30 -39 -39 -39 -28 0 9 5 20 10 23 6 3 10
11 10 18 0 17 -28 -14 -48 -54 -12 -23 -28 -37 -52 -45 -68 -20 -107 -43 -139
-80 -32 -36 -33 -36 -47 -15 -22 30 -37 26 -21 -6 13 -24 12 -30 -12 -69 -29
-49 -42 -53 -78 -24 -35 27 -51 25 -25 -3 26 -27 28 -50 7 -67 -8 -7 -15 -19
-15 -26 0 -8 -4 -14 -10 -14 -5 0 -10 5 -10 12 0 6 -3 8 -6 5 -4 -4 -1 -20 6
-37 7 -17 10 -33 8 -36 -3 -3 -28 -10 -54 -17 -45 -11 -49 -15 -55 -47 l-5
-35 -11 35 -11 35 -1 -51 c-1 -43 -6 -55 -32 -80 -33 -31 -33 -30 -13 -176 7
-53 -4 -61 -30 -25 -23 30 -8 0 21 -42 22 -32 22 -35 7 -53 -19 -20 -54 -24
-54 -6 0 6 -3 9 -6 6 -3 -4 2 -20 10 -37 21 -40 20 -87 -3 -125 -42 -70 -61
-259 -33 -338 7 -20 35 -67 62 -104 46 -63 48 -69 36 -93 -27 -53 -27 -86 0
-122 13 -18 24 -38 24 -45 0 -7 23 -46 50 -87 63 -94 64 -112 9 -121 -56 -9
-94 -30 -159 -89 -83 -74 -132 -93 -299 -113 -190 -22 -338 -15 -540 25 -208
42 -254 40 -481 -13 -273 -66 -288 -72 -387 -176 -65 -67 -103 -97 -166 -131
-166 -89 -212 -166 -227 -376 -5 -68 -15 -134 -22 -148 -21 -39 -275 -275
-315 -291 -19 -9 -88 -22 -152 -30 -155 -19 -244 -49 -460 -154 -150 -73 -190
-98 -231 -140 -108 -111 -180 -326 -210 -629 -25 -254 -9 -316 108 -430 88
-86 193 -160 416 -294 99 -59 188 -115 196 -123 20 -20 18 -154 -4 -214 -9
-25 -48 -95 -87 -157 -39 -62 -77 -136 -85 -165 -8 -29 -53 -242 -99 -473 -89
-438 -123 -593 -155 -710 -45 -167 -45 -168 -45 -740 l-1 -550 -32 -160 c-45
-225 -52 -321 -62 -925 -11 -656 -10 -648 -165 -960 -152 -304 -336 -844 -382
-1118 -14 -87 -28 -169 -30 -185 l-5 -27 3467 0 3467 0 -3 142 -4 142 87 31
88 30 37 -20 c24 -12 45 -35 57 -59 23 -47 87 -111 136 -136 34 -17 39 -17
138 3 56 11 105 18 107 15 3 -3 -3 -22 -14 -44 -10 -21 -24 -54 -29 -72 l-10
-32 508 0 c426 0 509 2 513 14 3 8 22 19 41 26 49 16 47 42 -9 146 l-46 83 16
60 c19 73 19 98 1 133 l-15 28 162 154 c89 84 209 195 267 246 176 154 208
188 242 257 25 52 32 78 32 127 0 172 -179 300 -358 255 -39 -10 -69 -38 -282
-260 -131 -137 -263 -270 -292 -295 l-53 -46 -26 23 c-14 13 -34 37 -45 52
-19 27 -19 29 -3 105 16 72 138 534 171 648 14 50 15 51 72 68 31 9 80 21 107
27 28 5 77 21 110 34 33 13 90 29 128 36 37 7 67 17 67 23 0 6 -7 33 -15 60
-8 27 -15 62 -15 77 0 34 3 35 230 49 96 6 193 13 215 16 l40 5 -6 85 c-4 47
-5 192 -4 323 3 169 0 261 -11 326 -8 50 -14 116 -14 147 0 68 -33 243 -60
323 -23 66 -26 175 -10 338 16 166 103 391 188 487 21 25 49 64 61 88 26 50
50 194 58 348 5 104 4 118 -31 255 -41 168 -235 749 -294 887 -50 117 -86 176
-189 313 -184 246 -252 309 -548 511 -133 91 -161 106 -312 162 -257 95 -370
127 -514 141 -199 21 -222 28 -272 87 -23 28 -64 65 -92 84 -27 18 -127 102
-220 186 -94 84 -194 173 -223 196 -34 29 -52 52 -52 66 0 15 -41 62 -127 148
-132 130 -163 151 -350 231 -22 10 -81 55 -130 101 -53 50 -103 88 -125 95
-21 7 -41 17 -44 23 -7 11 58 81 97 105 34 20 72 79 158 246 63 120 71 143 71
191 l0 55 95 52 c74 39 107 64 143 108 94 113 134 145 261 210 102 54 139 79
212 149 l89 84 62 -11 c35 -6 97 -16 138 -21 64 -9 86 -18 150 -60 41 -27 104
-63 140 -79 78 -36 259 -83 303 -79 30 3 32 5 35 48 1 25 -1 50 -5 56 -5 7
-60 46 -123 88 -149 98 -244 166 -300 216 l-45 39 59 -19 c33 -11 82 -34 110
-52 77 -48 234 -175 302 -244 71 -72 156 -131 201 -140 27 -5 37 -2 63 24 16
17 30 39 30 50 0 24 -69 121 -107 148 -15 12 -41 45 -57 75 -51 95 -105 161
-234 286 -85 82 -123 126 -116 133 18 18 79 -9 145 -66 35 -30 89 -69 119 -87
30 -17 101 -77 157 -134 115 -116 153 -143 201 -143 36 0 81 20 101 44 11 13
5 24 -36 71 -27 30 -71 94 -98 142 -37 65 -82 122 -172 218 -67 71 -121 131
-119 133 2 2 39 -6 82 -17 131 -33 253 -53 284 -46 38 8 60 40 60 85 0 35 -1
36 -138 112 -121 68 -222 108 -273 108 -9 0 -86 25 -170 56 -151 55 -155 56
-234 50 -44 -3 -161 -19 -260 -35 -214 -36 -405 -55 -451 -46 -46 8 -65 -4
-164 -100 -73 -72 -198 -170 -206 -162 -1 1 9 40 23 87 45 155 43 197 -18 399
-21 67 -29 115 -29 170 -1 42 -7 124 -14 182 -15 123 -33 161 -135 296 -37 49
-89 126 -116 173 -29 49 -79 114 -120 155 -58 58 -90 80 -185 127 -114 57
-116 57 -245 69 -153 13 -189 25 -209 71 l-14 33 -1 -32 c-1 -33 -2 -33 -50
-33 -26 0 -70 -3 -96 -7 -46 -6 -47 -6 -36 16 7 12 11 32 9 45 -3 22 -4 22
-48 -12z"/>
</g>
</svg>
