<?xml version="1.0" standalone="no"?>
<!DOCTYPE svg PUBLIC "-//W3C//DTD SVG 20010904//EN"
 "http://www.w3.org/TR/2001/REC-SVG-20010904/DTD/svg10.dtd">
<svg version="1.0" xmlns="http://www.w3.org/2000/svg"
 width="1600.000000pt" height="1000.000000pt" viewBox="0 0 1600.000000 1000.000000"
 preserveAspectRatio="xMidYMid meet">

<g transform="translate(0.000000,1000.000000) scale(0.100000,-0.100000)"
fill="#000000" stroke="none">
<path d="M11005 7759 c-4 -6 -5 -12 -2 -15 2 -3 7 2 10 11 7 17 1 20 -8 4z"/>
<path d="M13018 7333 c7 -3 16 -2 19 1 4 3 -2 6 -13 5 -11 0 -14 -3 -6 -6z"/>
<path d="M2538 4170 c-469 -59 -814 -326 -914 -705 -25 -94 -25 -292 -1 -392
64 -267 261 -455 637 -609 63 -25 255 -93 427 -150 321 -107 461 -163 581
-233 235 -137 346 -330 329 -572 -22 -307 -226 -526 -577 -620 -72 -19 -111
-23 -260 -23 -153 -1 -186 2 -265 23 -241 63 -432 218 -538 435 -62 128 -97
281 -97 429 l0 67 -130 0 -130 0 0 -570 0 -570 130 0 130 0 0 225 c0 124 4
225 8 225 5 0 30 -35 57 -77 27 -43 85 -114 130 -158 123 -124 251 -191 448
-236 130 -30 403 -38 546 -15 362 57 674 273 798 554 52 118 64 172 70 314 14
334 -84 557 -327 742 -170 130 -363 211 -864 361 -498 149 -686 265 -771 475
-26 65 -32 244 -11 332 82 352 449 567 884 519 156 -17 249 -42 359 -96 244
-120 374 -360 390 -718 l6 -138 131 3 131 3 3 545 c1 300 0 555 -3 568 -5 22
-8 23 -133 20 l-127 -3 -5 -173 -5 -174 -54 66 c-132 159 -327 264 -581 311
-103 19 -310 27 -402 15z"/>
<path d="M5760 4087 c-10 -23 -71 -170 -135 -327 -65 -157 -147 -355 -182
-440 -36 -85 -80 -191 -98 -235 -35 -84 -172 -416 -257 -620 -27 -66 -69 -167
-93 -225 -24 -58 -67 -161 -96 -230 -28 -69 -73 -177 -99 -240 -26 -63 -105
-252 -174 -420 -70 -168 -139 -335 -154 -372 l-27 -68 -157 0 -158 0 0 -115 0
-115 573 0 572 0 0 115 0 115 -262 0 c-145 0 -263 3 -263 6 0 4 11 32 25 63
13 31 56 135 95 231 39 96 117 289 173 427 l102 253 800 0 800 0 52 -132 c28
-73 115 -289 192 -481 78 -191 141 -352 141 -357 0 -6 -96 -10 -260 -10 l-260
0 0 -115 0 -115 583 0 c321 0 586 2 588 4 2 2 3 54 1 115 l-3 111 -157 0 -157
0 -42 108 c-23 59 -73 184 -111 277 -181 444 -298 730 -407 1000 -41 99 -128
315 -195 480 -68 165 -151 370 -185 455 -67 164 -164 404 -289 710 l-75 185
-191 2 -192 2 -18 -42z m268 -412 c33 -83 120 -301 195 -485 268 -663 427
-1061 427 -1065 0 -3 -316 -5 -701 -5 l-701 0 5 23 c3 12 35 94 72 182 37 88
91 219 120 290 79 194 116 285 183 445 84 202 308 751 316 775 10 26 10 25 84
-160z"/>
<path d="M7515 4118 c-3 -7 -4 -238 -3 -513 l3 -500 125 0 125 0 3 393 c1 215
6 393 10 393 27 5 984 4 1012 -1 25 -4 35 -10 34 -23 -1 -9 -2 -678 -3 -1487
l-1 -1470 -290 0 -290 0 0 -115 0 -115 730 0 730 0 0 115 0 115 -290 0 -290 0
0 1489 c0 1410 1 1490 18 1494 14 4 980 2 1020 -2 9 -1 12 -87 12 -396 l0
-395 130 0 130 0 -2 513 -3 512 -1453 3 c-1157 2 -1454 0 -1457 -10z"/>
<path d="M10673 4098 c-83 -59 -83 -164 -1 -233 29 -24 38 -27 90 -23 47 3 64
10 88 33 61 59 61 151 0 210 -24 23 -41 29 -87 33 -48 3 -63 -1 -90 -20z m148
-19 c39 -27 56 -86 41 -137 -18 -58 -44 -77 -108 -77 -74 0 -105 31 -112 109
-4 53 -3 57 31 91 29 29 42 35 77 35 26 0 53 -8 71 -21z"/>
<path d="M10700 3980 c0 -47 4 -80 10 -80 6 0 10 16 10 35 0 46 23 46 52 0 30
-45 55 -47 28 -2 -19 33 -19 33 0 50 44 38 18 77 -52 77 l-48 0 0 -80z m95 50
c11 -18 -15 -40 -46 -40 -24 0 -29 4 -29 25 0 22 4 25 34 25 19 0 38 -5 41
-10z"/>
</g>
</svg>
