<?xml version="1.0" standalone="no"?>
<!DOCTYPE svg PUBLIC "-//W3C//DTD SVG 20010904//EN"
 "http://www.w3.org/TR/2001/REC-SVG-20010904/DTD/svg10.dtd">
<svg version="1.0" xmlns="http://www.w3.org/2000/svg"
 width="2000.000000pt" height="2000.000000pt" viewBox="0 0 2000.000000 2000.000000"
 preserveAspectRatio="xMidYMid meet">

<g transform="translate(0.000000,2000.000000) scale(0.100000,-0.100000)"
fill="#000000" stroke="none">
<path d="M9850 18140 c-566 -43 -1065 -150 -1546 -331 -588 -221 -1109 -530
-1613 -956 -146 -124 -438 -414 -561 -558 -51 -60 -97 -111 -101 -113 -4 -2
-133 49 -286 114 -430 181 -883 361 -1043 414 -287 97 -532 105 -830 29 -283
-73 -433 -207 -471 -420 -40 -224 113 -451 441 -656 270 -168 896 -482 1333
-668 48 -21 86 -41 85 -46 -2 -4 -67 -53 -145 -109 -79 -55 -143 -103 -143
-105 0 -3 25 -16 56 -30 135 -62 237 -149 275 -234 28 -62 27 -164 0 -227 -12
-27 -27 -52 -34 -56 -6 -4 -9 -10 -6 -13 4 -3 91 29 195 70 l188 76 76 -31
c91 -37 114 -37 146 -4 21 20 25 32 22 62 -3 20 -7 43 -9 50 -3 9 57 38 189
91 l194 78 205 -64 c417 -129 809 -221 1193 -278 202 -30 436 -55 505 -53 40
1 53 3 30 5 -465 40 -982 133 -1431 258 -790 221 -1887 675 -2665 1106 -300
165 -383 222 -505 343 -205 206 -237 424 -90 624 72 97 218 182 314 182 86 -1
281 -33 393 -66 12 -3 19 7 29 41 7 25 11 48 8 51 -7 6 -135 33 -168 35 -51 3
78 17 165 18 98 1 258 -20 345 -45 206 -60 824 -308 1754 -705 310 -133 396
-165 372 -142 -3 4 -155 70 -336 148 l-330 141 67 80 c112 131 160 182 322
343 688 680 1523 1149 2471 1386 658 165 1415 199 2095 94 781 -120 1509 -404
2176 -850 406 -270 864 -688 1151 -1047 32 -40 58 -67 58 -59 0 8 -45 67 -101
133 -599 706 -1331 1224 -2199 1557 -427 164 -883 270 -1385 322 -177 19 -689
27 -855 15z"/>
<path d="M10770 17250 c-46 -15 -1825 -616 -2672 -902 -131 -45 -236 -84 -233
-88 2 -3 572 184 1266 417 694 233 1264 422 1266 420 1 -2 -54 -27 -125 -55
-118 -47 -418 -168 -1327 -537 -198 -80 -474 -191 -612 -247 -139 -56 -253
-104 -253 -108 0 -3 16 -14 36 -25 64 -34 188 -164 220 -230 39 -81 39 -165 1
-248 l-26 -57 114 61 c113 60 155 69 155 33 0 -13 -129 -556 -133 -560 -1 -1
-49 19 -107 45 -58 26 -180 80 -272 121 -92 41 -166 75 -165 76 1 1 54 29 117
64 63 34 118 65 122 69 5 4 -16 7 -45 8 -67 1 -156 24 -252 64 -124 51 -391
221 -434 275 -10 13 -22 24 -27 24 -11 0 -818 -331 -827 -339 -4 -4 32 -26 80
-49 91 -42 281 -133 581 -278 95 -45 181 -86 192 -89 14 -4 53 12 122 50 88
48 106 54 126 46 35 -16 42 -14 42 17 0 24 11 33 87 75 53 30 94 47 107 44 12
-2 315 -134 675 -291 359 -158 655 -285 658 -283 2 2 -10 10 -26 17 -26 11
-30 18 -35 63 -8 80 -27 1179 -21 1186 4 3 52 31 108 62 l102 56 28 -21 c122
-90 170 -99 202 -35 24 45 18 68 -25 108 l-40 37 343 187 c189 103 348 187
352 187 5 0 31 -17 59 -38 93 -70 123 -76 166 -30 34 37 26 80 -21 123 -22 20
-39 38 -37 40 1 1 188 103 413 225 226 123 437 237 469 255 l59 33 -54 6 c-59
7 -436 37 -441 35 -2 -1 -28 -9 -58 -19z"/>
<path d="M4646 16593 c-10 -72 -7 -90 12 -96 9 -2 25 -8 35 -12 15 -6 17 0 17
63 0 68 -1 70 -29 80 -28 10 -29 10 -35 -35z"/>
<path d="M4790 16511 l0 -68 50 -21 50 -21 0 69 0 69 -46 21 c-26 11 -48 20
-50 20 -2 0 -4 -31 -4 -69z"/>
<path d="M4980 16431 c0 -46 4 -71 13 -74 6 -3 29 -12 50 -21 l37 -16 0 69 c0
46 -4 71 -12 74 -7 3 -30 12 -50 21 l-38 16 0 -69z"/>
<path d="M5170 16350 l0 -69 46 -21 c26 -11 48 -20 50 -20 2 0 4 31 4 68 l0
68 -50 21 -50 21 0 -68z"/>
<path d="M5362 16263 l3 -66 43 -18 42 -18 0 69 0 70 -36 15 c-20 8 -41 15
-46 15 -5 0 -8 -30 -6 -67z"/>
<path d="M7601 16283 c-38 -8 -107 -86 -142 -160 -72 -155 -39 -316 70 -330
76 -10 189 76 243 185 66 136 9 297 -108 307 -21 2 -50 1 -63 -2z"/>
<path d="M5540 16186 c0 -42 4 -66 13 -69 6 -3 29 -12 50 -21 l37 -16 0 68 0
68 -35 17 c-60 29 -65 25 -65 -47z"/>
<path d="M5730 16111 l0 -67 45 -22 c25 -12 48 -22 50 -22 3 0 5 31 5 69 l0
68 -50 21 -50 21 0 -68z"/>
<path d="M7235 16055 c-71 -25 -179 -61 -238 -81 -60 -20 -107 -38 -104 -40 2
-2 116 34 253 80 137 47 242 85 234 85 -8 0 -73 -20 -145 -44z"/>
<path d="M5922 16024 l3 -65 43 -19 42 -19 0 69 0 70 -36 15 c-20 8 -41 15
-46 15 -5 0 -8 -29 -6 -66z"/>
<path d="M6100 15951 c0 -46 4 -71 13 -74 6 -3 29 -12 50 -21 l37 -16 0 69 c0
46 -4 71 -12 74 -7 3 -30 12 -50 21 l-38 16 0 -69z"/>
<path d="M6290 15871 c0 -46 4 -71 13 -74 6 -3 29 -12 50 -21 l37 -16 0 69 0
68 -50 21 -50 21 0 -68z"/>
<path d="M6840 15920 c-18 -12 -2 -12 25 0 13 6 15 9 5 9 -8 0 -22 -4 -30 -9z"/>
<path d="M6470 15805 c0 -30 3 -55 6 -55 14 0 94 64 87 70 -5 4 -27 14 -50 23
l-43 17 0 -55z"/>
<path d="M14720 15645 c0 -3 33 -60 74 -128 40 -67 103 -178 140 -247 36 -69
66 -119 66 -112 0 17 -82 171 -187 350 -75 127 -93 154 -93 137z"/>
<path d="M7782 15223 l3 -66 43 -18 42 -18 0 68 0 69 -40 16 c-22 9 -43 16
-46 16 -3 0 -4 -30 -2 -67z"/>
<path d="M10411 15157 c-483 -209 -878 -381 -950 -414 l-84 -39 134 -75 134
-75 40 23 c22 13 114 61 205 107 91 46 316 162 500 258 185 96 370 192 413
213 88 46 96 42 -112 53 l-144 7 -136 -58z"/>
<path d="M7960 15145 l0 -65 36 -15 c20 -8 38 -15 40 -15 2 0 4 31 4 68 0 68
0 68 -33 80 -18 7 -36 12 -40 12 -4 0 -7 -29 -7 -65z"/>
<path d="M8130 15072 c0 -68 0 -68 33 -80 18 -7 36 -12 40 -12 4 0 7 29 7 65
l0 65 -36 15 c-20 8 -38 15 -40 15 -2 0 -4 -31 -4 -68z"/>
<path d="M8300 15000 c0 -63 10 -78 68 -95 21 -6 22 -4 22 60 0 66 0 66 -35
81 -52 21 -55 19 -55 -46z"/>
<path d="M8480 14921 c0 -57 3 -70 18 -74 9 -2 25 -8 35 -12 16 -7 18 -2 15
61 -3 66 -4 68 -35 81 l-33 13 0 -69z"/>
<path d="M4469 14772 c-65 -39 -114 -166 -114 -292 1 -71 5 -91 24 -122 26
-43 77 -78 113 -78 60 0 167 109 200 204 37 109 13 228 -57 282 -25 19 -43 24
-86 23 -30 0 -66 -8 -80 -17z"/>
<path d="M15231 14615 c-1 -6 21 -79 48 -161 27 -83 62 -197 77 -254 15 -57
29 -99 31 -93 2 5 -17 79 -41 164 -48 164 -114 361 -115 344z"/>
<path d="M9657 14334 c-43 -58 -127 -99 -261 -129 -34 -7 -52 -13 -42 -14 32
-2 148 30 201 55 46 21 134 98 124 108 -2 2 -12 -7 -22 -20z"/>
<path d="M4324 14282 c-21 -16 -266 -190 -542 -387 -333 -237 -499 -361 -490
-365 7 -4 74 -13 148 -20 l135 -13 307 121 c169 67 313 122 320 122 7 0 73
-25 145 -55 73 -30 142 -55 153 -55 34 0 70 44 70 85 0 44 -23 68 -89 92 -28
10 -51 20 -51 23 0 7 532 221 536 217 2 -2 -8 -50 -21 -107 -152 -675 -163
-1465 -29 -2173 101 -538 320 -1144 572 -1581 36 -63 42 -80 31 -87 -8 -5 -91
-48 -185 -96 l-171 -87 42 -80 c23 -45 140 -274 260 -511 120 -236 235 -461
255 -500 21 -38 95 -184 165 -323 125 -250 127 -253 173 -276 122 -62 191
-191 213 -394 11 -103 14 -112 78 -237 l66 -130 60 -3 c80 -4 170 -27 206 -53
16 -11 39 -39 51 -62 19 -38 22 -40 32 -24 6 11 52 77 101 148 50 70 137 197
195 281 133 194 195 270 311 386 207 208 411 326 597 347 l62 7 1 -39 c0 -21
2 -45 3 -53 3 -17 11 -170 26 -495 5 -121 12 -267 15 -325 34 -722 41 -1996
12 -2410 -10 -135 -24 -301 -32 -370 -30 -244 -157 -828 -301 -1375 -58 -220
-219 -791 -258 -915 -13 -40 -15 86 -15 1066 -1 1137 -4 1274 -46 1844 -39
535 -121 1248 -140 1228 -3 -2 6 -104 20 -225 54 -493 95 -981 125 -1522 l10
-173 -29 -39 c-15 -21 -31 -37 -34 -34 -4 3 -5 2 -2 -1 6 -8 -102 -148 -216
-279 -119 -137 -356 -366 -467 -450 -51 -38 -92 -74 -92 -79 0 -19 -106 -149
-167 -206 -120 -109 -336 -228 -503 -275 -83 -24 -269 -25 -350 -2 -30 8 -56
14 -57 13 -1 -1 -9 -26 -16 -56 l-14 -54 -114 0 c-108 -1 -117 -3 -169 -32
-30 -17 -70 -50 -87 -73 -65 -85 -64 -57 -61 -1007 l3 -859 23 -45 c50 -96
136 -156 240 -166 l58 -6 12 -75 c29 -184 139 -305 317 -349 41 -10 -65 -13
-620 -15 -368 -1 -1237 -5 -1930 -8 -693 -4 2383 -7 6835 -7 4452 0 7539 3
6860 6 -679 4 -3070 4 -5312 2 l-4078 -5 0 422 0 421 51 103 c29 56 66 125 84
152 82 129 222 385 333 610 35 72 68 138 72 147 23 42 143 316 193 438 164
403 329 910 412 1270 99 430 143 656 174 905 64 501 84 935 61 1330 -14 252
-20 296 -39 290 -17 -5 -18 -30 23 635 3 52 13 239 21 415 8 176 17 352 19
390 3 39 8 172 12 296 7 217 6 227 -12 232 -38 12 -177 27 -242 27 l-67 0 -77
153 c-43 83 -162 319 -266 522 -103 204 -275 541 -382 750 -106 209 -224 441
-262 515 -112 219 -204 287 -374 277 -78 -4 -86 -7 -255 -94 -96 -50 -311
-160 -479 -245 -168 -86 -444 -226 -614 -313 l-309 -158 -19 24 c-37 47 -258
507 -321 669 -237 606 -355 1187 -373 1850 -12 403 32 858 123 1278 25 118 28
124 57 136 l31 13 -60 7 c-162 19 -319 68 -502 156 -69 33 -126 60 -127 60 -1
0 -20 -13 -42 -28z m2921 -4019 c4 -12 -1 -24 -15 -35 l-21 -17 32 -57 c31
-54 32 -57 14 -70 -29 -21 -33 -18 -62 44 -15 31 -29 58 -30 60 0 2 -11 -2
-23 -8 -18 -10 -24 -9 -31 1 -16 26 -9 35 49 66 67 37 78 39 87 16z m-138 -95
c15 -14 23 -33 23 -54 0 -24 7 -38 27 -52 l28 -20 -26 -12 c-22 -10 -31 -9
-52 5 -29 18 -44 6 -28 -23 8 -16 6 -21 -14 -30 -24 -11 -26 -9 -65 68 -22 44
-40 83 -40 88 0 11 80 51 104 51 11 1 30 -9 43 -21z m-143 -99 c35 -41 36
-100 1 -134 -33 -34 -96 -35 -130 -1 -67 67 -31 166 60 166 36 0 47 -5 69 -31z
m-185 -75 c29 -37 26 -71 -8 -103 -21 -20 -28 -34 -25 -49 4 -14 -1 -24 -15
-31 -18 -10 -23 -4 -60 66 -22 43 -41 83 -42 88 -3 13 79 55 107 55 13 0 32
-12 43 -26z m-169 -59 c0 -8 0 -18 0 -22 0 -5 -13 -12 -30 -16 -43 -11 -39
-31 5 -23 20 4 45 4 55 1 53 -17 43 -92 -16 -120 -43 -20 -68 -16 -72 11 -3
18 4 23 32 28 52 10 44 26 -12 26 -26 0 -53 5 -60 12 -16 16 -15 60 1 80 28
36 97 52 97 23z m-130 -79 c0 -19 -6 -25 -27 -28 -14 -2 -28 -9 -31 -17 -3
-10 4 -12 37 -6 49 8 81 -12 81 -52 0 -27 -41 -73 -66 -73 -9 0 -32 -10 -52
-22 -28 -17 -38 -19 -53 -10 -27 17 -69 -4 -69 -34 0 -20 -34 -44 -45 -32 -6
6 -23 182 -18 190 2 5 13 12 23 18 15 8 28 1 72 -38 29 -26 62 -54 72 -62 17
-14 18 -13 12 6 -5 17 0 22 31 30 51 12 43 29 -11 25 -38 -2 -47 1 -61 23 -32
49 11 103 83 105 17 1 22 -5 22 -23z m-280 -156 c27 -27 26 -74 -2 -100 -12
-11 -26 -20 -31 -20 -5 0 -7 -10 -4 -22 6 -23 -8 -48 -27 -48 -6 0 -30 38 -53
84 l-41 83 41 21 c53 27 91 28 117 2z m1170 -309 c236 -81 383 -291 382 -546
0 -153 -53 -276 -165 -381 -159 -150 -372 -185 -572 -94 -165 75 -282 221
-320 399 -19 92 -19 144 1 234 48 212 199 362 409 407 66 15 194 5 265 -19z
m425 -25 c35 -15 75 -67 75 -97 0 -9 7 -22 15 -29 13 -11 15 -8 15 20 0 35 33
90 55 90 24 0 34 -85 13 -123 -6 -12 -18 -27 -27 -34 -14 -10 -14 -16 -2 -48
7 -20 10 -39 6 -43 -14 -14 -97 -4 -123 15 -32 24 -68 71 -60 79 13 12 97 5
127 -11 l32 -16 -26 39 c-18 27 -37 43 -63 50 -47 14 -80 48 -88 90 -7 37 0
39 51 18z m295 -176 c0 -64 -43 -128 -97 -145 -14 -4 -23 -15 -24 -28 -1 -12
-5 -2 -10 23 -12 71 26 150 85 176 44 19 46 18 46 -26z m-196 -144 c38 -16 76
-64 76 -97 l0 -23 16 23 c28 40 134 70 134 39 0 -21 -37 -76 -62 -92 -13 -8
-38 -16 -57 -18 -29 -4 -35 -9 -51 -51 l-18 -46 29 14 c32 17 115 20 124 5 9
-15 -25 -59 -59 -77 -18 -9 -52 -16 -81 -15 -43 1 -55 -3 -85 -31 l-35 -32 31
35 c54 60 59 78 32 107 -17 18 -23 36 -23 68 0 24 3 47 8 51 9 9 57 -35 57
-53 0 -28 19 -11 26 22 7 41 10 37 -41 56 -44 16 -85 67 -85 105 0 28 16 30
64 10z m-1354 -341 c21 -43 21 -47 7 -107 -9 -35 -16 -58 -16 -51 -1 7 -12 29
-26 49 -14 21 -25 51 -25 70 0 35 18 84 31 84 4 0 17 -20 29 -45z m119 -116
c17 -49 13 -77 -16 -130 l-28 -49 44 -42 c25 -26 39 -34 32 -21 -14 28 -14 71
0 112 13 38 26 36 57 -9 24 -35 28 -82 12 -126 -12 -32 -14 -29 33 -49 l38
-16 -16 30 c-17 34 -20 71 -5 71 5 0 20 -5 33 -11 25 -11 38 -30 57 -81 8 -24
15 -28 52 -29 28 -1 34 -3 16 -6 -17 -3 -28 -12 -32 -26 -10 -43 -61 -79 -117
-85 l-52 -5 7 29 c9 36 22 52 60 75 21 13 26 20 15 23 -8 3 -27 10 -42 16 -25
9 -31 7 -48 -14 -26 -33 -72 -50 -120 -43 -50 7 -54 10 -40 36 14 26 59 50
100 53 16 1 29 4 27 5 -2 2 -20 16 -41 32 l-38 28 -47 -20 c-54 -22 -96 -19
-147 13 -42 25 -41 34 1 54 39 18 108 21 138 5 18 -9 17 -6 -6 28 -24 34 -30
38 -71 38 -45 1 -87 23 -109 58 -13 21 5 37 43 37 33 0 100 -40 107 -64 6 -17
9 -13 20 24 13 44 45 90 63 90 5 0 14 -14 20 -31z m374 -346 c-7 -2 -19 -2
-25 0 -7 3 -2 5 12 5 14 0 19 -2 13 -5z"/>
<path d="M7041 10130 c-11 -6 -12 -14 -5 -30 8 -19 11 -19 29 -6 18 13 18 16
5 30 -10 10 -20 12 -29 6z"/>
<path d="M6861 10032 c-12 -23 7 -65 32 -70 23 -5 47 15 47 39 0 42 -60 66
-79 31z"/>
<path d="M6704 9956 c-3 -8 -2 -22 4 -31 8 -15 10 -16 25 -1 18 19 12 46 -9
46 -8 0 -17 -6 -20 -14z"/>
<path d="M6290 9700 c0 -13 5 -18 15 -14 12 5 13 10 4 20 -15 19 -19 18 -19
-6z"/>
<path d="M6116 9661 c-3 -4 1 -16 8 -27 12 -15 16 -16 29 -5 9 7 13 19 10 27
-6 15 -39 19 -47 5z"/>
<path d="M7092 9360 c-18 -4 -35 -10 -37 -12 -3 -2 21 -12 53 -22 31 -10 88
-34 125 -54 l68 -35 45 44 c24 24 44 46 44 50 0 3 -26 14 -58 23 -60 17 -182
20 -240 6z"/>
<path d="M7010 9305 c0 -13 96 -195 103 -195 10 0 147 90 147 97 0 8 -142 70
-197 86 -29 9 -53 14 -53 12z"/>
<path d="M7387 9259 l-49 -49 36 -40 c28 -31 64 -81 92 -128 4 -7 164 79 164
87 0 24 -167 183 -189 180 -3 0 -28 -23 -54 -50z"/>
<path d="M6941 9228 c-23 -69 -52 -200 -46 -206 5 -5 66 15 126 42 l47 21 -53
104 -53 103 -21 -64z"/>
<path d="M6853 9217 c-40 -43 -96 -147 -109 -199 -6 -26 -4 -28 22 -27 70 2
77 9 90 86 6 39 19 94 29 123 9 28 15 53 12 56 -2 2 -22 -15 -44 -39z"/>
<path d="M7281 9166 c-9 -11 -100 -73 -149 -102 -4 -2 69 -144 78 -149 7 -4
194 85 208 100 8 8 -46 90 -86 128 -33 32 -41 36 -51 23z"/>
<path d="M7570 9039 c-41 -23 -76 -42 -78 -44 -2 -1 6 -29 16 -61 11 -33 23
-82 27 -109 l6 -51 86 15 86 15 -6 81 c-5 75 -40 195 -55 195 -4 -1 -41 -19
-82 -41z"/>
<path d="M7050 9025 c-14 -7 -56 -23 -94 -35 l-68 -23 5 -42 c4 -23 16 -67 27
-98 l21 -56 114 56 113 57 -39 78 c-22 43 -43 78 -47 78 -4 -1 -18 -7 -32 -15z"/>
<path d="M7333 8917 l-101 -52 40 -80 c22 -44 41 -81 42 -82 1 -1 41 12 89 29
l87 31 0 37 c0 41 -36 170 -48 169 -4 0 -53 -23 -109 -52z"/>
<path d="M6758 8943 c-27 -4 -28 -6 -28 -67 0 -54 23 -172 35 -185 5 -4 99 35
121 51 7 5 4 28 -12 75 -13 38 -24 83 -24 101 0 30 -2 32 -32 31 -18 -1 -45
-4 -60 -6z"/>
<path d="M7080 8789 c-52 -27 -99 -54 -104 -59 -11 -11 29 -75 79 -124 l35
-35 81 49 c44 27 86 51 92 53 13 5 -61 158 -79 164 -5 1 -52 -20 -104 -48z"/>
<path d="M7594 8738 l-52 -9 -7 -57 c-3 -31 -15 -95 -26 -141 -11 -46 -17 -86
-15 -88 3 -3 34 24 69 60 62 62 115 150 131 220 6 25 4 27 -21 26 -16 -1 -51
-6 -79 -11z"/>
<path d="M7412 8686 c-35 -13 -66 -26 -68 -29 -6 -6 81 -183 94 -191 10 -6 52
167 52 213 0 37 2 36 -78 7z"/>
<path d="M6847 8669 c-38 -19 -55 -34 -51 -42 26 -45 81 -110 120 -142 l46
-38 46 46 45 45 -47 53 c-25 28 -54 65 -63 80 -10 16 -22 29 -28 29 -5 -1 -36
-14 -68 -31z"/>
<path d="M7230 8602 c-85 -51 -97 -61 -80 -73 53 -35 207 -99 240 -99 5 0 -12
45 -40 100 -28 55 -56 100 -63 99 -6 0 -32 -12 -57 -27z"/>
<path d="M7050 8470 c-28 -25 -41 -43 -35 -49 6 -5 38 -19 72 -30 63 -21 206
-28 262 -12 20 5 15 9 -35 25 -64 20 -133 51 -187 85 l-33 20 -44 -39z"/>
<path d="M9195 14177 c-39 -6 -262 -11 -510 -11 -311 -1 -443 -4 -450 -12 -15
-17 -252 -184 -261 -184 -4 0 5 15 22 33 l29 32 -38 -34 c-38 -36 -46 -47 -24
-35 6 3 -1 -5 -18 -19 -27 -22 -28 -25 -10 -30 11 -3 56 -9 100 -12 l80 -7
235 120 235 120 200 6 c214 7 419 22 500 35 76 13 -3 11 -90 -2z"/>
<path d="M8089 14113 c-13 -16 -12 -17 4 -4 16 13 21 21 13 21 -2 0 -10 -8
-17 -17z"/>
<path d="M15391 14074 c0 -11 3 -14 6 -6 3 7 2 16 -1 19 -3 4 -6 -2 -5 -13z"/>
<path d="M15402 14035 c0 -11 4 -31 8 -45 6 -20 8 -21 8 -5 0 11 -4 31 -8 45
-6 20 -8 21 -8 5z"/>
<path d="M15422 13945 c0 -11 4 -31 8 -45 6 -20 8 -21 8 -5 0 11 -4 31 -8 45
-6 20 -8 21 -8 5z"/>
<path d="M9693 13896 c-145 -36 -237 -118 -297 -263 -74 -175 -109 -211 -317
-325 -97 -53 -151 -89 -195 -133 -88 -87 -95 -113 -104 -370 -6 -194 -8 -215
-32 -271 -35 -85 -90 -162 -198 -279 -192 -208 -270 -350 -270 -490 0 -104 36
-165 189 -325 52 -54 93 -108 113 -147 34 -69 36 -97 29 -348 -3 -103 0 -128
18 -175 29 -76 93 -140 140 -140 4 0 11 183 14 408 8 429 12 592 27 942 14
303 48 453 154 676 67 140 138 245 239 356 l79 88 28 -38 c62 -85 229 -225
310 -261 110 -48 293 -64 422 -37 164 35 278 79 530 207 213 107 218 108 332
84 141 -30 283 -123 334 -219 24 -45 27 -61 26 -146 0 -84 -5 -108 -38 -200
-77 -213 -88 -269 -94 -454 -5 -201 11 -474 39 -644 35 -214 99 -371 184 -458
79 -80 158 -94 224 -39 43 37 64 90 72 188 8 96 38 174 85 218 24 23 32 24
147 24 110 0 127 -2 177 -26 73 -34 111 -67 143 -126 39 -73 58 -156 59 -264
1 -164 -32 -261 -122 -350 -88 -86 -210 -123 -367 -110 l-73 6 -1 -220 c-1
-121 -1 -238 -1 -260 l0 -40 44 2 c24 1 86 13 138 27 52 14 96 23 97 22 2 -2
-62 -136 -142 -299 -80 -163 -145 -307 -145 -319 1 -13 61 101 135 252 74 151
147 299 163 329 26 52 31 56 105 88 234 99 423 258 544 459 29 48 53 90 53 93
0 3 -23 12 -52 19 -50 12 -128 54 -128 70 0 4 16 16 35 26 77 42 166 151 199
242 l14 41 -48 -5 c-58 -5 -104 9 -148 46 l-33 28 32 67 c17 37 36 67 42 67 7
0 186 -36 399 -80 414 -86 546 -124 717 -208 234 -116 456 -296 624 -507 66
-82 167 -241 229 -359 71 -137 76 -132 7 7 -255 509 -689 873 -1195 1001 -117
29 -765 166 -788 166 -9 0 -28 -25 -46 -60 -17 -34 -35 -58 -39 -55 -5 3 -15
28 -21 56 -20 81 -7 169 47 330 46 139 48 148 48 259 0 111 -1 118 -34 185
-41 83 -124 170 -197 206 l-51 25 34 39 c79 92 116 225 95 347 -24 137 -92
225 -238 308 -115 64 -205 124 -236 157 l-27 28 103 -3 c123 -5 183 11 262 67
65 46 108 96 137 157 31 69 32 218 0 286 -31 67 -104 142 -166 169 -76 34
-203 34 -271 -1 -79 -40 -146 -122 -224 -276 l-69 -136 -44 57 c-168 219 -270
323 -380 388 -141 83 -266 99 -599 77 -225 -15 -281 -10 -535 47 -183 41 -360
53 -452 29z"/>
<path d="M15442 13850 c0 -14 2 -19 5 -12 2 6 2 18 0 25 -3 6 -5 1 -5 -13z"/>
<path d="M15452 13800 c0 -14 2 -19 5 -12 2 6 2 18 0 25 -3 6 -5 1 -5 -13z"/>
<path d="M15462 13745 c0 -16 2 -22 5 -12 2 9 2 23 0 30 -3 6 -5 -1 -5 -18z"/>
<path d="M15472 13685 c0 -16 2 -22 5 -12 2 9 2 23 0 30 -3 6 -5 -1 -5 -18z"/>
<path d="M15482 13630 c0 -14 2 -19 5 -12 2 6 2 18 0 25 -3 6 -5 1 -5 -13z"/>
<path d="M15492 13565 c0 -16 2 -22 5 -12 2 9 2 23 0 30 -3 6 -5 -1 -5 -18z"/>
<path d="M15502 13485 c0 -16 2 -22 5 -12 2 9 2 23 0 30 -3 6 -5 -1 -5 -18z"/>
<path d="M15512 13410 c0 -19 2 -27 5 -17 2 9 2 25 0 35 -3 9 -5 1 -5 -18z"/>
<path d="M15522 13325 c0 -16 2 -22 5 -12 2 9 2 23 0 30 -3 6 -5 -1 -5 -18z"/>
<path d="M15532 13200 c0 -19 2 -27 5 -17 2 9 2 25 0 35 -3 9 -5 1 -5 -18z"/>
<path d="M15541 13084 c0 -11 3 -14 6 -6 3 7 2 16 -1 19 -3 4 -6 -2 -5 -13z"/>
<path d="M15542 13040 c0 -14 2 -19 5 -12 2 6 2 18 0 25 -3 6 -5 1 -5 -13z"/>
<path d="M15542 12520 c0 -14 2 -19 5 -12 2 6 2 18 0 25 -3 6 -5 1 -5 -13z"/>
<path d="M15532 12360 c0 -19 2 -27 5 -17 2 9 2 25 0 35 -3 9 -5 1 -5 -18z"/>
<path d="M10425 12323 c-81 -17 -165 -65 -165 -94 0 -24 28 -29 180 -29 74 0
188 -7 253 -14 138 -17 151 -16 155 11 5 34 -86 94 -183 119 -47 13 -195 17
-240 7z"/>
<path d="M15522 12240 c0 -19 2 -27 5 -17 2 9 2 25 0 35 -3 9 -5 1 -5 -18z"/>
<path d="M9170 12245 c-89 -28 -165 -122 -116 -141 8 -3 59 2 114 10 55 9 140
16 190 16 50 0 97 3 106 6 38 15 7 64 -64 100 -47 23 -170 29 -230 9z"/>
<path d="M15512 12150 c0 -19 2 -27 5 -17 2 9 2 25 0 35 -3 9 -5 1 -5 -18z"/>
<path d="M15502 12070 c0 -19 2 -27 5 -17 2 9 2 25 0 35 -3 9 -5 1 -5 -18z"/>
<path d="M15492 11995 c0 -16 2 -22 5 -12 2 9 2 23 0 30 -3 6 -5 -1 -5 -18z"/>
<path d="M15482 11935 c0 -16 2 -22 5 -12 2 9 2 23 0 30 -3 6 -5 -1 -5 -18z"/>
<path d="M15472 11870 c0 -14 2 -19 5 -12 2 6 2 18 0 25 -3 6 -5 1 -5 -13z"/>
<path d="M10447 11826 c-31 -7 -76 -26 -99 -42 -41 -29 -78 -77 -67 -88 3 -3
40 8 83 25 109 42 189 47 295 20 87 -23 102 -21 85 7 -41 65 -185 103 -297 78z"/>
<path d="M15462 11815 c0 -16 2 -22 5 -12 2 9 2 23 0 30 -3 6 -5 -1 -5 -18z"/>
<path d="M9168 11809 c-53 -12 -136 -66 -154 -100 -13 -26 -13 -29 1 -29 9 0
44 12 78 27 86 37 203 42 310 15 42 -11 79 -16 82 -12 3 4 -13 24 -34 43 -64
58 -179 81 -283 56z"/>
<path d="M15452 11760 c0 -14 2 -19 5 -12 2 6 2 18 0 25 -3 6 -5 1 -5 -13z"/>
<path d="M9823 11660 c-81 -204 -293 -856 -293 -901 0 -34 29 -78 56 -85 24
-6 138 -8 244 -4 63 2 25 16 -66 24 -155 15 -165 17 -175 40 -8 18 5 69 65
255 132 405 220 714 214 755 -2 13 -19 -18 -45 -84z"/>
<path d="M15442 11710 c0 -14 2 -19 5 -12 2 6 2 18 0 25 -3 6 -5 1 -5 -13z"/>
<path d="M15426 11644 c-4 -20 -5 -38 -3 -40 3 -3 8 11 11 32 4 20 5 38 3 40
-3 3 -8 -11 -11 -32z"/>
<path d="M15401 11534 c-7 -30 -11 -57 -8 -60 2 -2 9 21 16 52 7 30 11 57 8
60 -2 2 -9 -21 -16 -52z"/>
<path d="M15371 11414 c-7 -25 -10 -48 -8 -51 3 -2 10 17 16 43 7 25 10 48 8
51 -3 2 -10 -17 -16 -43z"/>
<path d="M9290 11443 c-61 -18 -90 -56 -90 -118 0 -26 9 -45 34 -72 30 -33 38
-37 85 -37 44 0 56 5 82 31 53 53 48 132 -11 174 -27 18 -76 29 -100 22z"/>
<path d="M10404 11406 c-89 -89 3 -224 126 -187 28 8 47 22 60 44 52 85 -4
177 -108 177 -37 0 -50 -6 -78 -34z"/>
<path d="M15345 11320 c-18 -80 -138 -426 -200 -575 -95 -231 -238 -515 -354
-705 -133 -218 -119 -198 -131 -180 -16 24 -10 -2 10 -45 13 -27 18 -32 14
-14 -4 21 18 66 111 220 175 292 326 610 443 934 62 170 124 374 119 389 -2 6
-8 -5 -12 -24z"/>
<path d="M10246 10600 c-2 -8 -12 -40 -21 -70 -44 -141 -142 -228 -296 -264
-69 -17 -80 -23 -59 -37 27 -18 170 -5 225 22 108 51 185 167 185 277 0 50
-24 101 -34 72z"/>
<path d="M15855 10003 c-318 -28 -604 -112 -919 -269 -118 -60 -132 -64 -173
-58 l-44 6 7 -28 c4 -16 8 -31 10 -33 1 -2 -6 -26 -18 -55 -11 -28 -81 -208
-155 -401 -74 -192 -145 -377 -158 -410 -107 -269 -395 -1032 -395 -1044 0
-36 25 22 143 329 69 179 173 449 232 600 261 674 335 869 335 883 0 46 32 87
97 125 539 313 1137 417 1693 292 471 -105 913 -351 1345 -749 88 -82 88 -81
-12 16 -452 444 -1050 738 -1607 792 -102 10 -289 12 -381 4z"/>
<path d="M14630 9915 c0 -5 5 -17 10 -25 5 -8 10 -10 10 -5 0 6 -5 17 -10 25
-5 8 -10 11 -10 5z"/>
<path d="M9496 8690 c28 -161 91 -279 218 -406 188 -188 425 -274 752 -274
298 0 538 60 749 188 84 51 234 150 245 162 3 3 34 28 70 55 36 28 71 56 78
63 8 7 30 25 50 40 20 15 51 40 68 55 18 15 40 34 50 42 11 7 16 17 12 21 -4
4 -34 -15 -66 -43 -31 -28 -76 -63 -98 -79 -23 -16 -74 -54 -115 -85 -377
-288 -640 -388 -1024 -392 -291 -3 -494 58 -690 208 -95 73 -187 186 -229 280
-9 22 -21 47 -25 55 -4 8 -14 40 -21 70 -15 62 -34 92 -24 40z"/>
<path d="M17866 8685 c-9 -26 -7 -32 5 -12 6 10 9 21 6 23 -2 3 -7 -2 -11 -11z"/>
<path d="M17831 8589 c-6 -18 -9 -34 -7 -36 2 -2 9 10 15 28 6 18 9 34 7 36
-2 2 -9 -10 -15 -28z"/>
<path d="M17787 8468 c-8 -24 -92 -250 -186 -503 -200 -536 -256 -685 -346
-930 -193 -522 -386 -1039 -391 -1046 -2 -5 -35 26 -73 69 -383 434 -861 690
-1466 784 -256 40 -965 25 -965 -19 0 -9 6 -13 15 -9 8 3 92 13 187 22 225 21
562 15 758 -15 556 -85 999 -305 1368 -681 46 -47 105 -111 130 -143 34 -43
48 -54 54 -44 4 8 50 131 102 273 52 143 165 450 251 684 86 234 167 454 180
490 13 36 109 299 214 584 105 285 190 521 187 523 -2 2 -11 -15 -19 -39z"/>
<path d="M4650 7975 c-7 -13 -23 -28 -36 -32 -13 -5 -20 -13 -16 -18 6 -10
118 -105 391 -333 42 -35 90 -76 106 -90 17 -15 52 -44 77 -65 26 -21 53 -43
60 -50 7 -7 38 -32 68 -57 30 -25 68 -57 85 -72 74 -65 189 -157 193 -154 2 2
9 27 17 54 l13 51 -57 49 c-31 27 -153 130 -272 228 -353 293 -573 476 -595
496 -20 18 -21 18 -34 -7z"/>
<path d="M10419 7657 c-84 -44 -130 -147 -109 -243 11 -46 10 -47 -30 -88 -54
-55 -77 -127 -62 -201 l11 -52 -44 -48 c-53 -56 -71 -121 -56 -200 9 -48 9
-51 -20 -78 -59 -57 -83 -132 -68 -214 10 -52 10 -54 -21 -79 -17 -15 -40 -45
-52 -67 -17 -35 -20 -53 -15 -123 5 -81 4 -83 -24 -108 -46 -41 -72 -103 -72
-167 1 -31 6 -66 12 -77 10 -18 7 -23 -18 -38 -63 -37 -103 -159 -77 -235 8
-24 14 -44 13 -44 -68 -38 -107 -106 -107 -188 0 -31 4 -67 9 -81 9 -21 6 -28
-25 -51 -71 -54 -97 -167 -60 -256 5 -10 -2 -20 -20 -29 -14 -8 -39 -37 -55
-65 -23 -39 -29 -62 -29 -109 0 -57 1 -58 18 -42 11 9 24 41 31 70 8 35 23 65
42 85 34 36 43 38 71 11 20 -18 24 -19 37 -5 13 13 13 19 3 35 -11 18 -10 20
16 20 16 0 37 9 47 20 18 20 17 20 -16 21 -102 2 -102 2 -111 34 -15 56 8 130
56 174 l26 24 23 -20 c12 -11 38 -29 57 -38 19 -10 36 -18 37 -19 1 -1 -6 -31
-17 -67 -11 -35 -20 -66 -20 -68 0 -3 29 24 64 60 l64 64 127 415 c70 228 194
636 277 905 82 270 165 540 184 601 38 123 58 156 112 183 75 37 68 39 595
-104 882 -239 1221 -331 1682 -455 248 -66 466 -126 485 -132 70 -21 130 -100
130 -170 0 -18 -35 -154 -78 -303 -581 -2011 -565 -1955 -586 -1950 -12 2
-298 59 -636 125 -338 66 -655 129 -705 140 -49 10 -91 18 -92 17 -1 -1 -53
-175 -117 -387 -63 -212 -153 -515 -201 -675 -48 -159 -104 -347 -125 -417
l-38 -128 42 -10 c22 -6 82 -22 131 -35 79 -22 829 -222 1145 -307 63 -16 116
-32 118 -33 2 -2 -11 -50 -28 -107 -43 -140 -90 -188 -182 -188 -24 0 -180 36
-348 79 -168 44 -654 170 -1080 281 -426 110 -896 232 -1045 271 -148 38 -287
77 -308 86 -48 21 -82 64 -97 123 -11 42 -8 56 40 215 60 197 58 189 45 193
-14 5 -115 -324 -115 -376 0 -94 68 -170 179 -198 38 -10 67 -22 64 -28 -3 -5
-1 -6 5 -2 7 4 204 -43 439 -104 236 -62 501 -130 590 -153 89 -23 160 -44
158 -47 -2 -3 9 -6 23 -6 24 -1 605 -150 1212 -310 112 -30 220 -54 239 -54
47 0 115 35 150 77 26 32 81 185 81 227 0 18 -1 18 135 -20 44 -12 73 -23 64
-23 -10 -1 -21 -17 -28 -41 -6 -21 -27 -60 -46 -85 -24 -30 -31 -47 -23 -50 7
-2 59 -11 114 -19 172 -27 290 -19 397 26 46 20 64 48 30 48 -9 0 -14 2 -11 5
3 3 112 -22 243 -55 130 -34 239 -60 241 -58 4 5 -364 108 -384 108 -6 0 -12
3 -12 8 0 4 -10 8 -23 9 -12 1 -161 40 -332 86 -243 67 -972 266 -1435 391
-243 66 -341 94 -346 99 -3 3 10 59 30 124 62 207 152 509 246 828 130 438
177 596 182 600 1 2 102 -16 223 -40 121 -24 409 -80 640 -125 231 -45 508
-98 615 -120 107 -21 281 -55 385 -75 105 -20 233 -45 285 -55 89 -18 403 -79
774 -149 88 -17 162 -29 164 -27 2 2 -5 7 -15 10 -34 11 -1574 316 -1594 316
-10 0 -19 4 -19 8 0 5 27 103 61 218 57 200 178 618 454 1579 140 487 142 495
90 573 -33 50 -71 71 -170 97 -38 10 -74 21 -78 25 -4 3 1 80 12 171 33 265
61 578 60 659 l-1 75 -8 -55 c-5 -30 -16 -129 -25 -220 -18 -178 -61 -534 -71
-588 -6 -30 -9 -33 -33 -27 -14 4 -27 8 -28 9 -1 1 9 37 22 79 30 92 31 127 8
156 -20 22 -29 26 -688 221 -225 67 -421 125 -435 130 -14 5 -180 55 -370 110
-190 56 -408 121 -485 145 -77 24 -212 64 -300 90 -88 26 -178 53 -200 60 -22
7 -88 13 -146 14 -93 1 -111 -2 -150 -22z m147 -30 c2 -1 -13 -57 -32 -122
l-36 -120 -66 2 c-73 2 -80 8 -81 70 -2 74 47 143 119 170 29 11 86 11 96 0z
m-86 -301 c0 -26 -20 -28 -53 -7 l-32 21 43 0 c30 0 42 -4 42 -14z m-108 -26
c11 -10 36 -26 54 -35 29 -13 32 -19 24 -38 -5 -12 -16 -48 -26 -79 l-17 -58
-62 0 c-57 0 -63 2 -73 25 -24 52 -6 129 39 175 17 16 33 30 35 30 3 0 14 -9
26 -20z m2 -256 c22 -8 20 -34 -1 -34 -10 0 -29 9 -43 20 l-25 20 27 0 c14 0
33 -3 42 -6z m-66 -54 c24 -16 47 -30 52 -32 5 -2 -2 -39 -16 -83 l-25 -80
-67 1 -67 0 -9 43 c-12 54 6 115 44 153 16 15 32 28 37 28 4 0 27 -13 51 -30z
m-8 -260 c0 -24 -3 -24 -40 -5 -39 20 -38 25 5 25 28 0 35 -4 35 -20z m-109
-16 c7 -8 30 -24 51 -35 21 -11 38 -21 38 -23 0 -2 -9 -32 -20 -66 -11 -34
-20 -68 -20 -76 0 -9 -18 -12 -72 -11 -61 2 -72 5 -79 22 -20 51 -2 129 40
174 33 35 43 38 62 15z m23 -262 c2 -4 1 -14 -4 -22 -7 -11 -13 -11 -39 0 -17
7 -31 16 -31 21 0 11 67 12 74 1z m-106 -38 c15 -14 39 -30 55 -36 15 -5 27
-13 27 -16 0 -4 -10 -40 -23 -81 l-22 -75 -65 3 c-35 1 -68 5 -72 7 -15 9 -20
77 -10 112 10 33 65 112 78 112 3 0 17 -12 32 -26z m10 -254 c14 0 15 -9 3
-29 -7 -11 -14 -10 -39 5 -34 19 -32 39 2 30 11 -3 27 -6 34 -6z m-84 -50 c22
-17 46 -30 53 -30 18 0 17 -13 -8 -96 l-21 -70 -71 1 -72 1 -9 43 c-12 54 4
107 45 149 17 18 34 32 38 32 3 0 24 -14 45 -30z m1 -260 c0 -23 -29 -23 -56
0 l-24 20 40 -2 c28 -2 40 -8 40 -18z m-50 -60 c25 -1 36 -17 26 -41 -5 -13
-17 -49 -25 -79 l-15 -55 -73 5 -72 5 -9 39 c-13 52 5 108 48 152 l35 36 37
-31 c21 -17 42 -31 48 -31z m-35 -229 c0 -3 -4 -12 -9 -20 -8 -12 -14 -12 -37
4 -26 17 -27 19 -9 25 21 7 55 2 55 -9z m-53 -68 c18 -8 31 -18 29 -22 -2 -3
-13 -38 -25 -77 l-21 -71 -70 1 -71 1 -9 36 c-17 62 5 128 59 176 l24 21 26
-24 c14 -14 41 -32 58 -41z m-43 -219 c19 -7 9 -34 -13 -34 -9 0 -27 9 -41 20
l-25 20 32 0 c17 0 38 -3 47 -6z m2793 -2890 c-3 -3 -12 -4 -19 -1 -8 3 -5 6
6 6 11 1 17 -2 13 -5z m88 -24 c13 -6 15 -9 5 -9 -8 0 -22 4 -30 9 -18 12 -2
12 25 0z m132 -36 c-3 -3 -12 -4 -19 -1 -8 3 -5 6 6 6 11 1 17 -2 13 -5z m58
-14 c13 -5 14 -9 5 -9 -8 0 -24 4 -35 9 -13 5 -14 9 -5 9 8 0 24 -4 35 -9z
m92 -26 c-3 -3 -12 -4 -19 -1 -8 3 -5 6 6 6 11 1 17 -2 13 -5z"/>
<path d="M4367 7595 c7 -41 -18 -124 -50 -167 -34 -47 -98 -79 -169 -85 l-61
-6 25 -21 c14 -12 78 -66 143 -121 65 -55 150 -127 190 -160 40 -33 126 -105
190 -160 65 -55 132 -111 149 -125 35 -27 208 -172 216 -180 38 -38 129 -108
134 -102 4 4 6 2 4 -4 -3 -10 80 -85 166 -149 43 -33 35 -38 86 55 14 25 45
77 68 116 34 58 43 83 48 135 l5 64 -263 217 c-145 120 -278 230 -297 245 -34
28 -144 119 -230 191 -24 20 -72 60 -106 87 -34 28 -103 85 -154 128 -50 42
-94 77 -96 77 -2 0 -1 -16 2 -35z"/>
<path d="M10633 6479 c-111 -349 -245 -773 -299 -944 -53 -170 -99 -316 -102
-322 -2 -7 2 -13 9 -13 9 0 24 34 41 88 14 48 87 283 162 522 259 834 396
1285 393 1294 -2 5 -93 -276 -204 -625z"/>
<path d="M14432 6582 l20 -67 101 -24 c248 -58 530 -164 824 -311 303 -152
437 -230 730 -426 101 -68 185 -120 187 -115 3 4 14 30 25 59 12 29 30 74 41
101 l19 50 -87 64 c-405 299 -861 520 -1327 642 -182 48 -438 95 -518 95 l-35
0 20 -68z"/>
<path d="M6116 5784 c-26 -69 54 -507 118 -644 25 -55 66 -130 76 -140 3 -3
37 -52 76 -110 154 -227 177 -296 176 -525 -1 -158 -18 -253 -62 -352 -26 -59
-26 -78 1 -34 26 43 79 201 79 236 0 22 3 26 18 20 46 -20 79 -17 100 9 49 63
55 288 12 446 -27 99 -120 288 -205 415 -33 50 -62 92 -66 95 -8 8 -131 197
-172 266 -32 53 -105 203 -120 244 -3 8 -6 -3 -7 -25 l-3 -40 -8 45 c-4 25 -7
56 -7 70 l0 25 7 -25 7 -25 6 27 c6 30 -16 48 -26 22z"/>
<path d="M10116 4832 c-7 -11 -56 -164 -56 -175 0 -5 5 -7 11 -5 14 5 69 177
59 183 -5 3 -11 1 -14 -3z"/>
<path d="M9720 4777 c0 -9 68 -45 74 -40 12 12 6 21 -16 26 -13 2 -31 8 -40
12 -10 4 -18 5 -18 2z"/>
<path d="M9432 4619 c-22 -46 -31 -152 -13 -163 11 -7 44 30 37 43 -3 5 -2 31
4 58 6 27 7 61 2 78 l-8 29 -22 -45z"/>
<path d="M9625 3268 c-29 -92 -105 -361 -103 -364 2 -2 30 76 62 174 32 97 60
183 63 190 2 6 0 12 -6 12 -7 0 -13 -6 -16 -12z"/>
</g>
</svg>
