<svg width="55" height="15" viewBox="0 0 55 15" fill="none" xmlns="http://www.w3.org/2000/svg">
<path d="M3.93662 2.31178H0.179688L0.577921 0.21875H10.4511L10.0679 2.31178H6.311L4.13949 14.0419H1.79516L3.93662 2.31178Z" fill="#003082"/>
<path d="M14.6525 14.2872C11.1361 14.2872 9.32523 11.6575 9.32523 8.58317C9.28959 6.11572 10.1979 3.73126 11.8574 1.93609C13.1397 0.696677 14.8399 0.00769844 16.6062 0.0117364C20.2053 0.0117364 21.9109 2.59543 21.9109 5.73113C21.9595 8.1627 21.0906 10.5204 19.484 12.3169C18.8469 12.9536 18.0928 13.4555 17.2649 13.7937C16.437 14.1318 15.5517 14.2996 14.6601 14.2872H14.6525ZM14.9982 12.2785C15.491 12.2718 15.9776 12.1645 16.4292 11.9631C16.8809 11.7616 17.2885 11.4701 17.628 11.1055C18.7927 9.91718 19.4539 7.55582 19.4539 5.81547C19.4539 4.07512 18.8378 2.02043 16.3432 2.02043C15.8388 2.02602 15.3405 2.13397 14.8774 2.33799C14.4143 2.542 13.9956 2.83801 13.6457 3.20877C12.4464 4.67884 11.7921 6.53246 11.7973 8.44517C11.7973 10.5382 12.7065 12.2785 14.9756 12.2785H14.9982Z" fill="#003082"/>
<path d="M30.7301 7.90825H25.8686L25.1173 12.0253H30.5873L30.2041 14.057H22.3672L24.9444 0.256836H32.4583L32.0751 2.28853H26.9131L26.2293 5.92256H31.1133L30.7301 7.90825Z" fill="#003082"/>
<path d="M34.6397 0.234375H42.0935L41.7178 2.26607H36.6084L35.857 6.16077H40.6058L40.2225 8.17713H35.4963L34.4143 14.0575H32.0625L34.6397 0.234375Z" fill="#003082"/>
<path d="M44.1827 0.234375H46.512L44.3405 11.9645H49.6678L49.2846 14.0575H41.6055L44.1827 0.234375Z" fill="#003082"/>
<path d="M53.5362 13.5201C53.3123 13.7497 53.0266 13.9062 52.7154 13.9697C52.4042 14.0332 52.0815 14.0008 51.7883 13.8767C51.4951 13.7526 51.2448 13.5424 51.069 13.2728C50.8932 13.0031 50.8 12.6862 50.8011 12.3624C50.7966 12.1476 50.8365 11.9342 50.918 11.7361C50.9996 11.538 51.121 11.3595 51.2745 11.2124C51.4194 11.0572 51.5945 10.9347 51.7887 10.8528C51.9828 10.7709 52.1916 10.7315 52.4016 10.7371C52.6128 10.7304 52.8231 10.7693 53.0186 10.8512C53.2141 10.9331 53.3904 11.0562 53.5362 11.2124C53.6896 11.3595 53.8111 11.538 53.8926 11.7361C53.9742 11.9342 54.014 12.1476 54.0095 12.3624C54.0151 12.5785 53.9758 12.7934 53.8942 12.9929C53.8126 13.1924 53.6906 13.3721 53.5362 13.5201ZM51.4323 11.3734C51.3013 11.5006 51.1976 11.6542 51.1278 11.8245C51.0579 11.9947 51.0234 12.1779 51.0265 12.3624C51.0231 12.5486 51.0566 12.7335 51.125 12.9061C51.1935 13.0787 51.2954 13.2354 51.4248 13.3667C51.5526 13.4984 51.7048 13.6029 51.8724 13.6742C52.0401 13.7456 52.2199 13.7823 52.4016 13.7823C52.5832 13.7823 52.7631 13.7456 52.9307 13.6742C53.0984 13.6029 53.2505 13.4984 53.3784 13.3667C53.5077 13.2354 53.6097 13.0787 53.6781 12.9061C53.7466 12.7335 53.7801 12.5486 53.7766 12.3624C53.7766 12.1782 53.7411 11.9957 53.6719 11.8255C53.6028 11.6553 53.5016 11.5006 53.3739 11.3703C53.2462 11.24 53.0946 11.1367 52.9278 11.0662C52.761 10.9957 52.5821 10.9594 52.4016 10.9594C52.2207 10.9562 52.0412 10.9914 51.8744 11.0627C51.7075 11.1339 51.557 11.2397 51.4323 11.3734ZM52.3715 11.4654C52.534 11.4592 52.6964 11.4799 52.8524 11.5267C52.9391 11.5625 53.0122 11.6258 53.0609 11.7073C53.1096 11.7888 53.1314 11.884 53.1229 11.9791C53.1299 12.0485 53.1173 12.1186 53.0867 12.181C53.0561 12.2435 53.0087 12.2957 52.9501 12.3317C52.8746 12.3797 52.7902 12.411 52.7021 12.4237C52.7616 12.4297 52.8192 12.4484 52.871 12.4789C52.9229 12.5093 52.9677 12.5506 53.0027 12.6001C53.059 12.6809 53.0904 12.777 53.0929 12.8761V13.0447C53.0929 13.0447 53.0929 13.1291 53.0929 13.1751C53.0859 13.2079 53.0859 13.2419 53.0929 13.2747H52.8073V13.0447C52.8165 12.9671 52.8062 12.8883 52.7773 12.8159C52.7484 12.7434 52.7018 12.6797 52.642 12.6307C52.5326 12.5854 52.4141 12.567 52.2964 12.5771H52.0484V13.2824H51.7404V11.4654H52.3715ZM52.7096 11.7491C52.5915 11.6962 52.4628 11.6726 52.334 11.6801H52.0635V12.3241H52.349C52.4457 12.3437 52.5453 12.3437 52.642 12.3241C52.6896 12.3009 52.7308 12.2659 52.7617 12.2223C52.7926 12.1787 52.8124 12.1279 52.8191 12.0745C52.8258 12.0211 52.8193 11.9669 52.8002 11.9167C52.7811 11.8666 52.75 11.8221 52.7096 11.7874V11.7491Z" fill="#003082"/>
</svg>
